<svg id="Layer_1" data-name="Layer 1" xmlns="http://www.w3.org/2000/svg" xmlns:xlink="http://www.w3.org/1999/xlink" viewBox="0 0 635.87 218.84"><defs><style>.cls-1{fill:none;}.cls-2{fill:#ff006c;}.cls-3{fill:#eee;}.cls-4{opacity:0.16;}.cls-5{clip-path:url(#clip-path);}.cls-6{fill:#1c1e26;}</style><clipPath id="clip-path"><rect class="cls-1" x="-1185.83" y="-542" width="954.83" height="2066"/></clipPath></defs><title>logo</title><g id="SvgjsG1064"><polygon class="cls-2" points="29.95 218.84 61.58 131.35 0 115.38 110.67 0 69.97 88.25 131.55 104.22 29.95 218.84"/></g><g id="SvgjsG6244"><path class="cls-3" d="M173.83,125.12q1.08.88,2.76,2.37a36.58,36.58,0,0,0,3.83,3,32.11,32.11,0,0,0,6.4,3.36,18.5,18.5,0,0,0,6.66,1.21,17.49,17.49,0,0,0,5.42-.73,9.15,9.15,0,0,0,3.46-1.94,6.89,6.89,0,0,0,1.8-2.78,10.38,10.38,0,0,0,.54-3.36,4.92,4.92,0,0,0-1.49-3.52,15.29,15.29,0,0,0-3.64-2.76,31.56,31.56,0,0,0-4.5-2.06c-1.57-.57-2.92-1-4.06-1.43a92,92,0,0,1-13.31-5.73,40.94,40.94,0,0,1-9.51-6.85,24.64,24.64,0,0,1-7.61-18.42A23.79,23.79,0,0,1,163,74.72a23.43,23.43,0,0,1,6.78-8.24,32.24,32.24,0,0,1,10.62-5.29,47.94,47.94,0,0,1,13.88-1.88,46.47,46.47,0,0,1,11.06,1.3,41.92,41.92,0,0,1,10.43,4.16q2.16,1.26,4.09,2.63A41.18,41.18,0,0,1,223.21,70a16,16,0,0,1,2.32,2.41,3.47,3.47,0,0,1,.85,2,2.87,2.87,0,0,1-.41,1.52,9.16,9.16,0,0,1-1.24,1.59L215,87.84a3.07,3.07,0,0,1-2.15,1.08,2.78,2.78,0,0,1-1.62-.51c-.48-.34-1-.76-1.61-1.27l-.57-.5c-.85-.72-1.79-1.46-2.83-2.22a24.67,24.67,0,0,0-3.32-2.06,22.71,22.71,0,0,0-3.74-1.52,13.62,13.62,0,0,0-4-.61,21.36,21.36,0,0,0-3.93.35A11.48,11.48,0,0,0,188,81.69a6.23,6.23,0,0,0-2.22,2,5.29,5.29,0,0,0-.82,3,5.36,5.36,0,0,0,.88,3.08,8.92,8.92,0,0,0,2.67,2.4,24.86,24.86,0,0,0,4.4,2.1q2.64,1,6.12,2.12,6.72,2.22,12.39,4.66a41.74,41.74,0,0,1,9.8,5.77,23.92,23.92,0,0,1,6.43,8A25,25,0,0,1,230,126a27.77,27.77,0,0,1-2.86,12.64,28.88,28.88,0,0,1-7.83,9.67,36.53,36.53,0,0,1-11.69,6.18,46.4,46.4,0,0,1-14.46,2.19,41.08,41.08,0,0,1-14.32-2.6,55.32,55.32,0,0,1-13.13-7,34.23,34.23,0,0,1-4.27-3.62q-1.75-1.77-2.76-2.85l-.19-.19a.32.32,0,0,0-.13-.16l-.13-.09a.31.31,0,0,0-.12-.16.57.57,0,0,1-.13-.1,4.43,4.43,0,0,1-1.46-2.53A3.59,3.59,0,0,1,158,135l11-10.46a4.06,4.06,0,0,1,2.15-1,2.31,2.31,0,0,1,1.21.38,11.22,11.22,0,0,1,1.52,1.14Zm73.6-62.7a3.46,3.46,0,0,1,1.3-3,14.76,14.76,0,0,1,3.71-1.87l14.39-5a2.58,2.58,0,0,1,.6-.07H268c1.56,0,2.61.46,3.14,1.36a7.21,7.21,0,0,1,.79,3.59l-.06,20h10.58a4.62,4.62,0,0,1,3.3,1.2A4.78,4.78,0,0,1,287,82.26V94.5a5.29,5.29,0,0,1-1.27,3.9,4.55,4.55,0,0,1-3.3,1.23H271.84l.06,51a4.63,4.63,0,0,1-1.4,3.65,5.63,5.63,0,0,1-3.86,1.23H252.31c-3.25,0-4.88-1.62-4.88-4.88l-.06-51h-4.63c-3.26,0-4.88-1.71-4.88-5.13V82.26c0-3.21,1.62-4.81,4.88-4.81h4.63Zm130.46,88.37a5.5,5.5,0,0,1-.38,2.06,4.93,4.93,0,0,1-2.91,2.44,8.43,8.43,0,0,1-1.65.19H360.46a5.48,5.48,0,0,1-2.16-.35,3.4,3.4,0,0,1-1.33-1,5.84,5.84,0,0,1-.85-1.55c-.23-.61-.48-1.28-.73-2l-1.84-4.75q-1.71,1.71-3.74,3.64a33.07,33.07,0,0,1-4.47,3.58,26.81,26.81,0,0,1-5.29,2.76,16.63,16.63,0,0,1-6.09,1.11,41.17,41.17,0,0,1-11.06-1.46,40.65,40.65,0,0,1-18.23-10.62,41.59,41.59,0,0,1-6.43-8.4,41,41,0,0,1-4.15-10,42.08,42.08,0,0,1-1.46-11.19,41.52,41.52,0,0,1,12-29.57,41.08,41.08,0,0,1,29.29-12,21.5,21.5,0,0,1,7.23,1.17,24.53,24.53,0,0,1,6,3.07,30,30,0,0,1,4.88,4.31,48.44,48.44,0,0,1,3.9,4.88l2.47-7.67c.42-1,.77-1.91,1.05-2.56a4.59,4.59,0,0,1,.88-1.46,2.39,2.39,0,0,1,1.18-.64,9.83,9.83,0,0,1,2-.15H373a8.43,8.43,0,0,1,1.65.19,3.11,3.11,0,0,1,1.64.88,4,4,0,0,1,1.27,1.59,5,5,0,0,1,.38,2v71.44Zm-62.44-35.5a23.06,23.06,0,0,0,1.3,7.83,18.64,18.64,0,0,0,3.71,6.31,17.54,17.54,0,0,0,5.8,4.21,17.74,17.74,0,0,0,7.51,1.56,19.84,19.84,0,0,0,7.89-1.56,20.07,20.07,0,0,0,6.34-4.21,19.21,19.21,0,0,0,4.22-6.31,20.67,20.67,0,0,0,0-15.56,20.57,20.57,0,0,0-4.22-6.47,19.77,19.77,0,0,0-6.34-4.4,19.21,19.21,0,0,0-7.89-1.62,17.18,17.18,0,0,0-7.51,1.62,17.37,17.37,0,0,0-5.8,4.4,20,20,0,0,0-3.71,6.47,22.94,22.94,0,0,0-1.3,7.73Zm77.66-59.4c0-.72,0-1.37.06-2a2.73,2.73,0,0,1,.54-1.52,3,3,0,0,1,1.49-1,9.24,9.24,0,0,1,2.85-.35H413.2a4.24,4.24,0,0,1,2,.42,3.65,3.65,0,0,1,1.27,1,3.37,3.37,0,0,1,.63,1.36,6.28,6.28,0,0,1,.16,1.37v46.91l22.82-25.36A5.13,5.13,0,0,1,444,75h19.46Q467,75,467,77.7a2.55,2.55,0,0,1-.22,1.14,7.61,7.61,0,0,1-.92,1.27l-26.05,27.51,32.77,42.09h-.13a5.33,5.33,0,0,1,1.18,1.68,4.2,4.2,0,0,1,.34,1.56,2.23,2.23,0,0,1-.79,2,4.25,4.25,0,0,1-2.38.54H449.34a3,3,0,0,1-2-.82,13.49,13.49,0,0,1-2.09-2.47l-20.73-29.35-7,7.29V150.6a7,7,0,0,1-.16,1.33,4.78,4.78,0,0,1-.63,1.62,4.42,4.42,0,0,1-1.3,1.36,3.73,3.73,0,0,1-2.16.57H397.29a3.24,3.24,0,0,1-2-.6,4.77,4.77,0,0,1-1.3-1.36,6.69,6.69,0,0,1-.7-1.43,4.1,4.1,0,0,1-.22-.79V55.89Zm157,90a42.43,42.43,0,0,1-12.55,8,38.31,38.31,0,0,1-14.77,2.88,43.08,43.08,0,0,1-30-11.95,42,42,0,0,1-9.26-13.22A39.85,39.85,0,0,1,480.15,115a42.81,42.81,0,0,1,5.23-20.61A41.66,41.66,0,0,1,491.46,86a38.55,38.55,0,0,1,8-6.57,39.6,39.6,0,0,1,9.64-4.24,38.62,38.62,0,0,1,11-1.52,37.42,37.42,0,0,1,10.2,1.39,39.76,39.76,0,0,1,17.24,10,41.14,41.14,0,0,1,6.22,7.76,37.51,37.51,0,0,1,4,9,34.38,34.38,0,0,1,1.43,9.86c0,2.2,0,4-.1,5.39a6.11,6.11,0,0,1-1,3.33,4.79,4.79,0,0,1-3,1.71,28.54,28.54,0,0,1-6,.48H503.48a15.73,15.73,0,0,0,2.56,6.78,16.12,16.12,0,0,0,4.47,4.34,17.69,17.69,0,0,0,5.39,2.31,22.48,22.48,0,0,0,5.39.7,24.78,24.78,0,0,0,4.69-.47,33.63,33.63,0,0,0,4.66-1.27,26.42,26.42,0,0,0,4.12-1.84,13.7,13.7,0,0,0,3-2.19,12.59,12.59,0,0,1,1.75-1.23,2.88,2.88,0,0,1,3.23.16,13.75,13.75,0,0,1,1.93,1.64l6.72,7.61a4.25,4.25,0,0,1,.89,1.49,4.8,4.8,0,0,1,.19,1.36,3.48,3.48,0,0,1-.7,2.19,7.93,7.93,0,0,1-1.65,1.62ZM519.64,93a12.17,12.17,0,0,0-4.78,1,18,18,0,0,0-4.35,2.63,23,23,0,0,0-3.64,3.74,22.58,22.58,0,0,0-2.63,4.25h32.39a37.73,37.73,0,0,0-2.88-4.56,19.68,19.68,0,0,0-3.55-3.68,15.25,15.25,0,0,0-4.57-2.47,18.38,18.38,0,0,0-6-.89Zm52.81-13.38a4.81,4.81,0,0,1,.47-2.06,4.51,4.51,0,0,1,1.18-1.55A6.16,6.16,0,0,1,577.52,75h9.57a3.45,3.45,0,0,1,1.9.45,3.88,3.88,0,0,1,1.18,1.14,8.09,8.09,0,0,1,.82,1.58,13.17,13.17,0,0,0,.86,1.78c.08.17.25.58.5,1.23s.53,1.38.83,2.16.58,1.52.85,2.22l.54,1.36q1.9-2.08,3.65-4.4a39.57,39.57,0,0,1,3.71-4.28A18.1,18.1,0,0,1,606.3,75,12.18,12.18,0,0,1,612,73.71a33,33,0,0,1,6.11.5,27,27,0,0,1,5.11,1.49A29.67,29.67,0,0,1,628,78.21q2.38,1.52,5.17,3.55c2.92,1.56,3.46,3.88,1.65,7l-5.77,9.83A5.21,5.21,0,0,1,626,100.9a5.92,5.92,0,0,1-4-.57,20.07,20.07,0,0,0-5.55-4,15.13,15.13,0,0,0-6.43-1.3,12.33,12.33,0,0,0-4.35.7,11.72,11.72,0,0,0-3.39,2,18.52,18.52,0,0,0-2.85,3c-.89,1.19-1.77,2.5-2.66,3.93v45.9a5.13,5.13,0,0,1-1.17,3.65,5.24,5.24,0,0,1-3.9,1.23H577.39c-3.29,0-4.94-1.62-4.94-4.88V79.66Z"/></g><g class="cls-4"><g class="cls-5"><path class="cls-6" d="M-1160.86,239.41c6.62,0,7.44,2.39,13.11,0s22.42-13.45,28.1-15,9.31.5,1,5.16-25.14,14.72-22.15,14,11.47-4.39,23.5-10.06,10.92-3.14,14-9.17,4.74-9.19,4.74-9.19,19,19.49,20.79,20.25,2.45-.13,3.39-2.51,3-5.8,5.67-4.66.39,5.78,2,6.41,4.32-.12,9.32-1.75,2.43-5.28,2.43-5.28-.53-.14,5.27-.64,24,6.16,29.44,8.3,21.75,3.91,26.35,5.4,6.33-2.63,12.69.76,11.08,7.92,6.34,10.31-16.61,4.16-10.53,5.66,15.27,3.41,24,3.15,24.57-3.51,29.43-3.51,7.83,3,12.43,10.68,8.23,10.69,10,11.32-1.75-3.65-.81-7.42-.94-11.2-2-13.7,0-3.78-2.16-7.44-5.67-3,.82-6.15,10.93-7.79,18.77-6.79,10,10.95,16.74,11.68,8,3.4,19.58,4.29,6.76.13,19.72,1,8.24-1.4,10.94-8,5.67-7.93,8.77-7.67,14,1.76,14,3.15-4.59,8.53-2.3,12.06,11.64,9.31,11.64,9.31-2-8.05-2-8.93-.68-7.16.68-8.3,9,.63,13.9-8.81-3.25-8.93-3.25-8.93-3,.14-1.49-3.77,10.13-6.28,10.13-6.28.55,1.76-.54-1.4-6.74-2.5-12.83-2.88-10.24-1.25-11.34-6.41-1.48-16-1.48-23.4,5.95-4.78,7-8.92-.28-24.39-1.75-28.55,2.15-13.08,3-19,6.88-3.27,6.88-3.27c-1.08-2,1.74-7.67,9.85-10.06s23.51.12,23.51.12-1.36.13-5.14,5-1.34,13.6-7,19.75-20.11,4.16-20.11,4.16,4.45,10.18,2.56,13.44-3.1,10-3.1,10,12.7,3.51,13.37,11.56,7,9.43,8.5,16.85-6.21,13.58-4.59,14.71,2.16,1.64,6.77,1.89,10.79,1.13,10.79,1.13a7.76,7.76,0,0,0-.27,7.8c2.3,4,.54,6.54.8,10.82s2.84,7.92,3.91,7.17,6.09-11.71,7.17-16.6,1.89-7.55,4-7.55,9.46,6.67,10.27,9.06,1.35,5.66-2.7,12.19-3.64,9.56-.13,12.08,3.65,1.77,10,4.78,5.14,2.76,9.05,1.63-1.63-11.07-1.22-11.32,9.33-1.26,7.31-6.29-4.07-7.54.12-10.06,7.16-4.52,7.16-4.52c-1.76-3.15-2.29-3.4-5.26-11.83s2.55-6.15,14.19-5.28,12.13,4.9,18.35,8,2.3,4.27,4.31,9.31-5.13,5.78-5.13,5.78-4.72.88-3.64,4.77,3.24,8.55,6.63,14.6-.94,10.18-6.23,15.09-11.48,6.29-17.68,6.41-8.91,2.64-9.31.88-3.39-3.4-6.75-2.64-11.09,3.78-8.38,4.78,9.85.76,6.88,6.29-5.54,5.53-11.48,4.9-11.47-.63-15.27-.89L-759.24,281s12.59,7.68,22.57,10.82,20.53,1.26,20.53,1.26-4.06,7.54-8.92,15.59-9.46,4.54-13.49,5-6.5,3.77-14.05,4.77-23.37-2.14-20.95-1,3.52,3.14,7.84,3.78,7,1.37,10.81,4.52-2.44,3.91-7.42,4.77-6.36,1.77-8.65,4.91-10.82,15.34-13.51,19.12-5.13,10.05-6.21,17.47-7.42,16.35-4.58,18.24,13.48,2.14,17.95,4.91,9.46,16.35,12.82,21.5,6.08,9.06,9.86,5,11.22-3,18.24-.5,21.33,12.45,25.8,16.84,12.27,3.66,21.05,4.92,9.77,4.56,9.77,4.56,9.15.47,5.37,4.37-4.87.11-1.09,6.66,3.65,15.34,2.57,19.74,12.1,2.19,17.65,5.45,5.84,16.57,8.69,14.93,7.55-4.54,8.1-8.05-.13-8.17-.68-14.21-2-17.12-5-21.51,5.36-6.16,4-8-1-5.65,4.65-7.17,6.07-.12,9.17-2.52,3.65-13.57,4.18-17.59-.93-12.71-2.28-16-6.9-13.72-8.9-16-4.6-2.9,1-9.94,2.28-5.54,1.47-7.67-2-7.42-3.1-12.2,2.29-10.07.26-16.86-4.18-5.27-3.77-6.79,13.22-1.13,22.69-.12,13.23-1,15.92-1,7.58,2.65,12.84,6,7.29,2.51,10,6.66,4.18,6.41,9.7,6.16,11.51,2.39,11.51,2.39-3.93,2.26-3.24,9.68-.82,12.82-.69,15.84,1.64,3.15,4.18,3.53,9.47,6.53,16.61,9,9,1.76,11.34-4,2.85-5.28,5.69-5.65,3.77.63,5-.63-2.16-3.77-1.35-7.79,4.73-9.31,8-12.33,5.53,3,8.37,8.56,12.69,23.51,15.53,29.41,6.48,6.29,3.1,11.84-5,7.9.27,10.42,10,6.92,9.61,11.07-1.51,4.27.26,5.41,8.1-2.27,12.69-.25,10.12,3.91,13.37,7.16,3,4.41-1.62,6S-457,455-459.3,456.34s-5.93,4-5.8,6.17-.95,5.66,2.71,2.89a48.63,48.63,0,0,1,13.9-6.79c4.32-1.25,1.08-.13,5-.63s7.69,1.89,13.11,3.39,3.9,4.91,2.55,8.05-2.55,6.15-.4,9.69-.94,6.66-5.68,10.94-8.23,4.9-15.92,5.91-11.36,5.65-16.75,10.68-8.1,3.77-15.94,4.15-4.73-3.89-7.15-3-5.53,3.52-10.53,4-21.89.75-28.38,2.64-4.44,6.28-6.07,9.93-4.19,2.13-9,3.77S-554.37,537-560,546.77a61.06,61.06,0,0,1-13.37,15.84c1.61-.38,9.59-5.28,13.5-10.07s20.26-16.09,25.25-19.6,15.8-8.68,18.36-7.93,8.93,5.66,8.93,8.18-1.9,4.52-6.48,8.79-10.68,0-10.27,1.76,3.64,5.78,7.16,6.66,3.36,5.17,3.36,7.31-2,4.9,6.08,11.69,13.78,7.29,19.73,6.91,2.83,2,5.26,1.77,3-4.9,3.78-8.68,2.17-7.29,4.32-8.93,3.77-4.65,4.46,1.14-2.43,13.7-5.55,15.46-2.41,4-2.41,5.78-3.52,1.89-11.9,6.55-11.07,5.78-12.55,5.15-4.6.76-8.63,4.41-8.38,8.56-11.34,8.41-5.55-1.37-1.5-5.53,5.41-9.93,9.45-12,5.94-1.75,9.32-1.75,1.76-2,4.46-4-2-1.4-6.63-2.14-1.07-4.79-1.07-4.79l-4.74,2.52s-7.15,3.77-9,4-1.48,1.5-2,2.26-7.29,1.26-7.29,1.26-3.52,7.16-8.79,8.17-1.6.63-5.4,2.26-3.09-1.88-3.91-.88-1.48,1.9-5.66,5-6.64,4.16-9.6,15.6.54,15.59.41,17.36-5.28-1.14-6.75.24-4.88,5.66-9.33,6.92-13.23,3.53-15.26,5.67-2.16,5.15-3.11,9.54S-605,671.9-605,671.9a7.12,7.12,0,0,0-2.43-7.18c-3.65-3-3.09-5.78-3.09-5.78a18.8,18.8,0,0,0,.53,8.42c1.37,4.27,4,8.56,2.84,13.2s-3.53,10.45-6.34,12.08.67-3.15.67-6.91-1.89-4-3.11-5.9-1.23-6.68.93-13.1-2-2.51-4.45,1.77-4.17,12.19-.4,17.36-2.43,4.64.14,12.06-3.1,11.07-2,12.21,4.06-.5,5.41,3.13-2.69,2-4,3-.69,2.39.13,4.41,2.44.73,1.76,1.37a14.58,14.58,0,0,1-6.08,4.28c-3.5,1.13-3.79-.64-5.95,1.89s-3.76,4.77-6.07,7.66-3.9,1.89-6.34,3.9-3.37,3.65-6.36,6.16-9.71,6.42-13.36,11.32-2.71,6.16-4.46,14.09,4.46,21.76,8.38,34.84,5.53,9.43,5,13.57S-656,829-658.9,831.86s-4.43-2-8.35-4.92-.82-4.89-4.6-10.92-3.51-8.18-3.92-12.59-1.08-10.68-3.09-15.46-6.37-10.83-12.84-8.43-4.86,1.26-8.37.24-12.82-4.76-17.56-2.26-19.7-.76-22.82,0-5.42,1-5.42,3.16-1.33,2.5,4.21,4,4.72,3.14,4.33,5.53-4.48-1.26-6.64-2.14-4.18,1.76-7.95,1.76-4.47-3.65-7.85-4.14-4.73,0-8-1.26-7.55-3.4-11.34-3.15-18.37,9.94-25.25,15.09-12.16,10.19-13.77,14.33-1.77,4.54,3.78,10.7,3,5.17,1.89,8.68-4.32,7.79-8.23,16.85-1.63,13.45,3.09,22.13,8.93,15,12.7,18.61,6.47,7.55,9.73,8.93,3.9,1.89,5.4,3.39,1.08,2.14,6.22.76,8.89-3.39,12.55-3.39,7,.12,9.05,2,2.29.76,2.29-.27,1.62-4.77,2.16-5.78,5.4-7.92,6.21-11.69.81-11.33,5.55-11.83,14.84-2.88,24-2.26,5.13,5.16,2.71,9.93-3.4,5.29-3.4,8.93,1.09,3.66-1.86,5.8-1.1-1.26-2.31.87-5.53,5.16-5,4.66,1.89,3.63,1.89,5.65-.4,3-.4,7.93-9.6,9.93-9.6,9.93a18.85,18.85,0,0,0,8.65,2c5.14,0,11.34,0,16.74,2.51s15.66-2,23.24,1.76,4.87,6,5.39,9.56,1.35,15.59.83,18.36-4.07,10.55-6,16.1,5.4,9.56,12.17,14.08a56.37,56.37,0,0,0,16.21,7.54c3.48,1,10-5.28,21.87-4.53a18.73,18.73,0,0,1,15.92,10.82s1.35-6.29,6.76-14.84,5.66-11.07,13-13.83,9.74-3.27,21.62-7,9.72-1,15.91-.5,20.55,1.76,34.87,6,36.2,5.53,44.56,9.05,12.16,13.34,20.8,21.38,19.44,15.34,24,19.12,30.26,7.3,35.93,9.56,13.5,11.56,14,17.09,6.21,8.3,14,11.57,10.27,7.05,15.42,17.11,3.5,12.82,10.52,15.34,55.65,15.59,67.78,20.38,27.56,17.6,31.61,19.11,11.35-1.27,14.59.5-1.9,11.32,2.16,18.11,4.33,7.3,1.89,12.32-12.16,17.11-15.92,23.15-11.9,9.8-16.48,12.33-8.66,0-4.6,5,.28,9.29-3.24,13.83.27,4-.82,18.62,0,30.42-1.62,36.71-11.06-5.53-21.88,8.05-13.76,23.89-20.24,25.4-21.61,9.06-26.74,13.83-6.21,6.54-9.46,13.58-6.48,21.38-10,30.19-9.18,13.83-22.14,25.65-18.65,23.9-27,33.21-6.21,7.27-8,9c-4.48,4.49-22.91-7.24-18.15-.74,3.52,4.77-2,0,1,4.51s5.14,6.29-1.34,14.34-14,6.46-19.1,7.72-12.78-5.28-13.32-2-3.5,11.4-7.56,13.41-14.84,5-14.57,6.29c5.1,23.83,15.59,26.31,4.49,25.22-30.46-3-8.73-10.2-29.9,34.13-3.23,6.8-6.47,3.27-5.94,11.32s0,14.09,4.34,19.12,1.34,4.77-6,11.57-7.84,5.79-14.58,16.1-13.24,9.8-10.82,17.61,3,19.36,7,30.93,12.42,9.54,25.66,17.61,14.85,3.76,21.34,5.78-4.6,2.51-16.22,4.52-19.17,4.28-27.28,2.53-27.26-12.83-33.76-17.62-17-13.32-20.79-21.62-6.48-16.6-11.34-27.92-1.36-18.37.81-43.27,3.79-44.26,7.29-57.58,14.32-72.69,17.28-88,16.75-77.71,17.83-87.52a235.67,235.67,0,0,1,4-27.17c2.16-9.8.82-29.68.82-30.68s-.82-1.75-3.8-11.06-7.82-13.09-14.57-17.1-13.78-9.06-19.17-12.84a81.65,81.65,0,0,1-17.29-15.84c-5.42-6.79-10.55-20.62-13.24-26.42s-12.69-25.38-21.87-39-9.73-13.84-14.32-28.18,4-14.58,5.67-22.64,7-16.1,13-27.4,13.77-14.59,18.37-24.65,1.08-10.07-.55-19.88.55-8.28-2.44-13.58-4.58-11.8-7.28-13.57-6.75-3-9.18-.25-6.76,10.8-9.45,11.31-3.79-2.52-5.41-4.28-9.45-1.76-11.07-3.52-5.67-2-8.36-3.26-13.25-6.81-16.22-9.31a21.52,21.52,0,0,1-6.75-15.09c0-6.53-5.66-9.06-18.35-18.11s-18.11-10.32-33.51-14.09-21.6-14.59-26.74-17.6-4.59-6.29-15.93-5-25.12-5-33.77-8.54-24-6-30.53-10.31-17.8-5.8-22.67-16.1-4.06-6.29-2.16-15.34-11.08-16.6-18.92-25.15-13.77-9.81-17.82-20.38-10-10.06-17.82-17.61-8.11-17.11-11.35-25.65-24.83-20.88-24.83-20.88,5.65,14.34,8.09,20.13,8.09,19.61,14.59,29.93,12.16,12.82,18.1,23.13.27,16.6-1.9,12.59-10.81-5.8-10.81-10.57-2.15-7.8-4-11.57-10.26-8.06-18.37-14.6-13.76-9.55-8.64-9.55,12.43,4.78,11.08,1.76S-982.73,784.7-987,778.15s-5.68-13.83-10-24.9-20.25-21.63-28.1-22.38-10-4.52-12.68-12.57-3.24-16.6-6.76-22.89-18.64-27.41-18.9-35.46-4.59-31.44.81-44.53,4.05-42.24,3.24-48S-1070,550.55-1070,546.26s5.68-1.76,10-.51,13.48,5,13.48,5-7-13.07-11.32-17.59-17-10.32-22.69-11.58-13-3.27-15.94-8-6.21-11.07-8.38-15.1-11.35-8.79-13.49-13.08-1.63-12.57-4.59-16.84-7.31-6.8-12.18-5-6.45-2.52-10.24-8.81-12.16-9.3-14.6-10.05-10.79-11.82-11.34-14.59-13.78-17.36-18.09-20.37-46.19-16.6-47.26-16.6-13.25,1.76-16.48.76-14.32-10.57-20-12.58-9.75,2.26-12.43,8.55-16,17.1-23.24,21.87-13.24,5.3-12.7,2.78.27-6.54,2.71-12.58,3.78-7.79,11.33-11.57,7.29-4,4.34-3.78-5.15-.49.8-4,8.38-4,8.1-7-13,4-21.07,10.57-13,11.06-20,22.63.81,7.29-5.14,14.84-26.19,22.89-32.13,28.68S-1403,470.8-1413,473.83s-14,4.27-18.91,8.3-17,5.27-13,2.52,11.61-9.08,16.75-12.09,18.9-8.55,22.95-10.05,15.39-8.56,21.08-14.84,9.45-13.58,13.23-19.61,4.59-8.81-3.23-6.3-16,1.51-20,0-14.59,4.78-18.37,2,.28-8.56-2.17-11.33-10.79-1-16.19-2-13-5.28-13-12.83-5.4-14.08-2.45-19.86,7.32-7.31,12.16-10.56,18.36-7.55,21.07-7.55,6.49-2.77,8.91-5.28-5.67-11.58-5.67-11.58,1.35-1,4.59-3,.82-6.28-4.86-5.53-17.83,6.55-25.39,8.55-17.81.76-17.55-2.51,1.89-5.28-.81-7.8-4.86-5.28-2.16-6.53,19.45-10.57,19.45-10.57,5.94,6.53,12.42,7.29,20.25-11.31,20.25-11.31c-8.64-5.28-6.75-6.79-6.75-6.79s-14-.25-17.29-2.27-4.32-6-5.13-9.55-14.58-6.29-10.79-12.08,10.79-7.79,15.39-13.58,8.64-16.61,21.88-22.64,29.18-11.56,36.19-16.6,10.26-.24,13,.5,19.45-.74,25.92-.74,7.56,7.28,9.73,9,59.15,3.53,59.15,3.53,48.33.76,58.06,3.52,27.28,10.06,27.28,10.06C-1166.52,252.37-1167.46,239.41-1160.86,239.41ZM-511.42-52.34s-4.87,20.12-24.29,25.66S-590.83-5.56-592.45-4.55s2.16,12.06,7,17.59,9.45,9.31,13.77,14.85,11.89,5,17.84,10.81,10.25,3.77,26.47,4,11.88,1.51,30,2.52,37,2.51,43.22,8S-439,80.46-433.36,93.54s15.67,34.7,15.67,36.72-6.22,17.86-6.22,20.37,3.24,6.79,6.22,10.31,1.34,6.29.8,9.55,3.24,11.58,3.78,12.59,8.64-8.05,13.78-9.56,17.83,9.06,17.83,16.35c0,16.53,4.5,10.9-22.42,30.43-3.55,2.58-7,22.38-4.32,31.93s9.18,20.88,14.31,34.47,20.26,32.69,25.11,41.5,6.22,20.87,17,23.65,21.07,6.53,28.9,8.29,13,4.27,16.74-3,11.35-34.95,17.58-55.08-.56-26.16,14-30.68,37.8-13.59,44-16.35,5.14-22.63,18.91-29.19,15.66-6,29.16-10.3,32.42-12.83,45.93-22.39,17.28-4.52,22.14-13.33-4.86-21.64-5.93-34.71,4.32-13.83,7-25.66,4.06-19.61,14.6-27.66S-82.53,79.2-84.4,71.65s-7.3-18.86-7.3-27.16,1.89-3.52-2.43-15.08-4.32-13.09-.28-23.9,14.86-8,14-12.84-17.28-12.06-17.55-25.4,3-17.35,5.67-20.62S-62-78.5-60.1-80.52s-.53-7.54,13-14.08S-29-105.41-23.91-107.43s13.24-1.75-2.43-6.29-19.17-6.53-29.44-5.27-13.76,7-32.14,8.81-39.17,10.31-39.17,10.31,6.22-5.54.82-10.83,14-22.64,17.3-24.65-25.4-9.05-40.26-11.81-44-11.57-60.76-10.33-41.32,1-49.71,3.78-7.28,13.58-16.74,14.09-27-5.53-40.51-3.52-35.12,11.32-37.55,11.82,8.39,7,15.4,8.55,16.2,16.1,16.2,16.1S-341.79-113-361-118.24s-41.61,0-49.43,2.27-18.1,6.53-33.76,7.28-33.48,13.59-42.4,19.62-36.72,22.13-43.75,25.91-4.33,5.53,3.24,7.55S-511.42-52.34-511.42-52.34ZM-911.68,155.58c2.14,9.21,2.14,22.46-2.9,16.76s-9.18-17.27-17.28-12.58-16.92,3.37-15.48,2.36-.18-6-4.34-7.55-6.65.84-11,3.36-18,5.86-12.44,1.49,3.78-6.69,1.8-11.73-16.21,3.52-23.77,8.9-12.06,13.57-16.57,19.1-1.26,9.07,5.58,11.07,17.84,3.36,8.65,6.72-16.21,5.69-11.52,8.55,12.79,3.35,20.88,2.34,14.95-3.17,27.92.34,20.7,3.35,20.7,3.35-4.86,3-13.51,4.53-24.49,0-32.6,1.5-20.87,3.68-17.63,6.71,5.76,7.71,16.92,11.23,13.15.18,19.8,1.84,3.08,9.23,4.87,10.4,14.42-1,27-3.34,7.92-4.37,17.84-6.89,10.24-10,16-11.73,1.62,3.86,8.45,5.53,3.06,2.19,10.45,3.36,5.94,4,13.14,3.51,15.66-5.35,14.58-6.2-2.16-3-1.42-6.37-7.23.67-10.09,2.35-2.7-4.53,3.4-7.55,11.56,0,15.14,0,.37-10.4-6.12-12.06-9.36-5.71-19.1-11.07-4.67-7.72-7.55-14.75-9-27.85-14.41-31.53-11.16-2.69-16.56-6.37C-912.77,141.16-913.85,146.35-911.68,155.58Zm-149.46-14.25c2.35,6.69,2.7,2.5-2,9.88s-2,10.07-5.23,15.6-11.87,12.92-9.18,16.6,11.34,5.86,15,8.71,7.2,8.72,13.67,6.55,8.64-3.7,13.16-6,8.28-5,8.09-10.9-.35-8.7,1.47-8.2,4.66,3.18,6.1-.68,4-8.88,7-11.9,11.87-6,16-9.55S-985.87,144-983.9,141s-3.61-5.37-7-6.72-7.37-6.7-15.3-6.7-12.24,6-11.89,3.35-5.4-4-8.63-5.2-6.31-3-16.58-1.84-14.54,1.85-22.69,4.19C-1073,130.08-1063.48,134.61-1061.14,141.33Zm234.44,80.31c-1.07,1.5-5.76,3-8.64,6.37s6.12,1.52,9,2.51,5.05,3.85,7.39,4.71,15,1.33,20.17-1.19,5.75-3.35,5.21-4.51-10.79-11.24-18.36-15.27-7.75-4.18-9.36-3.18S-825.62,220.12-826.7,221.64Zm-34-78.47c-4.88,2.43-8.43,5.35-.16,9.56s11,7.71,16.56,11.23,7.92,13.58,19.63,9.06,16.38-9.89,18-14.59-1.64-5.7-4.51-10.07-3.6-6.2-9.55-5.54-7.93.68-7.93.68a33.45,33.45,0,0,1,10.45-8.22c6.48-3.19,1.07-5.36,4.13-8.38s-7.73-4.52-12.4-3.36-4.87-.33-12.61-.66-20,6.7-19.45,9.21,6.3,1.52,11.7,4.54,7,2.68,1.62,11.23-8.28-2-10.08-3.36S-855.69,140.65-860.75,143.17Zm-34.55-15.43c-8.08.77-10.82,6.37-7.74,7.21s5-.84,9.89,4.36,9.19,8.05,11.16-.5S-882.88,126.56-895.3,127.74Zm-130-64.9c-9,7.22-10.79,12.92-17.81,17.46s-5.41,8.38-3.06,10.87,9.36-.15,12.6-1.82,5.93-5.87,7.92-3.35,10.27-8.55,13.51-12.26,8.28-7.54,9.19-7.36-3.09,4.36-1.63,7.87,7.91,3.7,13.68-2.33.55-11.58,5-16.27,8.27-4-.54-8.23-14.41.51-16.22,2.69S-1007.66,48.76-1025.32,62.84Zm54.92,11.41c-5.11.24-7.37,1-15.84,4.69s-12.06,13.26-14,18.46.89,5.2,8.64,8.21,18.55-.83,21-8,5.61,1.68,4.16,5.37,5.4.33,8.64-1.36,13-2.33,13.68-2.33-7.92,6.54-16.4,9.39a118.88,118.88,0,0,1-17.64,4.69c-2.34.34,2.18,3.86,12.06,5.88s15.85-6,30.09-11.41,13.5-6.38,18.18-5,9.72-2.35,15.48-3.7,8.1.85,10.64-7.71,7-16.76-1.09-17.27-8.65-.5-9.73,8.72-1.8,3.53-1.8,3.53-5.4-8-8.64-12.25-5.59-10.73-9.18-14.25-5.23,1.51-10.81,7.71-1.08,8.55,4.5,11.24,9.55,9.56,6.85,11.4-5.77-.34-16,.84-9.9-3.18-12.79-4.52,4.86-4.2-6.13-8.72S-966.78,74.08-970.4,74.25ZM-1003.71,83c1.14-2-13.66,8.72-15.92,12.15s2.26,2.85,6.76,2.68S-1007.47,89.43-1003.71,83Zm28.46-22.23c-3.7,1.67-3.7,2.94,2.33,3.6s9.56-2,8.29-4.52S-972.28,59.41-975.25,60.75Zm30.7-31.84c-4,.65-15.66,4.77-16.3,6.77s.1,6.37,1.9,9.82,2.44,3.94,12.5,1.25,17-7.88,13.68-8.81-5.38-2.43-8.35-2.83,2.6-2,9.26-4.11S-922.94,25.29-944.55,28.91Zm-34.11,5.27c-2.85,1.31-3.89,1.33,2.06,3.61s12.34,2.09,11.52.25S-970.66,30.48-978.66,34.18Zm23.21-16.52c-5.63,2.22-6.91,6.29-8.18,7.88s6.39-1.17,9.89-2,4.32,1.25,7.75-1.77,10.18.1,16.3-1.26,7.11-5.35,5.76-8.87S-939.33,11.29-955.45,17.66Zm61,15.18c-1.66.79-1.08,3.43.37,6.54s1.8,2.34,4.86,3.52a23.62,23.62,0,0,1,6.84,4.35c.73.76,1.16,1,2.43-2s-.63-2.52-4.05-6.55S-890.08,30.74-894.41,32.84Zm20.8,26.32c-4.66-1.27-7.29,1.43-9,2.26s.9,2.76,2.08,6.36.18,4.8,7,5.3,8.92-.76,9.45-5.12S-869.28,60.34-873.61,59.16ZM-847,67.05c-4.24-3.11-6.31-5.63-10.63-3.86s-.72,3.93-.72,5.12,5.22-.17,5.31,2.68,1.7,4-4.59,4.36-8,.08-10.45,1.92,4.69-.25,6.85,2.6,5.85,3.18,11.87,2.27,14.23-2.27,14.23-2.27-4.41,4.18-6.21,7.12-2.52,7.13.63,9.22,3.51-2.16,12.25-2.34,11.34-4.69,11.34-4.69-2-1.94-1.71-6.29-.09-5.37-.09-5.37a36.58,36.58,0,0,1,4.32,3.53s-.63-2.6-1.89-7.31-.26-5-1.62-11.4-1.09-7.71-7.65-7.55-11.08,2.45-16.49,2.45-7.75,1-3.77,3,4.51,4.44,6.39,6.7,1.53,7.72,1.63,7.47S-847,67.05-847,67.05Zm-32.87,23.89a2.49,2.49,0,0,0-.29.11c-2.74,1.36-3.68,4.4-3.86,6.51s3.62.92,9.65-1.17S-871.35,88.18-879.91,90.94Zm85-11.4a44.06,44.06,0,0,0-11.88,9.64c-2.88,3.27-.36,3.68,7.11,7.46s15.48,4.52,19,.58S-782.32,72.65-794.92,79.54Zm34.74-29.26c-9.58.95-6.61,2.38-17.69-1.26s-25-4-28.76-4-2,1.77,1.9,8.2,5,8.67,13.1,6.65S-776.92,56.44-771,65s9.05,11.21,4.18,14.34-2.58,8.17.27,14.73,9.31,6.27,18.37,6.27,66.31-.87,75.22-2.51,16.88-9.18,21.61-12.57,7.29-8.68.81-12.59-15.67-7.54-23-7.54S-687,68.89-698,70s-8.63,6.43-18.63,6.68-5.14,4.65-17.43-.38S-755.45,65-749.62,64.1s10.52-1.63,7.28-4.39S-751.26,49.39-760.18,50.28ZM-874.69,3.5c5.94,2,7.44,3.51.81,5.27s-11.75,6.41-5.13,5.53,12.29.63,20.79,2,7.83.5,11.62,5.29,7.83,4.77,13.65,3.39,6.6-1.77,2.84-5.92-7.71-11.81-12.84-14.83-9.45-7.31-14.59-6.78-6.34.61-10.81-5.42-7.95-3.16-14.44-1.52-8.56,6.27-11.07,8.31C-899,3-880.62,1.48-874.69,3.5Zm77.8-61.63c-7,8.8-12.7,16.22-4.75,17.1s11.48-.63,12,1.9-1.35,4.26-13.24,4.26-8.23,2.65-1.62,10.44,7.31,5.15,17.42,4.91,13.5-3.91,21.89-1.75,10.93,4.27,3.37,6.53-25.4,6.53-21.34,10.31,16.61,12.82,22.29,13.71,6.88-3.77,19.18-2.4,9.32,2.65,10.66-.75,8.11-12.06,9.45-15.22,4.74-5.15,11.48-6.66,8.92-3.64,2.57-5.91-13.5-3.27-12.83-5,4.6-6.93,1.88-9.58-7-2.51-10.53-3.89-7.42-7.79-11.89-10.56-8.36-3-13.77-7.17-14-14.27-24.84-13.7C-786.76-71.21-789.88-66.94-796.89-58.13Zm-13.8,73.57c-2.69,1.38-9.44,1.63-4.44,5.77s3.65,4.29,10,1.9S-789.61,14.8-788.79,13-795.14,7.89-800,6.38-808.24,1-818.38-1.8C-833.1-5.81-808,14-810.69,15.44Zm330.41-130.82c-11.16-3-51.12-10.75-64.09-7.73s-12.25-6.7-30.25-4.35-45.73,1-54.37,2.34,4.31,5,9,8.05-22.33-3.35-42.87,2.35-33.85,8.72-11.86,17.1,24.84,10.73,24.84,10.73-28.09-5-40-9.72-5.39-4.36-27.74,2-43.92,9.73-42.84,16.43,18,15.77,29.17,18.11,34.22-3.35,36-4-9,9.06-9,9.06,11.52-2.35,24.48-5.71,23-7,35.3-11.4,14.41-5.7,14.41-5.7-21.25,16.45-36,22.14-33.86,9.4-42.85,9.73-7.58,6,1.44,10.74S-691.66-20.49-687-17.14a14.17,14.17,0,0,1,5.4,8.73s-14-11.07-29.53,0S-724.44,8.35-720.47,9.7s17.64,2.68,20.16,7.37,20.53-4.36,20.53-4.36-9,11.4-17.64,11.4-8.28-7.37-20.89-6-11.89,4.37-6.47,8.71,9.73,5.72.36,10.07-13.69,5.7-14.05,11.07,12.24,5.37,20.16,5.37,15.48-.69,29.9-1,12.6-5,18-5,10.8,1.68,8.64,7,2.15,2,18-3.68,8.62-14.44,7.56-17.44-6.85-4-10.45-5.7S-635.83,11-638,6s17.66-1,26.65-12.76,5.77-20.46-.71-22.46,11.89-.67,17.64-4S-576-40.6-571-47s6.84-8.72-5.39-7.37,17.62-5.37,32-14.77,31-20.45,34.56-23.13,6.87-1.36-10.08-.33-37.09-1.35-25.92-2.69,44.3-5.36,52.95-11.73S-480.28-115.38-480.28-115.38ZM-681.93,117.34c-18-1.68-44.29-6-49.7,9.38s-13.68,49.66-14.4,56,21.61,15.76,37.09,16.43,40.7,1.67,35.66-2-.73-5.7,13.67-5,15.86-3,15.86-6,2.51,3.68,12.59,9,18.74,20.47,27.74,29.19,29.16,20.44,25.21,27.16,4.31,30.19-26.67,35.55-32.76,1.67-32.39,8.72,1.78,10.06,14,10.06,29.18-10.06,34.94-2.69,13.68,10.06,18.73,11.75-6.12,4.67-9,5.7,6.13,2,23.77,10.38,38.89,9.4,28.44,3.36-15.47-17.09-20.16-20.8-.36-.66,7.93,1.36,15.84,8.71,19.44,11.73,5.4-1,7.92-12.76-1.07-11.73-15.13-21.11-18.36-16.76-19.81-23.48,7.21-8.05,10.82-12.76,13.69,8.4,20.53,16.1,12.59,21.14,18,11.42,10.43-31.53,10.43-36.56-5.39.33-28.43-11.07-34.94-15.76-37.09-15.76,6.11-4.35,16.21-9.39,14.39-4.35-7.22-24.81-27.73-24.82-41.77-26.16-18-16.1-28.09-21.13-33.49,6-40.34,7.72-4.68,4.35-13.33-8.05S-681.93,117.34-681.93,117.34Zm16.2,0c-8.95,1.07,5.4,17.43,16.92,18.12s21.25-5,23.77-5.71S-651.69,115.66-665.73,117.34Zm-40.42,166.33c-1.51,3.66-5.14,13.85-5.68,20.64s-1.62,7.79-3,12.06,4.32-.75,8.11,5.53,2.13,8.05,8.9.76,14.32-9.8,23.76-6.79,16.75,4.28,13.51-1.49-7.56-5.3-14-13.09-11.34-9.81-19.44-12.83S-702.92,275.88-706.15,283.67ZM-638.2,871.3c-2.79-5.81-7-15.24-24.49-18.5s-23.43,3.26-29.9,5.44,6,3.25,14.38,0,14.68-.7,15.82.8-2.82,2.41-4.23.82-1.7,3.9,7.72,7.3,11.7,5,12.65,9.06.87,6.2,3,9.57,3,4.8-1,6.27-2.57,1.28.34,3.09a38.69,38.69,0,0,0,17,5.48c8.23.7,11,2.23,5.23-5.29S-637.32,873.13-638.2,871.3ZM-612,908.14c4.56,4.67,3.24,9.76,2.92,12.44s-5.23.6-14.28-1.78-7.66-1.23.2,3,12.94,3.21,12.6,8.86,7.22.53,10.55-2.75,3.11-.37,17.08,1.73,16.84,4.63,14.61-1.49,6.41-5.63-6-11.48S-617.22,902.82-612,908.14Zm-39.76,3.49c-5.26-5.82-11.83-6.66-11.89-1.71s1.78,4.65,6.63,6S-648.44,915.33-651.8,911.63Zm101.43,25.23c-5.71-2-6.88,2.34-3.08,5.92s9.64,2.34,15.38,2.07S-540.39,940.29-550.37,936.86ZM-616.08,235c-7.57,3.2-12,5.41-5.4,14.08s10.54,14.09,13.09,7.81S-603.25,229.6-616.08,235Zm-60.62,93.1c-11.41,1.84-15.14,2.18-13.34,8.57s4.87,5.35,12.6,1.49S-664.28,326.11-676.7,328.11Zm23.76,9.73c-1.95.59-2.52,5,0,9.05s7.37-1.33,9.54-6.2S-645.74,335.65-652.94,337.84ZM-777.55,28.31c-10.79.36-27,4.18-18,4.35s16.4,2,31,1.19,16-1.85,16.38-8.9S-757.73,27.64-777.55,28.31Zm-67.51-59.19c-11,3.42-8.29,5.7,4.67,11.4s13.33,3,11.89-7.72S-838.58-32.89-845.06-30.88ZM-75.38,249.78c-13.64,3.82-18.21,1.54-20.8,8.46s-7.94,3.2-11,4.06-7.45,20.16-9.61,17.29-2.94-4.44-6.09-11.07,1-5.46-5-12.45-17.86-6.2-18.7-3.34,8.19,5.27,5.13,8.5-10.42,7.22-13.21,9.56,5.35,1.32,10.45.12,8.6,3.83,10.69,7.39-2.34,7.05-4.55,8.78,7.42,1.32,11.27,2,5.86,3.95,3.24,8.31,11.45.62,19.25.17,9.83,5.34,21.61,1.65,17.39-3.43,28.13-11.38,9.9-6.09,17-11.22,5.42-6.69,5.71-12.37,4.71,1.59,3-7-10.46-6.25-16.6-6.91-5.92-5.49-9-7S-61.55,245.92-75.38,249.78ZM836.24,988.57a26.89,26.89,0,0,0-1.45,8.88c0,4.54-.53,9.4-.18,13.92s.63,7.71,3.15,8.72,4.24,2,8.38.09,8-5.37,6-10.57a143.59,143.59,0,0,0-8.2-16.17C841.64,989.59,837.32,984.72,836.24,988.57Zm-3.3-6.22c.44,1.92,1,1.52,2,2.85s1.89.16.63-1.59-1.11-2-1.11-2-1.6-.54-1.6,1M1221.73,1250c-.06.2-.29.3-.44.47-7.4,7.48-14.11,5.39-26.82,9.33-13,4-35.38,17.1-37,22.9s0,6.53-1.62,5.77-4.33-4.28-4.33-4.28-3.5,7-2.69,13.33,3.77,10.06,3.51,18.11-3.24,12.83-3,18.36,9.44,16.1,11.89,22.65,4,4.78,5.39,16.6,7.56,18.35,1.34,24.64-10.79,5-3.23,11.57,13.79,10.82,25.92,6.54,8.93-8,18.38-10.07,11.34-4,19.44-4.52,13.77.25,16.76-5.52.8-5.54,8.9-9.57,7.29-5,12.7-6,8.91,2.78,16.2-3,1.89-6.3,18.09-6.3,23,2.28,28.91,4.28,15.67,7.29,18.09,11.07,5.68,8.31,6.74,8.31,2.45.23,6.23-3.53,14.58-11.31,14.58-11.31-.55,8-3,11.06-2.45,7.29-2.45,8.81,6.23-4.8,7-5,1.62,11.06,2.43,12.06,3.25.5,5.67,3.78,5.68,5.79,8.11,12.07,12.69,12.58,19.18,13.57a53.57,53.57,0,0,0,17-.25c4.86-.74,5.13-6.54,10.26-4.26s-.26,7,11.89,6,15.4-5,20.25-8.31,5.41,4.54,11.62-4,7.29-6.54,8.37-16.86.8-12.33,6.74-22.13,7.32-5,11.36-19.36,9.18-27.93,8.65-39.74.25-4-2.45-17.37-.8-11.8-9.45-17.34-10.79-4-13-11.82.54-10.07-3.52-10.07-7.56,1.75-10-3.52-2.14-7.29-6.74-12.32-8.9-4-17.29-7.79-4.07-4.79-4.07-11.33.47-13.49-6.2-16.52-2.69,1.68-2.69-9.05,0-9.22-5.41-11.06-7.2-1.67-10.62-8.23-7.92-17.26-9.54-21.61-3.6.5-5.77,3.68-5.22,10.23-5.22,16.77,2.88,10.23,2.88,18.95-6.11,17.43-9.9,22.46-6.84.5-10.09-.84-4-6.21-10.8-9.56-19.43-6.36-25.2-11.56-1.81-5.37,0-10.74,4.32-9.72,8.64-13.25,3.06-4.87-2.34-7.88-13-3.18-22.16-3.18-14.58-.67-14,4.53,5.93,7.2-1.78,5.7-14.42-2.18-17.84,1.5-4.15,5.89-6.12,13.76.54,8.37-2.7,8.37-16-6.2-20.35-8-6.65-1.68-11.7,3-22.51,19.95-29,23.63S1228.3,1229.37,1221.73,1250Zm-240.28-226.7c-3.82-.52-5.94-1.52-1.27,4.51a71.33,71.33,0,0,0,10.45,11.41c4.5,4.19,6.13-3,9.55,5s2.16,8.21,5.58,11.23,6.3,3.87,7.2,6.89,2,7.7,5.94,11.06,4,2.85,6.3,9.38,6,11.23,7.75,16.77,12.07,10.73,17.28,17.44,14.06,16.43,15.49,13.75,5.22,0,7.92-1,3.6-4.86,5.41-14.26-1.63-13.75-4.16-15.93-7.2-2.67-8.44-4.69-3.42-8.88-6.49-11.07-3.8.17-3.8-5.2,3.61-4.86-.89-7.87-5-5.2-6.49-6.71-11.15-3.86-13.68-6.54-13.13-7.55-18.18-12.59-10.63-9.05-12.24-12.73S998,1025.47,981.45,1023.31Zm104.79,108.15c-4.31,0-6.47-2.52-9.36,2.68s-2.51,5.2,2,5.2,3.59,2.35,3.4,3-2.14-.51,7,3.18,15.68,2.18,18.19.83,3.42,3.36,16,5.37,19.26-1.17,27.36.84,6.14-1,.37-5.35-5.22-2-11-6.21-13.86-4.36-17.64-5,3.23,4-8.27,2.51-7.39,1-13.34-2.84-6-4.53-9.91-5.2S1086.24,1131.46,1086.24,1131.46Zm91.48,18.44c-3.25,1-9.91,2.86-6.84,4.19s.7,2.18,10.26,1.34,17.83-2,19.08-4-1.62-.67-5.59-1.86-3.6.85-9,1.52S1177.72,1149.9,1177.72,1149.9Zm33.49-.68c-6.39.78-5.59,2.19-.54,3.71s9.72,2.16,13.5,1.16,4.32-2,11.35-3.18,9.35-1,14.92-1.69l5.61-.67s-.55-1.16-4.34-1-6.46.33-10.26.33-10.25,3.35-13,3.18-7.91-1.84-9.18-1S1218.06,1148.39,1211.21,1149.22Zm36,8.22a1.52,1.52,0,0,0-.23.16c-4.46,3.05-4.64,3.9-4.24,6.32s-.49,3.51-.49,3.51a19,19,0,0,0,11.55-5.34c5-5,5.21-5,10.32-6.79s10.95-7.41,10.95-7.41a32.17,32.17,0,0,1-8.5.5c-4.47-.38-8.85,2.33-10.27,3.51S1257.71,1153.42,1247.22,1157.44Zm-37.64,2.65c-4.68-3.37-9.23-2.89-9.58-.82s-4.06,1.94,2.56,4.4,12.9,5.66,12.43,2.32S1211.62,1161.52,1209.58,1160.09Zm-43-139.81c-2.71,3.86,2.51,2.85-1.45,6.21s-7,1.84-11,6.87-9.92,8.55-12.44,10.4-10.63,4-14.23,8.89,1.27,7.54,1.27,7.54-2.17,1-7.93-1.17-6.12-4.86-6.12-4.86-4.14-.17-6.47,6-3.62,6.86.51,10.57-2.86,3.85-2,6.36.92,7.22,3.42,7.72,3.06-2.35,6.14,1.51.53,14.75,4.49,15.26,6.84-1.18,10.26.33,5.93,2.85,10.45,1.34,9.35,0,11.7,1.34,10.8,4.19,14.94,3.86,4.86.68,5.58-5.2.19-11.4,5.22-15.92,5.23-4.54,5.59-8.73.36-8.55,3.43-12.91,4.85,2.52,6.48-.84,3.24-3.34,2.33-5-5.58-1.69-7.38-4.87.55-4.87-1.62-11.4-3.41-4-.36-7.72,5.58-4.35,5.94-7.2,1.61-3,5.41-5.7-.6-1.43-4.2-4.11-10.34-12.74-14.54-12.66C1177.8,1006.24,1169.25,1016.42,1166.56,1020.28Zm532.05,356c-1.74-1.27-3.22-.33.74,4.36s4.31,3.34,6.83,3.51,4.69,9.4,6.12,11.76a40.46,40.46,0,0,0,4.14,5.18s1.46,10.06.19,14.6-4,6.53-4.86,10.73,4.14,3,7.39,4.36,2.7,1.34,1.44,5-5,5.37-5,6,7.38,4.86,11.17.34,9.7-11.24,11.35-16.09-2.89-2.7,2.33-6.21,4.5-1.85,7.21-6.21,5.57-8.88,2.52-11.23-6.48,2.85-9.21,3.86-4.85,1.17-8.63-.68-4.5-1.84-5.93-5.2a18.64,18.64,0,0,0-3.25-5.2s-1.09,5.7-3.77,3.87-2-3.87-4-7.06-2-4.19-3.25-6.53-.18-6.88-6.47-7.55S1700.23,1377.43,1698.61,1376.26Zm1.09,60.87a68.34,68.34,0,0,0-9.54,10.56,46.44,46.44,0,0,0-6.66,11.91c-1.43,3.35-6.66,7.37-15.3,11.9s-11.9,6.37-14.77,10.57-13.15,17.26-14.4,18.78,4.85,3,11.17,3,16.19,5.69,21.6-.17,10.8-19.79,14.22-24.82,6.66-6.87,12.06-11.74,14.41-13.92,14.41-17.44-2.34-9.22-2.34-9.22a6.79,6.79,0,0,1-6.68,3.35C1698.8,1443.33,1699.7,1437.13,1699.7,1437.13Zm-42.46,64.41c-6.33-3.35-7.57,2.88-8.59,9.28s2.73,1,8.23-1.92S1659.65,1502.82,1657.24,1501.54Zm-214.12-44c-7.13-2.37-5.94,4.37-4.86,9.39a37.1,37.1,0,0,0,5.23,13.24c2.69,4.21,12.77,5.7,16.75,3.87s6.83-8,10.79-13.92,5.76-12.58,5-16.09-5.76,3.18-9,4.69-7.57,5.36-13.68,3.69S1445.65,1458.43,1443.12,1457.58Zm-89.66-360c-5.76,1.34-8.64-3.69-13.33-13.42s-8.28-11.05-20.17-6.7-10.08,3.36-2.16,6.37,9,4,10.08,4,12.61,1.67,10.08,3.34-13.32,3.35-6.48,8.06,4,1.34,22,10.4,20.89,2.35,26.66,14.08,5.74,9.72,1.06,12.75-10.8,6-8.27,6.37a165.64,165.64,0,0,0,19.44,2c12.25.67.72,7.71,14.4,7.71s17.29-4.36,22.69-10.73,6.48-3,18-.34,15.49,12.74,29.9,16.77,20.52,9.39,11.52,1-12.25-14.42-24.5-24.15-12.95-10.74-16.55-18.11-16.21-16.1-30.24-21.8-22.09-6.49-38.55-11.07C1362.09,1079.47,1359.22,1096.24,1353.46,1097.58Zm-94.74-33.53c-5.39,3.76-6.06,1.46-10.09-1s-2.91,5.21-11.89,1-12.32-6.27-22,.84-3.58,10-3.82,15-8.07,19.21-11,24.43-2.88,7.1-.66,10.45,5.39,2.08,6.73,3.75,0,14.83-1.58,19.21,3.83,5.23,9.43,4,.68-1.66.68-6.26,2.68-6.68,2.68-15.26v-12.51s1.58-.84,3.6,2.08,4.94,11.08,7.4,15.26,4.92,7.3,8.75,4.37,7.38-6.26,7.38-6.26-7.38-2.29-7.38-4.81,3.13-4.58-2-12.94-7.84-8.78-1.33-9.19,6.28-6.9,10.08-8.78,9.2-1.25,9.2-1.25a10,10,0,0,0-9.64-2.3c-5.83,1.66-11,2.51-15.94,5.23s-9.2,4.39-10.09-.63-1.56-6.26-.89-13.17,8.51-1.66,14.36-3.33,5.84-1.26,18.61-.42,13.68-2.09,17.49-7.31a53.42,53.42,0,0,0,6-11.29S1264.1,1060.29,1258.72,1064.05Zm30.28-18.27c1.14-2.09-9.37,7.19-11.34,9s0,4.53,1.42,7.22,1.09,11.9,1.63,13.91,6,3.86,6,3.86-.18-6.2,1.79-9,0-6.38,0-11.57S1285.58,1052,1289,1045.78Zm-20.71,55c-8.26-3.16-11.35-1.08-11.35,3.24s-.92,6.48,7.88,6.48S1283.58,1106.65,1268.29,1100.82Zm16.46-2.8c-2,.64-4.17,7.13-3,11s2.54,1.3,7.19.44,3.91-4.53,9.71-5,17.84,4.1,17.84,4.1,2.56-3-6.69-8.84S1296.31,1094.35,1284.75,1098ZM1120,884.72s-8.28.24-9.55.24-4.14,3.2-6.21,4.46-2.06,3-.61,6.27,3.85,3.44,7.9,4.54,2.62-1.76,5.6-2.85,3.77-3.78,4.41-6.2,2.6-3.54,3.33-4.37-2.34-3.68-2.34-3.94S1120,884.72,1120,884.72Zm97.51,11.65c-3.26-2.41-5,6-6,10.39s-2,7.22-.36,10.4.9,4.2.9,4.2l-4.69-3.54a30.28,30.28,0,0,0-1.25,7.56c0,3.52-1.45,5,4,7.55s7.21,1.16,7.91,5,.72,5.52,4.33,6.2,7.74,2.17,9.18,4.54.71-6.23,3.24-5.71,5.42,3.69,7.21,6.54a6.21,6.21,0,0,0,4.49,3s-4.13-6.87-2.33-7.71,2.33-1.5-2.35-4.36-8.45-2.18-12-2.69-3.6,2.52-6.31-4.52-.53-11.4-.53-12.92,2,2.35,4.14-2.52a25.55,25.55,0,0,0,2.33-13.4c-.36-4.69,3.24-6.54.53-6.71S1219.31,897.71,1217.52,896.37Zm42.84,90.11c.54,3.39-3.23-1-4.66,1s-2.16,1.56-4.45,2.51-7.82,6.11-7.82,6.11-.08-3.33.06-4.09-1.69-4.65-3.38-2a15.34,15.34,0,0,1-7.1,6.22c-3.78,1.91-6.14,4.66-6.6,8.06s2.29,3.27,2.29,3.27,1.49-1.14,4-5,3-3.78,7.48-4.35,4.18-.5,5.62,2,.33,6.17.46,8.88-.13,6,4.51,7.54,2.45.13,6.7-.25,4.19-.26,3.57-2.4-1.88-4-2.17-6.53,2.46-3.58,3.33-4.08,1.42,2.52,2.7,5.65,1.82,3,2.37.63,2-8,1.48-11.07a41.87,41.87,0,0,1-.81-7.86c0-2.5-2.1-5.53-3.31-6.41s-5.4-4.58-5.4-4.58S1259.83,983.08,1260.36,986.48ZM1239.64,966s.09-2.14-3.81-6-4-5-10-6-11.92.52-9.4,6.92,3.25,7.34,8.3,8.11a10.36,10.36,0,0,0,8.09-2s.38,1-4.38,4-5.3,8.7-1.58,10.92,3.64,5.63,5.79,3.92,3.71-7.59,8.09-11.69,4.66-4.68,5.23-9a34.79,34.79,0,0,0,.09-7.85Zm10.2-12.29c-.55.43-3.66-.32-.42,2.82s6.21,3.84,5.81,6.16-.13,2.77-2,2.51-2.37-.69-3.18-.75-.93,1.51-.39,3,.39-.19,1.94,2.26,1.16,3.27,1.63,6.1,1.69,1.45,1.69,1.45-.41-6.79-.21-8.17-.54-4.73,1.75-3.66,1.69,5.11,3,1.33.75-7.11.08-10.13-3.05-3.14-5.82-3.14A21.43,21.43,0,0,0,1249.84,953.66Zm-46.58,11.62c-1.35.34-2.18,1.64-3,6.24s-3.39,7-6.14,9.68-10.29,9.93-10.68,11.38-.48.56,5.13-2.09,10.06-6.15,10.71-9.74-.65-1.37,4.29-3.7,2.42-3.09,2.62-6.74S1205.73,964.65,1203.26,965.28Zm298.12,137.32c-.6,4.67,1.34,6.06-3,9.48s-9.18,3.44-13.78,4.2-1.24-.76-6.93-.92-7.12.25-4.5,3.09,2,5.62,10.35,5.29,15.3-4.86,20.72-6.53,5-6,5.4-8S1502,1097.58,1501.38,1102.6Zm23.39,10.07c2.32,3.29,1.44,2.78,4.41,7.13s7.67,5.12,11.17,6.29,0-1.26-2.6-4.77-2.8-5.46-6.67-9S1520.73,1106.89,1524.77,1112.67Zm-304.11-282c-11.54,7.34-16.74,6.79-12.14,16.1s7.46,13.25,8.1,15,3-1.18,6.1-8.55,3.52-17,4.78-19.95S1224.62,828.2,1220.66,830.72ZM1418.28,469c1.27,4.87,2.52,12.41-.36,13.24s-4.87,6.21-5.58,11.75-2.16,12.57.89,16.94.9,4.68.9,8.38,1.08,13.07-.72,18.61-2.87,6.87-2.15,12.74,0,7,0,15.43-.53,15.08-.18,18.43,2.15-1.66,3.41-2.84,6.13-1.85,8.82,1l2.72,2.85s4.31,1.84-1.62-10.9-7-10.06-5.41-21.63,2.52-11.73,8.63-12.92,9.36,7.22,10.1,8.05-.55-2.85-2.71-9.38-4.14-8.72-4.86-16.93-3.25-15.11-6.48-17.45-1.61-6.2-.18-9.39,2-8.05,1.27-13.58a142.32,142.32,0,0,0-3.24-16.27c-.91-3-4.51,1.84-4.51,1.84Zm-5.4,128.45c.35,3.68.72,7-1.8,11.22s-.72,5.2-2.16,11.07-8.46,0-8.46,1.19-1.08,5.36-2.89,6.86-7.93,1.85-6.13,7.72a83.78,83.78,0,0,0,5.06,12.06s3.6-3.35,4.67-3.68,4-1.16,4-1.16-.53-1.69-4.5-3.53a5.42,5.42,0,0,1-3.06-6.88c.55-1.18,5.58.34,8.82,0s5.95-2,9.92,1.17,9.72,4.37,9.72,4.37a29.41,29.41,0,0,1,2.51-8.05c1.8-3.35,7-1.85,12.25-3.35s9.18-2.35,7.39-4.54-1.63-7-2.72-10.73-4.5-.17-7.2,1.17-6.11.34-9.72-2-10.08-11.23-12.42-14.76C1416.12,595.56,1412.51,593.72,1412.88,597.41Zm-16.13,55c-1.71.84-3.9,5.28-3.5,10.19s4.58-.38-.82,14.71-8.11,18.48-13.37,22.39-10.12,3.9-12.15,2.89.55-4.41,2-5.42-4.6-1.38-7.16-1-.14,3.27-.41,5.65-5.26,8.81-4.72,11.7.54,3.78-2.7,4.78-5.39-2.4-6.34-2.9-5.81.89-12.16,1.76-8,3-10.67,7.68-9.06,5.4-13.64,7.16-2.84,8.31-7.84,10.57-5,6.41-5.4,9.81,3.1,1,3.65.76.54-4.79,3.65-4.28,3.51.62,1.88,4.15-2.55,5.28-4.17,8.3.54,4.4,3,7.43,4.74-.89,9.85-6.29,5.55-6.68,5.15-12.84-2.45-6.29-6.21-8-4.61,0-.42-4.8,6.08-.11,8.92-2.25,9.72-2,16.34-3.65,13-3.76,13.24-1.64,2.3,9.31,2.55,10.82,4.62-2.14,9-3.78.28-2.37-.13-5.27a4.92,4.92,0,0,1,2-4.53s2.3,4.78,9.45,1.39,7.7-4.79,9.59-4.29,3.11,2.4,6.07.51,3.53-.13,3,1.39,8.64-2.9,10.66-4.27,1-.14.13-5.42-3.37-5.65-1.87-12.44,1.08-7.44,1.48-11.71,2-4.89,3.1-5.15,1.09-5.92,3.37-8.92,1.76-4.41,1.76-11.33-3.79-5.66-4-10.55a36.91,36.91,0,0,1,.93-9.69s-7.7,2.89-8.49,4.65l-.83,1.76S1399.33,651.14,1396.75,652.4ZM1346.35,728c-8,1.34-13.61,2.19-18.34,3.7s-5.74,3.6-5,8.32,2.6,9.47,3.25,11.92,3.24,0,7.69-2.36,4.17-9.27,8.43-9.27,2.68,4.92,8.42-2,1.39-7.48,1.57-11S1346.35,728,1346.35,728ZM1851,355.53c-8.54-1.66-11-3.51-11.79-.43s-1.72,4.12,3.68,6,8.1-1.43,13.15,2.35,6.48,3.6,10.35,3.1,5.4-2.44,5.4-2.44S1857.44,356.79,1851,355.53Zm-97.53-134.35c-3.14.88-5.69-2.14-4.87,5.53s2.55,8.55,12.41,7.16,2.43-.37,15.94-1.38,16.33-2.89,16.33-2.89a23.71,23.71,0,0,0-6.47-7.29c-4.6-3.52-10.68,2.4-21.08.63S1753.43,221.18,1753.43,221.18ZM1449.16,107.87c.13,2.94,13.5,11.18,18.36,13.58s8.63,1.38,18.91.25,11.08-5.52,12.28-8-4.86-1.64-11.73-3-12.56,1.24-15,0,3.65-2.52-2.43-4.79-7.56.75-8.92-.25-1.61-3.16-4.58-3.39S1449,105.11,1449.16,107.87Zm-52.94,17.23c-4.66,1.86-4.33,3.52.94,7.92s3.52,3.39,1.22,6.54,0-.13,7.56,3.26,10.68,9.57,15.4,11a11.13,11.13,0,0,0,8-.38,43.25,43.25,0,0,0-6.08-11.06c-4.45-6-14.06-7.79-15.82-13.08S1402.83,122.45,1396.22,125.1Zm48.2-24.64s-6.87-4.16-17.28-10.7-14.31-8.3-17.83-8.8-3,3.66-4.32,6.91-2.29,2.64-7.7,0-10.81-6.66-16.33-7.93-8.91,3.28-15.26,9.57-2.69,8,5,17.35,11.08,9.82,17.28,6.16,4.45-6,8.91-4.27,19.86-1.76,20.4-1.76-1,8.55,5.81,6.29,13-3.39,16.06-6.79S1444.42,100.46,1444.42,100.46ZM976.77-79.17c-2,1.67-13.51.67-19.45,10s-10.07,2.86-13.15,8.56A118.74,118.74,0,0,0,938.59-48s5.42,6.38,11.17,5.88,15.84,2,21.42,9.73,9.73,7.7,23.23,9.88,7.37,4,14.41,3.37,16.73.83,14.58-2.7-3.78-5.7-2.87-12.57,7.18-6.54-.19-11.07-12.61-.83-12.24-1.67,6.66-3.36,4.14-3.53-15-.83-16.38-7.87,3.41-7.57,5.92-8.07,1.82-1.32-5.4-6.52A196,196,0,0,0,979.47-83.7C975-81.35,978.75-80.85,976.77-79.17Zm67.7,50.8c-5.22,1-9.55,6.21-12.6,10.73a81.43,81.43,0,0,1-13,14.42c-3.78,3-2.7,3.87,3.42,6.05s16.93-3.87,20-4,5.4,4.53,15.13,3.34,24.48-3,17.28-8.21-4.67-2.69-12.61-9-18-6.87-18-6.87,16.39-5.54,12.43-5.87S1044.47-28.37,1044.47-28.37ZM628.19-111c-9.43,3.39-6.13,5-12.26,9.91s-2,6.19,11.18,3,13.85-4.53,22.32-8.38S642.23-116.07,628.19-111Zm20.87,23.66c-8.85,3.92-6.48,8-4.13,11.39s8.81-2,10.6,1.69,2.35,2.16,10.64-3.37,5.23-3.85,2-9.71S664.2-94.09,649.06-87.38Zm-49.19-2.44c-5.67,2.7-5.67,2.39-.29,4.91s18.51,4.52,25.26.11,6.23-3.51-2.29-4.77S606.2-92.85,599.87-89.82ZM516.41-79.64c8.78-.75,16.88-1.12,23.91-.37s4.44,6.79-8.52,8.18,1.22,3.4,10.4,3,3.24-7.94,10.94-10.57,12.56-1,21.73-4.27-5.26-6.42-15.93-6.17-14.18.87-23.23.25-16.35,3.44-25.66,5C490.88-81.27,507.63-78.88,516.41-79.64Zm68.85,2.4c-7.71,0-26.32,4.27-10.66,5.78s14.46,2.52,20.93.13S593.38-77.24,585.26-77.24ZM639.85-74c-11-3.63-11.24-2.15-19.74-1.77s-11.87,5.67-6.33,7.92,9.3,1.38,13.9.65S632-69.31,629-70.45,646.32-71.83,639.85-74ZM686-87.55c-8.43,1-8.91,2.52-9.72,5.27s1.21,2.14,10.13,1,13.09-2.38,18.9-5.53S704.12-97.62,704.12-99s-8.23,4.17-10.53,6.16S696-88.81,686-87.55ZM24.68,394.83c-4.25,11.73-11.26,17.15-3,13.9S38.28,395.38,37.86,404s-8.5,7.39-6,15.87.64,7.77,14.45,10.83,2.54,2,5.95,10.12,5.72,10.63,2.11,13-14.22-7.4-14.85-3.26,1.47,7.22,4,13-1.7,9-9.76,12.81-1.07,6.14,5.1,5.79,21.65-3.26,19.1,2.16-10-.9-15.27,8.12S17.88,509.24,28.08,508.7s8.71-3.25,39.1-7.57,9.32-.37,29.29-6.51,13.59-7.77,2.55-5.95,7.23-10.84,4.68-22.55-9.76-.54-14.45-7.95-4-9.56,4.89-6.87,8.08-1.79-9.14-12.8-6.58-8.84-14.44-18-21.23-8.13-21.23-8.13a27,27,0,0,0,9.12-10.1c3.39-6.67,4-6.14,7.65-14.25s-3.61-7.4-12.73-5.42-12.13,2.89-10.2-.72,3.18-5,7.43-9.57,5.08-6.85-2.77-5-9,1.62-15.71,4.69C21.92,376.61,28.93,383.1,24.68,394.83ZM3.22,422.44c-13.88,5.47-10,9-7.63,11s6.58-1.81-6.38,5.6-13.16,15.51-6.37,17.14,5.95-4-1.26,9.57-12.11,22.73,2.55,19.3,18.68-11,25.68-11.91,8.29-6.49,8.29-15-4.67-8.66.86-15.7,5.93-14.44-4.91-17.86S11.94,419,3.22,422.44ZM177.67,611.83c-.75,1.9.92,7-4.69,10.55s2.71,6.72,4.5,10.07,4.15-11.4,3.6-18.45S180,605.78,177.67,611.83ZM175,639.66c-9.16,4.33-9.72,7.54-10.82,14.42s7.4,1.33,5.23,7.37-.17,9.22,9.36,3.53,4.15-10.9,5.58-18.11S187,634,175,639.66Zm141.15,74.1c-8.05-.78-11.61,4.28,2.16,5.8s20,1.75,25.13.49.79-.24-6-4.77S326.39,714.77,316.13,713.76Zm76.7,4.28c-11.09-2.39-8.09,11.07,3.25,9.07s7,.75,12.16-7.55S404.45,720.55,392.83,718ZM117,655.58c-9,1.15-9.72,4.2-2.7,6s6.11-.34,10.08-3.2S121,655.08,117,655.58Zm-545.5-164.15c-5.53,4.39-11.88,10.81-19.72,24.9s-7,12.58-14.58,20.37-3.77,6,19.72,10.57,21.6,8.05,27,6.54,6.48,3,6.48,7.8,5.12,2,7.55-5.53-2.43-21.14-7.28-28.93-6-7.81-13.51-5.79-5.14-1.76-7.82-7.79-7.05-1.26-.55-10.32S-423.1,487.16-428.51,491.43Zm-718.87-16.09c0,7.48,7.91,20.28,13.86,24.48s4.69,1.85,2-7.05-.53-8.88-1.8-14.58S-1147.38,472.65-1147.38,475.34Zm39.43,40.91c1.56,1.62,6.3,8.39,14.57,13.92s10.45,6.2,19.1,8.72,12.42-.85,6.83-5.87-.9-4.54-11-6.89-12.23-1.49-17.29-4.69S-1111.38,512.73-1107.95,516.25Zm-219.54-83.42c-6.5-1.47-9-1.76-13.51,1.76s-5.67,6.54-3.23,10.45.93,1.75,6.6-2.14,3-4.41,10.14-6.18,5.67-4.15,5.67-4.15S-1323.56,433.71-1327.49,432.83Zm-2.29-8.67c-4.37,2.63-5.82,4.77-1,3.77s4.18-3.77,7.29-3.15,4.19-.62,4.19-.62S-1325.19,421.38-1329.78,424.16Zm-124.65-20c-5.94,2.9-11.57-.49-7.9,1.7s8.64,4.28,12.55,3.84,6.5-.5,5.07-2.39-1.8-2.37-1.89-4.33C-1446.74,400.32-1448.48,401.27-1454.43,404.15Zm1993.3,819.52c-6.85,15.1-21.26,7.72-32.78,18.78s-9.73,7.72-1.08,23.14-7.18,13.75-11.17,31.86,4.69,14.76,9.36,30.19,6.85,10.73,15.5,8.71a50.53,50.53,0,0,0,14.76-6s1.46-13.42,7.19-33.2,9.73-34.21,10.81-47.28,2.16-22.47,5.06-18.45,3.23,4,3.23-2.35-3.46-24.3-9-28.5C541,1193.15,545.7,1208.59,538.87,1223.67ZM549,192.12c-9.43,2.16-13.91,7.94-7,10.19s6.21,1,17.57-3S558.26,190,549,192.12ZM725.4,20.76c-3.22-5-6.11,1.69-39.23,16.1s-32.79,2-63.75,26.49-24.13,21.46-25.94,36.23-9,8.37-11.88,21.79-18.71,14.09-10.81,25.16,18.36,17.43,34.92,22.13,21.26-.33,17.67-2-16.21-21.46-13.69-43.93,10.81-19.12,18-27.5S656.62,65,668.88,57.64c11.9-7.17,43.57-17.19,59.53-22.68.45-.16,1-.13,1.32-.45C742.33,20.43,728.65,25.8,725.4,20.76ZM636.11,171.5c-3.92.56-5.76.68,1.45,7.72s13.5,12.41,11.14,3S639.7,171,636.11,171.5Zm118.28-68.24c-5.26-2.46-8.08-5-9.35-1s6,9.39,13,10.74S759.44,105.61,754.39,103.26Zm-1239.71,422c-8-4-15.83-7.21-21.05-7.21s1.08,5.53,9.35,10.06S-480.63,527.65-485.32,525.3ZM-504.39,559c.43-6.65-4.43,7.64,1.52,10.82s9,4,12.8.15.7-1.42-4.51-2.34S-504.75,564.54-504.39,559ZM1854.83,328a40.53,40.53,0,0,1-17-1.77s-.54,7.81-3.5,11.58a7.41,7.41,0,0,0-.83,7.8s-9.71-4.28-15.38-6.3-10.8-.24-14.06-8.81-13-7-20.51-7-5.39-9.8-5.39-9.8l-4.6.23c-4.61.27-3.79,11.33-9.72,14.85s-24.59,5.79-24.59,5.79,11.88,8.55,14.33,15.59a68,68,0,0,0,7,13.83s-1.09,3.28-15.41.5-13.49,2.78-28.89,9-33,15.86-37.27,19.38-4.59,1.51-18.09-1.76-16.2,3.77-19.73,5.53-2.15-8.05-2.15-8.05a26.33,26.33,0,0,0-10.81,3c-61.57,31.28-19.11,29.62-21,35.95,0,0-6.5,24.4-6.5,24.42-9.05,26.95-15.32,12.83-23,34.19-24.31,67.91-38.37-10.47-38.37-28.41,0-11.08-2.42-25.4,4.61-28.68,60.43-28.14,5.67-3.9,62.39-42.75,18.38-12.58,8.37-20.13,12.42-23.64s10.54-4.54,10.54-4.54l-10-1c-10-1-10.27,1.26-18.1,9.81s-14,10.07-12.42,3.51,1.88-13.32-4-9.79-8.39,3-19.45,5.28a54.33,54.33,0,0,0-33,20.12c-10,12.58-4.32,11.06-1.08,14.08s-16,2.25-25.11,1.52-4.35-2.52,1.06-4.29-8.11-3.26-20-5.78-7.29,2-14.3,4.77-6.75-2.5-10.27-3.26-19.17-1.76-30.24-3-10.27.76-13.24,4.53-23.5,21.9-32.41,32.21-20,12.57-30,22.13-11.61,9.05-3.51,10.57,9.19.73,10.53,8.29,5.14,10,13.79,10,6.21,2.27,7.82-4.27-2.16-14.07,5.14-8.3,13.23,10.07,15.39,18.37-.54,14.33-4.32,28.17-5.13,33.7-10.27,43.76-9.18,17.61-14.85,28.67-33.23,39-39.43,41.5-10.26,2.77-13.24-2.77-5.13-4.53-12.15,1.76-10.26,10.07-13,20.12-8.65,10.07-14.86,17.61-7.83,5.79-3.25,14.34,12.15,17.61,13,25.9-3.79,20.37-6.75,25.67-17,7.79-16.75,5.27a196.17,196.17,0,0,0,0-22.38c-.54-7.29-5.95-7.29-4.06-9.56s9.74-6,4.06-11.33-9.72-.75-12.14-7,1.08-11.33-.27-13.58-5.41-4.78-13.78-5.54-10.27,7.54-12.17.24.83-8-3-11.05-7-1-16.73,7.29-11.63,6.54-19.73,10.06-8.1,5.53-6.21,8.31,8.64,14.83,14.31,16.09,9.73-2.52,18.36-2.52,10.27,1.26,8.11,4.52-8.11,6.56-18.63,17.11-7.31,8.56-3.78,12.84,8.64,9.55,12.42,17.86,0,11.3-.54,16.07-1.35,12.09,5.68,19.64,2.15,5,1.34,7.79-12.69,24.39-18.1,35.22-5.41,11.81-23,24.14-25.4,13.58-34.85,15.33a117.3,117.3,0,0,0-22.42,6.55c-4.85,2-3,6-3.49,8.55s-5.14.25-4.34-3.53.28-6.54-2.15-7.54-10-4-17.82,3.52-17.3,8-20.55,17.62-2.68,6.29.84,10.31S1098,919,1102.09,927.8s4.87,15.36,5.14,24.91-19.46,27.17-28.09,32.95S1068.6,997,1070,987.92s-3.78-14.34-10-21.13-25.11-12.32-28.64-13.08,1.36-6.27-1.09-6-8.08-1.25-7.28,7.56-5.66,6-7,14.84-3,17.85,2.69,17.1,4.6,7.8,8.92,17.36,2.68,4.27,13.5,13.07,8.1,7.29,10.54,16.1,1.62,13.83,7,21.88,5.67,9.81-3.25,5.28-16.2-10.06-19.72-15.59-5.66-19.63-7.83-26.66-16.74-15.34-21.6-20.38-1.9-9,.54-20.62-1.08-22.64-1.9-29.67-6.47-26.79-9.19-33.46-1.62-5.79-5.81,0-7.41,9.3-11.47,9.3-10-.62-9.45-3.27,4.6-12.7,3.38-16.47-5-15.85-10.67-20.13-12.17-10.18-15.8-20.11-4.6-7-11.62-1.89-23.1,5.78-30.8,6.41-1.34,4.41-3.23,8.18-10.93,8.67-29.16,27.67-21,19.61-25.71,21.63-7.67,1.38-7.51,9.17.84,12-.06,19-3,9.81-5,14.25a83.55,83.55,0,0,0-4.75,16.69c-.63,4.18-4.69,9.05-10.63,13.32s-5.94,3.52-8.64-2.76S792,965,780.69,942.4s-8.64-26.67-9.73-33.21-1.3-45.79-.81-48.79c.29-1.67-5.49,4.61-7.11,7.79s-1.53,7-8,7.64-7.83.67-13.95-5.45-8.93-9.55-7.86-9.38a33.94,33.94,0,0,0,12.18-2.69c4-2,2.69-4.2,2.69-4.2s-4.4.5-9.63.76-2.89-1.18-9.81-3.94-8.48-3-9.64-6.12-2.87-7.47-3.87-9.82-1.79-2.51-3-5.43-4.5.49-12,.66-5.77.5-14.77,4-10.35,2.26-20.53,1.93-17.28-4.7-22.42-6.46-5.93-1-13.5-2.1-5.93-4.94-7.83-8.13-5-4-14.95-3.19-10.26.26-15.83-1.26-6-3.51-10.72-8.21-3.15-1-6.21-3.45-6.12-5.77-8.55-12.31-1.89-8-4.69-11-2.6-2.27-11.35-2.27-4.75.58-5.85,1.18-3.77,4.44-6.21,7.45,2,7.22,5.49,11.33.45,3.68,6,9.89,3.68,5.62,7.65,14.25,6.48,10.82,7.37,13.42,1.73-1,2.63-3.36-.36-10.74-.36-10.74a53.84,53.84,0,0,1,3.23,9.74c1.53,6.2.45,6.28,1.53,10.24s0,3.41,6.76,3.41,10.89.27,18.37-1.49,10.7-8.55,14.21-10.57,3.53-9.06,5.86-8.3.1,8.3,2.25,13.24,2.7,3.18,7.93,5.37,6.65,3.44,12,5.45,1.71,2.27,4.59,7.55,2.71,2.34,5.5,4.19,1.71.5-.27,6.79-2.34,6.37-7,11.48-4.69,3.53-5.4,3.36-2.16-3.77-2.16-3.77a39.48,39.48,0,0,0-3.42,13.25c-.45,7.12,2.34,4.51-6.22,8s-13.69,4.87-17,7.72-3.32,6.63-5.22,8.47-4.51.17-10.26,2.17-4.16,1.59-9,5.3-.55,3.35-6.75,5.68-17.46,7.81-23.14,8.4-4.5,2.09-5.93,4.18-1.55,3.18-8.74,4.27-16.2,2.12-20.63,4.29-10.89,7-15.57,6.12-3.42-1.1-4.95-5.29A50.3,50.3,0,0,1,493,936.36c-.71-6.88-3.16-17.35-7.12-24s-3.88-7.06-8.19-14-7.2-12.82-11-15.5-5.66-2.85-7.48-4.86-.72-8.89-2.6-14.76-3.16-11.56-5.95-14.84-7.11-7-11-14-4.13-7.73-9.7-18.45-7.59-12.07-11.27-19.28-1.27-5.8-2.61-10.07-4.87,7-7.65,9.14-4.23,1.09-6.48-5.28-4.16-12-5.86-9.46-3.06,5-.73,11.82,3.44,5.34,6.49,11.8S413.35,827.3,416.77,834s2.08,3.43,5.24,13.58,4.94,11.4,9.17,15.58,3.52,2,5.41,8.89S437.77,887,438,891.18s2.6,6.36,7.65,10.56,2.51,2.68,4.85,7.12a99.22,99.22,0,0,1,6,15.09c1.34,4.36,3,7.39,6.92,9.31a68.28,68.28,0,0,0,9,3.61c4,1.42,2.59,2.42,5.3,5.87s7.93,6,11.18,11.49,1.07,3.85.88,9.13-1.88,2.85.46,5.62,6.39,5,13.22,9.54,1.38,1.36,7.48,1.19,7.4-1.77,14-3.19,15-3.86,23.13-5.79,16-3.18,20.18-4.53,4.24,3.2,1.07,10.23-4.67,12.91-7.38,18.62-3.7,6.2-5.67,10.82-15.32,23.46-18.09,29.42A73.57,73.57,0,0,1,528.07,1051c-4.06,4.94-16.76,13.9-22.69,18.69s-4.42,4.77-8.83,10.4-17.82,21.2-21.44,26.74-5.65,7.55-8.36,13S456.41,1133,456,1136.9s-4.77,4.45-1.53,7.89,4.95,4,6.12,8.37-3.61,9.31-.53,17.28.89,2.27,5.5,8.63,4.4,10.4,4.84,19.71.9,18.52-.53,24.56-3.43,10-5.49,15.43-13.42,9.15-20.09,12.07-6.38,1.75-9.45,5.45-11.88,11.39-14.85,17.09-5.22,5.12-4,8.73,3.66,8.3,6.74,15,.9,6.2.18,12-.63,4.87-1.44,11.9-9.09,7.21-18.54,10.9-6,1.85-7.13,7-.43,15.17-.81,21.2-3.23,3.61-8.37,11.07-7.19,11-12.69,20-5,7.72-12,13.33-12.42,7-15.47,13.49-6.58,2.19-21.44,7-4,2.45-18.17,4-19.19,2.69-26.66,4-6.5-.4-11.08-5.44-5.31-4.63-7.36-8.81-.55-5.2-1.19-12.75-1.26-7.79-4-12.49-2.63-5.44-5.68-12.91a61.28,61.28,0,0,0-7.85-14.58c-3.41-5-4.4-3.43-7.55-6.71s-3.24-6.12-4-10.73-1.8-15.51-3.32-27-.18-5.37-2-10.22-4-10.74-7-17.19a94.93,94.93,0,0,0-6.66-12.75c-4.68-8-4.24-6.86-7.21-13.82s-3.41-3.87-3.59-6.55,1.52-7.54,1.71-12.23,1.71-10.14,2.86-17.36-1.6-7.13,1.45-12.08,6.21-9.46,8.21-15.09,1.69-5.87,1.69-13-.72-6.53-2.87-12.49-3-12.92-5.58-22.47-2.53-9.21-2.9-12.91a89,89,0,0,0-3.95-17c-1.79-5-2.7-3-6.65-6.28s-1.35-1.85-4.77-5.46-2.79-4.78-6.13-8.72-3.78-4.11-6.49-8.55-1.24-1.76-.88-9.22,2.5-21.72,3.87-29.94,1.62-7.79-1.53-11.23-5.42-8.38-7.84-9.21-8.29.83-16.84.66-8.19-2.09-11.87-6.37-8.57-10.23-10.28-11.82-4.68-1.52-19.25-.43-5.77,1.36-15.51,2.86-13.5,6.62-21,9.23-9.63,1.92-22.77-.68-19.71,3-26.38,5.88-9.91,1.5-14.76-1.85S5.44,1029.08-2,1025.4s-5.75-5.7-13.13-9.31-5-3.77-11.08-9.56-6.56-11.65-10.8-17.69S-44.9,974.34-50.56,968s-11.25-19.2-14-23.05-4.94-4.2-4.87-6,5.5-12.66,7.76-18.28,2.87-4.87,3.86-8.38-1.35-13.67-3.51-19.2-4.59-17.19-6.29-22.64.88-5.54,3-8.62a188,188,0,0,0,12.14-19.12c5.13-9.57,8-14.26,10.72-18.71s8.9-18.1,13-21.79S-14.46,791.07-10,788.8s8-3.51,8.74-5.53,2.6-18.6,3.87-25.56-.44-10.82,4.59-13.5,13.15-7.72,17.39-10.07,4.85-5.87,7-11,3.08-11.57,6.32-13.68,2.34.92,6.57,3.77,5,3,6.93,3.53,3.78-1.6,8.74-1.67,5.48.59,8.45,2.18,1.35,1.59,9.82-3.61,15.21-8.38,26.29-12.49,18.63-6.38,23.76-7,2.52.07,8.29,2.35,6,3.27,7.19,1.58,5-6.37,7.39-6.2,5.22,1.18,11.43,2.27,8.83.5,11.36-.84,5.74-4,6.37-4a107.82,107.82,0,0,1,10.27,3.45c4.32,1.59,4.41,1.84,3.52,2.92s-2.16,2.27-4.23,7-1.09,2.18.89,7.13,3.42,4.69,2.52,8.3-4.95,7-7.92,10.47-2.25,4.11,5,8.23,5.59,3.43,13.78,7.12,8.55,2.35,18.09,5.2,8.37,3.18,11.7,7.05,3.51,7.54,9.27,9.55,11.89,2,15.23,4.1,6,5.12,10.54,6,4.47,1.43,6.65-1.85,3.95-6.2,3.16-7.88-3.26-4.28-2.72-5.87,4.33-8,5.49-9.88,4.16-2.44,11.27-2.78,12.05-1.34,13.23,2.85.9,2.27,6.39,4.54,6,2.26,10.63,4,2.25,4.26,4.59,4.09a28.31,28.31,0,0,1,10.44.76c4.32,1.26,12.24,5,20.61,5.37s11.61-2.19,12.88-2.78,7.2-7.86,10.73-2.84,8.08,5.12,16.9,4.61,8.92-1.84,10.9-4.11,7.29-10.82,9-16.68,6.37-18.69,7.63-24.48-.08-10.31-.53-13.74.36-5.8,1.72-9.66-4.24-1.5-6.5-.74-2.87-1.18-4.94-1.77-4.23-1.1-5.77,2.78-.82,5.78-9.09,5.36-6.75-.92-9.45-3.87-7.29-3.68-11-4.77-4-.93-4.31,1.42-.36,3.94-3.05,4.87-8.82-.17-14-2.6-6.67-3.6-11.71-8.56-4.31-4.94-6.39-12.56-2.07-14.18-1.16-16.44,2.34-2.93-1.54-1.75-6.49,1.82-3.88-4,5-6,7.76-6.8,6.84-.83,12-1.16,9.09-2.94,10.89-3.7,5.51-2,3.61-2.51-7.56-1.09-6.58-2.69,1.63-1.5,4.68-1.84,7.84-.51,11.9-.74,6.47.49,7.84-1.94,3-6,6.19-8,6.58-.92,14.87-1.26,7,1.68,9.71,3.61,4.5,1,8,1.68,1.34,2.76,4,3.86,7.66,2.18,13.68,4.11,2.07,1.09,9.45,1.09,7.12.07,13-.93,8.29-3.18,12.43-6.13,1.25-9.3-.27-14.24-8-8.13-11-10.39-9.36-9.49-12.78-12.41-7.39-3.78-11.17-5.87-10.53-5.54-11.16-8.31,1.45-2.84,7-4.18,3.79-2.52,4.84-5.46,1.54-2.85,6.13-4.52-5.3-5.2-6.66-7.12,3.06-1.35,7.66-2.44,5-3.27,5.58-5.2.44-2.85-4.95-2.76-12.25,2.34-21.34,4.78-4.94,2.51-10.44,6.79-5.85,2.42-5.13,4.77,1.07,4.61,6.65,7.55,3.23,3,4.79,3.44,5.3,1,3.59,1.51-3.25,3.17-5.77,3.17-3.61,2.6-7.92,5a23.1,23.1,0,0,1-9.35,3.28c-3.15.49-5.41-.52-5-5.88s-1.61-1.75-4.95-3a12.41,12.41,0,0,1-4.59-2.69,38.28,38.28,0,0,0,6.67-3.27c3.35-2.09,4.86-3.35,6.48-7.45s-3.61-1.86-7.38-2.35-2.71-.85-6.39-1.35a6.93,6.93,0,0,1-5.13-3.43,11.14,11.14,0,0,0,4.86.33c3.14-.33,2.44-1.17,3.59-2s2.09-1.6,1.18-1.6-4.77.42-7.37.25-4.16-.58-7.94,0-2.25,2-5,3.77-2.79,2.35-4.22,5-1.9,2.17-2.89,3.85-.9,5.86-.9,8.73-.73,3.76-2.44,6.11-1.7,1.34-4.59,2.76-1,2.44-1.34,5.29-1.36,3.94-1.63,7.64-1.71,3.84-3.95,6.44-3.52,2.59-3.7,5.29a32.41,32.41,0,0,0,0,9.05c.63,5.2,2.07,3.85,6.13,9.14s6.21,3.27,4.76,5.95-1.16,1.68-6.13,1.09-5.74.16-9.34,3.61-4.34,5.37-6.22,6.62-1.26-2.51-2-4.28-9-2.34-14.69-4-7.21-2.68-8.64-2.68-3.64-.33-9.59,2.94-4.59,5.16-4.18,9.43,5.12,5.15,3.78,15.21,5,5.42,7.69,11.58.28,5.65-1.34,6.41-3.24,6-4.46,11.07.13,5.66-1.36,5.41-3.23.88-6.06-3.28-5.13-.23-5.55-2.63-3.92-6.41-2.56-11.95,3.51-6-1.36-8.93-3.63-3.27-5.93-9.19-2.84-7-7.28-12.44-4.07-3.89-2.85-9.31,2.16-12.44-.55-16.22-13.89-14.2-23.09-19.12-11.07-1.12-15.13-8.92-5.91-16-12.68-20.76-3.37-5.15-9.86-2.75-6.62,3.39-6.08,5.27,2,4.41,1.07,9.57-2.29,3.51,4.47,7.53,3.92,3.15,7.29,10.56,3.92,8.81,6.62,11.83,3.65,5.65,10.4,7.17,5.67-.38,7.41,1.26-4.72,2.26-3.5,3,2.71,2.89,8.37,6.41,11.5,7.17,13,9.94,6.47,13.19-.82,5.52-7.42-4.13-9.45,1.14,1.88,9.31,1.63,13.2-3.66,2.4-6,5.53-3.51,6.91-6.21,8.93-1.89-2.25-3.36-2.25-2,1.87-3.92,5.52,0,5.16.79,10.07,2.18,5.28-3.1,5-4.06-5.16-8.9-8.43-7.7-2.14-11.76-4.66,1.76-3.14,11.89-4.4,11.34-2.25,14.45-4.64,2-3,5.4-7.8,0-6.68-2.3-12.47a21.13,21.13,0,0,0-8.1-9.55,78.92,78.92,0,0,1-7.82-7.79c-3-3.27-6.1-3.77-11.22-5s-4.18-5.91-7-7.29-5.68-5.41-12.16-11.45-4-10.56-7-15.84-5.93-9.3-12.43-9.3-11.34,4.52-17.82,10.8-5.13,9.31-12.7,4.54-10.24-4.28-15.67.24-6.47,9.06-6.47,18.11-6.48,5.29-11.61,7.79S99.79,641.33,92,656.17,92.5,664,90.88,669s.54,9.06-6.75,15.59-4.06-.75-8.37,4.53-10.28,9.56-20.53,8.3-7.3,2.77-13.78,4.28-10,3.77-8.38-3.53.28-6.28-12.14-5.78-16.76,3.78-15.68,2,1.63-4.79,3-11.83,3.23-9.31,1.35-9.31-6,1-3-11.56,4.05-14.84,2.69-22.13.53-17.11-1.06-21.39,3.23-8.54,1.06-10.82-4.59-5.27-3-5.27a113.21,113.21,0,0,1,17,1.76c8.66,1.51,17.55-1.26,22.69-.76s15.94,2.77,26.73,4.53,10.53-1.52,9.46-17.36.81-23.12-2.44-26.4-6.73-3-10.25-7.29-.82-10.57-8.37-12.84-16-.5-11.89-2,5.67-2,1.36-5.28-5.43-6.78-2.18-7.3,12.42-.5,12.42-.5.82,4.54,5.69,2.52,11.07-4,9.73-7.29-3.79-7.29-3-7.29,2.72,4.52,13,4.52,9.45-1.51,8.66-5.78,6.75-4,11.88-7.55-1.9-7.54-.8-10.81,7-5.29,17.54-6,8.64-2.53,7.57-3.78.27-6.55,1.07-13.33-.8-9.06,4.6-12.33,3.78-2,14.86-3,4.31-3.52,6.2-4,15.12-3.77,17.56-4.79,2.17-.74,0-5.54-5.13-7.53-7.55-29.66-1.9-22.13,11.6-26.16,10.54-2.76,9.45,9.56-7,12.33-8.37,21.38-.26,14.58,5.4,24.15,5.14,4.77,17.29,4.77,9.45,3,17.55,5.78,5.4-5,13.25-7.8,6.2,1.77,24.57-1c7-1,9.39-1.3,9.93-1.35-.56,0-2.57.06-.48-1.16,4.32-2.52,5.4-7,11.62-7.8s10.52,1.76,10.25-7.81-3.78-8-2.7-15.34,1.34-4,1.89-9.8-.8-6.79,7-8.8,2.43,7,11.87,9.05,8.11,3.52,9.74-3.77,6.76-16.86,2.15-16.35-5.67-.25-10.26-7-7.28-8.3-4.31-8.3,13-2.77,27.26-2.27,18.38,1.76,19.18.25-2.42-3,2.43-6,20.8,1.51,18.37-1.26-16.47-6.54-25.92-5-32.42,4.27-35.93,4-10-2.76-11.61-4.51-6.76-3-6.76-11.33,3-11.56-1.89-19.61,8.91-14.84,18.37-23.39,7-15.61,12.68-16.1,7.86-3.52,5.14-6.3S314,262.8,309.1,261.8s-12.14-6.54-19.71,6.54.54,14.33,1.9,21.13-10.54,11.82-19.46,18.1S259.7,312.36,257,328.45s-5.41,16.61,4.59,22.13,11.89,8.3,7.31,13.07-14.32,4.54-20.27,15.87-3.51,16.83-5.94,21.87-10,7.29-12.16,12.32-2.15,14.58-11.34,13.09-4-13.85-8.11-20.14-7.29-11.56-12.14-19.35-1.07-15.35-5.68-19.38-5.68-12.07-5.68-12.07L186,359.64c-1.62,3.78-.81,6-10,17.36s-23,12.06-29.72,9.3-5.66-9.3-5.66-17.61-1.63-19.37-.27-32.44,5.14-12.08,19.46-20.63,14.57-8.05,18.08-13.58,13.79-13.33,19.71-18.37,16.22-24.14,21.61-37.72,15.39-21.88,25.11-36.47,27-27.41,49.16-36.71,18.38-10.32,23.49-17.62,7.31-3,15.95-4.77,7.29,0-1.36,8.55-12.41,17.6-5.13,10.81,13-14.84,24.31-14.33,6.75,0,17.83,5,13,5.53,6.77,9.55-16.77,3-16.77,3a17.46,17.46,0,0,0,13.78,9.56c10.27,1.26,15.93-8.05,22.69-4.54s8.64,6-.55,5.29-11.87,5-.53,9,12.42,4.53,27.27,6.55,21.35,12.82,32.68,17.6,24.58.75,20.81,11.08,3,20.37-16.75,25.15-19.19-1.52-35.65-6.55a289.82,289.82,0,0,1-28.08-10.06A106.07,106.07,0,0,0,406.08,249c7.55,7,8.37,13.57,7.55,26.4s-4.32,16.35,8.65,22.63,11.08,4.53,15.12,3.53,10.8-2.27,9.18-4.29-3-5.77-7.29-7.78-4.59-6.8-.26-9.06,8.36,2,17.82,1.5,0-3.51,4.58-8.28,4.88-12.83,15.95-17.13,22.94,2,25.93-2.75,6.21-10.31,0-17.61-11.08-9.8-7.3-13.33,11.35-12.83,14.86-7.54,12.42,11.07,1.09,10-3.53,16.86,6.74,15.86,9.45-4.28,17.83-8.3,24.84-17.36,36.46-21.39,14-3,18.63-1,4.59,5.79,17.3,3.27,16.46-5.54,28.35-7.55-.81,4.28,4.58,6,5.95,3.28,10,.52,17-7.3,11.08-11.83-10.28-7.55-10.28-7.55a16.17,16.17,0,0,1,15.67-8.8c11.34.75,28.62,11.32,39.71,18.87s24.58,23.63,24.58,23.63,4.84-8.29.79-22.13-14.31-10.56-14.31-23.63-9.46-9.57-6.21-18.87,12.42-12.83,14.87-24.66,4.58-21.61,13-21.61,26.47,2.51,26.47,2.51,0,10.81-6.75,26.91,3.51,17.86,1.9,37.48-1.9,22.13,2.69,26.65,13.25,10.07,10,18.61-4.87,13.84-17,18.62-27.54,2-21.89,5.79A54,54,0,0,0,757.18,261c8.11,1.26,4.05-.5,10.53-5.78s21.08-15.85,20.54-20.89-8.38-12.82-3-16.6,7.55-9.55,15.93-4.77,16.48,22.64,16.48,21.88-1.62-17.61-11.61-27.65-26.47-.53-26.47-9.31,4.59-20.89,3.51-30.44-4.85-19.12,1.35-27.41S791,125.23,791,125.23a35.4,35.4,0,0,1,.54,17.59c-2.15,9.81,1.09,15.61,5.67,15.61s25.11.26,14.05-3-14.31-6.29-3.24-12.32,10.53-2,26.73,1.75,20,6.55,25.39,6.3,4.6-.76,2.7-5.54a21.49,21.49,0,0,0-9.45-11.32c-5.14-3.27-8.63.76-10.26-4.28s-4.59-17.61-6-22.38,4.06-1,12.69-1,32.14-1.26,50.25-1.76.27-19.36-1.09-32.7,33.5-13.83,50.5-16.34,36.74-1.75,68.6-9.31,11.36-6.29,15.94-15.34,12.43-10.56,21.88-10.56,18.11,1.75,14.6,3-14,6.53,2.42,10.07,12.17,3.25,3.51,6.28-1.34,8.55,15.39,8.55,6.76-1.51,4-7,2.45-3.53,16.22-1.26,19.18,4.54,26.74,11.57,8.9,5.29,11.6,15.1-.26,8.29-11.87,17.35-18.63,9.06-35.39,19.62-12.7,16.09-21.87,23.14-6.76,5,12.68,0,30-8.3,40-7.3,14.85,4.78,22.41,4.78-.54,1.26,23.24,1.26,20.23,0,11.6,6.79,1.62,8.81,12.16,8.81,23.49.5,33.21-1,1.36-8.8,13-9.31,15.39-1.51,27.81-1.51,8.65,5,13,9.56,10.26,7.54,6.21,16.6-6.21,9.3-3.79,21.62,8.66,14.08,16.22,16.35,7.55-11,14.85-15.59,8.92,9.05,17.29,7,17.83-1,25.12,1.25,13.5,3.54,23.77,1.27,7-6.28,3.51-12.57-3.79-5.8,2.7-12.33,10.8-3.28,31.87,2.26,14.32,5.53,26.19,8.81,8.11,2.52,26.2,10.81,14.6,18.11,23,23.38,8.91,0,25.67-1.49,16.47,2,34.84,6.79,13.48,10.81,13.48,16.1-5.11,9.31,6.23,11.82,15.93,4.77,25.66,2.26,1.08,2.51,22.69,2.76,14.31-2.51,20.8,2,8.1,13.58,18.63,12.58,9.72-.76,5.4-10.07-7-10.83-.81-10.56,18.91,3,42.39,6.79,24.31,8,43.51,20.12,24.55,13.08,38.61,23.89c5.36,4.12,6.41,5.31,6.53,5.62.36,0,1.85.43,7.26,2.93,15.1,7,12.42,4.79,25.38,11.07a147.1,147.1,0,0,1,24,15.09S1864.55,326.94,1854.83,328ZM594.69,583.58s-1.44,1.92,6.13-4.12-3.53-.25-7.85-1.51-5.68-3.28-4.31-8.8-.55-5.54-5.14-12.83c0,0-2.44-1.5-7.55,1.5s-8.1-3-14.32-.74-13,1.25-16.76,10.56-8.1,3.27-9.44,10.81-13,11.56-13,11.56,4.61,4.54,8.11,8.81,1.09,1.52,4.59,15.61,6,12.82,10.82,14.83a106.59,106.59,0,0,1,12.42,6.8s-4.59-2.78-4.59,4.77-7.3,12.83-6.49,23.89-10,21.38-1.34,22.4,5.93,4.77,15.38,7.29,14.85,4.27,28.64,4.27,6.2-5.28,4.31-13.08a106.33,106.33,0,0,1-3.5-21.38c-.55-8.54-3.79-6.29-6-11.56s1.08-8.31,7.55-8.31,7.32-.25,3.79-6-1.33-8.05-5.69-10.57-6.19,8.31-6.19,8.31-2.7-2.52-1.62-13.09,1.89-5.53-1.34-7.55-5.15.5-9.47-6.53-.53-5.53-5.66-14.08-2.45-4,3.23-4,2.7-1.25,0-4-4.58-7,2.7-6.54,16.75,2,20.25,2.27S594.69,583.58,594.69,583.58ZM-412.95,196c-2.49,4.3,4.23,9.81,9.09,8.1s6.46.19,9.23-2,3-5.45-.26-8.64-2-5.06-2.51-5.41C-403.61,184.26-410.45,191.75-412.95,196ZM922.22-81.27c-7.31.25-15.42.51-8.65,2.77s4,13.58,17,7.29S940.85-78,949.76-81.78s3.76-2-7-4.77C936-88.31,929.51-81.52,922.22-81.27Z"/></g></g></svg>