<svg id="Layer_1" data-name="Layer 1" xmlns="http://www.w3.org/2000/svg" xmlns:xlink="http://www.w3.org/1999/xlink" viewBox="0 0 954.83 1730"><defs><style>.cls-1{fill:none;}.cls-2{opacity:0.16;}.cls-3{clip-path:url(#clip-path);}.cls-4{fill:#1c1e26;}</style><clipPath id="clip-path"><rect class="cls-1" y="-336" width="954.83" height="2066"/></clipPath></defs><title>splash_bg</title><g class="cls-2"><g class="cls-3"><path class="cls-4" d="M25,445.41c6.62,0,7.43,2.39,13.11,0s22.42-13.45,28.1-15,9.3.5.94,5.16S42,450.32,45,449.56s11.47-4.39,23.5-10.06,10.92-3.14,14-9.17,4.74-9.19,4.74-9.19,19,19.49,20.79,20.25,2.45-.13,3.38-2.51,3-5.8,5.68-4.66.39,5.78,2,6.41,4.32-.12,9.32-1.75,2.43-5.28,2.43-5.28-.53-.14,5.27-.64,24,6.16,29.44,8.3,21.75,3.91,26.35,5.4,6.32-2.63,12.69.76,11.08,7.92,6.34,10.31-16.61,4.16-10.53,5.66,15.27,3.41,24,3.15S249,463,253.88,463s7.83,3,12.43,10.68,8.23,10.69,10,11.32-1.75-3.65-.82-7.42-.93-11.2-2-13.7,0-3.78-2.16-7.44-5.66-3,.82-6.15,10.94-7.79,18.78-6.79,10,11,16.74,11.68,8,3.4,19.58,4.29,6.75.13,19.72,1,8.24-1.4,10.93-8.05,5.68-7.93,8.78-7.67,14,1.76,14,3.15-4.58,8.53-2.29,12.06S390,469.31,390,469.31s-2-8.05-2-8.93-.68-7.16.68-8.3,9,.63,13.9-8.81-3.25-8.93-3.25-8.93-3,.14-1.49-3.77S408,424.29,408,424.29s.55,1.76-.55-1.4-6.73-2.5-12.82-2.88-10.25-1.25-11.34-6.41-1.48-16-1.48-23.4,6-4.78,7-8.92-.27-24.39-1.74-28.55,2.15-13.08,3-19,6.87-3.27,6.87-3.27c-1.08-2,1.75-7.67,9.86-10.06s23.51.12,23.51.12-1.37.13-5.14,5-1.34,13.6-7,19.75S398,349.47,398,349.47s4.45,10.18,2.56,13.44-3.1,9.95-3.1,9.95,12.69,3.51,13.37,11.56,7,9.43,8.5,16.85-6.21,13.58-4.59,14.71,2.16,1.64,6.76,1.89,10.8,1.13,10.8,1.13a7.73,7.73,0,0,0-.27,7.8c2.3,4,.54,6.54.8,10.82s2.84,7.92,3.91,7.17,6.09-11.71,7.17-16.6,1.89-7.55,4-7.55,9.46,6.67,10.27,9.06,1.35,5.66-2.7,12.19-3.64,9.56-.13,12.08,3.65,1.77,10,4.78,5.14,2.76,9.05,1.63-1.63-11.07-1.23-11.32,9.34-1.26,7.32-6.29-4.07-7.54.12-10.06,7.16-4.52,7.16-4.52c-1.76-3.15-2.3-3.4-5.26-11.83s2.55-6.15,14.19-5.28,12.13,4.9,18.35,8.05,2.29,4.27,4.31,9.31-5.13,5.78-5.13,5.78-4.72.88-3.64,4.77,3.24,8.55,6.62,14.6-.94,10.18-6.22,15.09-11.48,6.29-17.68,6.41-8.92,2.64-9.31.88-3.39-3.4-6.75-2.64-11.09,3.78-8.39,4.78,9.86.76,6.89,6.29-5.54,5.53-11.48,4.9-11.47-.63-15.27-.89L426.59,487s12.59,7.68,22.57,10.82,20.53,1.26,20.53,1.26-4.06,7.54-8.93,15.59-9.45,4.54-13.49,5-6.49,3.77-14,4.77-23.37-2.14-21-1,3.52,3.14,7.84,3.78,7,1.37,10.8,4.52-2.43,3.91-7.42,4.77-6.35,1.77-8.64,4.91S404,556.83,401.35,560.61s-5.13,10-6.21,17.47-7.42,16.35-4.59,18.24,13.49,2.14,18,4.91,9.46,16.35,12.82,21.5,6.08,9.06,9.86,5,11.22-3,18.23-.5,21.34,12.45,25.81,16.84,12.27,3.66,21,4.92,9.77,4.56,9.77,4.56,9.14.47,5.37,4.37-4.87.11-1.1,6.66S514,680,512.9,684.35s12.1,2.19,17.65,5.45,5.84,16.57,8.69,14.93,7.55-4.54,8.09-8.05-.13-8.17-.67-14.21-2-17.12-5-21.51,5.36-6.16,4-8.05-1-5.65,4.64-7.17,6.08-.12,9.18-2.52,3.65-13.57,4.18-17.59-.94-12.71-2.28-16-6.9-13.72-8.9-16-4.6-2.9.95-9.94,2.28-5.54,1.47-7.67-2-7.42-3.1-12.2,2.29-10.07.26-16.86-4.18-5.27-3.77-6.79,13.22-1.13,22.69-.12,13.22-1,15.92-1,7.57,2.65,12.83,6,7.29,2.51,10,6.66,4.18,6.41,9.7,6.16,11.51,2.39,11.51,2.39S627,562.62,627.7,570s-.82,12.82-.69,15.84,1.64,3.15,4.18,3.53,9.47,6.53,16.61,9.05,9.05,1.76,11.34-4,2.85-5.28,5.69-5.65,3.77.63,5-.63-2.16-3.77-1.35-7.79,4.72-9.31,8-12.33,5.53,3,8.37,8.56S697.5,600.1,700.34,606s6.48,6.29,3.1,11.84-5,7.9.27,10.42,10,6.92,9.61,11.07-1.51,4.27.26,5.41,8.1-2.27,12.69-.25,10.12,3.91,13.37,7.16,3,4.41-1.62,6-9.19,3.27-11.49,4.65-5.93,4-5.8,6.17-1,5.66,2.7,2.89a48.81,48.81,0,0,1,13.91-6.79c4.32-1.25,1.08-.13,5-.63s7.69,1.89,13.11,3.39,3.9,4.91,2.55,8-2.55,6.15-.4,9.69-.94,6.66-5.68,10.94S743.69,701,736,702s-11.37,5.65-16.76,10.68-8.09,3.77-15.93,4.15-4.73-3.89-7.15-3-5.53,3.52-10.53,4-21.9.75-28.38,2.64-4.44,6.28-6.07,9.93-4.19,2.13-9,3.77S631.46,743,625.8,752.77a61.06,61.06,0,0,1-13.37,15.84c1.61-.38,9.59-5.28,13.5-10.07s20.25-16.09,25.25-19.6S667,730.26,669.54,731s8.93,5.66,8.93,8.18-1.9,4.52-6.48,8.79-10.68,0-10.27,1.76,3.64,5.78,7.15,6.66,3.37,5.17,3.37,7.31-2,4.9,6.07,11.69,13.79,7.29,19.74,6.91,2.82,2,5.26,1.77,3-4.9,3.77-8.68,2.18-7.29,4.33-8.93,3.77-4.65,4.46,1.14-2.43,13.7-5.56,15.46-2.41,4-2.41,5.78-3.51,1.89-11.89,6.55-11.07,5.78-12.56,5.15-4.59.76-8.63,4.41-8.37,8.56-11.34,8.41-5.54-1.37-1.49-5.53,5.41-9.93,9.45-12,5.94-1.75,9.32-1.75,1.76-2,4.45-4-2-1.4-6.62-2.14-1.07-4.79-1.07-4.79l-4.74,2.52s-7.15,3.77-9,4-1.47,1.5-2,2.26-7.3,1.26-7.3,1.26-3.51,7.16-8.78,8.17-1.6.63-5.4,2.26-3.09-1.88-3.91-.88-1.49,1.9-5.67,5-6.63,4.16-9.59,15.6.53,15.59.4,17.36-5.27-1.14-6.74.24-4.88,5.66-9.33,6.92-13.23,3.53-15.26,5.67-2.16,5.15-3.11,9.54-6.21,14.73-6.21,14.73a7.12,7.12,0,0,0-2.44-7.18c-3.64-3-3.08-5.78-3.08-5.78a18.8,18.8,0,0,0,.53,8.42c1.37,4.27,4,8.56,2.84,13.2s-3.53,10.45-6.34,12.08.66-3.15.66-6.91-1.88-4-3.11-5.9-1.22-6.68.94-13.1-2-2.51-4.45,1.77-4.17,12.19-.41,17.36-2.42,4.64.15,12.06S563,915,564.06,916.13s4.07-.5,5.42,3.13-2.7,2-4.05,3-.69,2.39.13,4.41,2.44.73,1.76,1.37a14.58,14.58,0,0,1-6.08,4.28c-3.5,1.13-3.79-.64-6,1.89s-3.76,4.77-6.07,7.66-3.9,1.89-6.34,3.9-3.37,3.65-6.36,6.16-9.71,6.42-13.36,11.32-2.71,6.16-4.46,14.09,4.46,21.76,8.38,34.84,5.53,9.43,5,13.57-2.3,9.18-5.15,12.08-4.42-2-8.34-4.92-.82-4.89-4.6-10.92-3.51-8.18-3.92-12.59S509,998.75,507,994s-6.36-10.83-12.83-8.43-4.86,1.26-8.37.24-12.83-4.76-17.56-2.26-19.7-.76-22.82,0-5.42,1-5.42,3.16-1.33,2.5,4.2,4,4.73,3.14,4.34,5.53-4.48-1.26-6.64-2.14-4.18,1.76-8,1.76-4.46-3.65-7.84-4.14-4.73,0-8-1.26-7.55-3.4-11.34-3.15-18.37,9.94-25.26,15.09-12.15,10.19-13.76,14.33-1.77,4.54,3.78,10.7,3,5.17,1.89,8.68-4.33,7.79-8.23,16.85-1.63,13.45,3.08,22.13,8.93,15,12.71,18.61,6.47,7.55,9.72,8.93,3.91,1.89,5.41,3.39,1.08,2.14,6.22.76,8.89-3.39,12.55-3.39,7,.12,9.05,2,2.29.76,2.29-.27,1.61-4.77,2.16-5.78,5.4-7.92,6.21-11.69.81-11.33,5.55-11.83,14.84-2.88,24-2.26,5.13,5.16,2.7,9.93-3.39,5.29-3.39,8.93,1.09,3.66-1.87,5.8-1.09-1.26-2.3.87-5.53,5.16-5,4.66,1.89,3.63,1.89,5.65-.4,3-.4,7.93-9.6,9.93-9.6,9.93a18.85,18.85,0,0,0,8.65,2c5.14,0,11.34,0,16.74,2.51s15.66-2,23.24,1.76,4.86,6,5.39,9.56,1.35,15.59.83,18.36-4.08,10.55-6,16.1,5.4,9.56,12.17,14.08a56.46,56.46,0,0,0,16.2,7.54c3.48,1,10-5.28,21.88-4.53a18.73,18.73,0,0,1,15.92,10.82s1.35-6.29,6.76-14.84,5.66-11.07,13-13.83,9.74-3.27,21.62-7,9.71-1,15.91-.5,20.54,1.76,34.86,6,36.21,5.53,44.57,9,12.15,13.34,20.8,21.38,19.44,15.34,24,19.12,30.26,7.3,35.93,9.56,13.5,11.56,14,17.09,6.21,8.3,14,11.57,10.27,7.05,15.41,17.11,3.51,12.82,10.52,15.34,55.66,15.59,67.79,20.38,27.56,17.6,31.61,19.11,11.35-1.27,14.59.5-1.9,11.32,2.16,18.11,4.32,7.3,1.89,12.32-12.16,17.11-15.92,23.15-11.9,9.8-16.48,12.33-8.66,0-4.6,5,.27,9.29-3.24,13.83.27,4-.82,18.62,0,30.42-1.63,36.71-11-5.53-21.87,8.05-13.76,23.89-20.24,25.4-21.61,9.06-26.74,13.83-6.21,6.54-9.46,13.58-6.48,21.38-10,30.19-9.18,13.83-22.15,25.65-18.64,23.9-27,33.21-6.21,7.27-8,9c-4.47,4.49-22.9-7.24-18.14-.74,3.52,4.77-2,0,1,4.51s5.14,6.29-1.34,14.34-14,6.46-19.1,7.72-12.79-5.28-13.32-2-3.5,11.4-7.56,13.41-14.85,5-14.57,6.29c5.1,23.83,15.59,26.31,4.49,25.22-30.46-3-8.73-10.2-29.9,34.13-3.23,6.8-6.47,3.27-5.94,11.32s0,14.09,4.33,19.12,1.35,4.77-5.94,11.57-7.84,5.79-14.58,16.1-13.25,9.8-10.82,17.61,3,19.36,7,30.93,12.42,9.54,25.66,17.61,14.85,3.76,21.33,5.78S680.62,1870,669,1872s-19.16,4.28-27.27,2.53-27.26-12.83-33.76-17.62-17-13.32-20.79-21.62-6.48-16.6-11.34-27.92-1.36-18.37.81-43.27,3.79-44.26,7.29-57.58,14.32-72.69,17.28-88S618,1540.76,619,1531a235.67,235.67,0,0,1,4.05-27.17c2.16-9.8.82-29.68.82-30.68s-.82-1.75-3.8-11.06-7.83-13.09-14.57-17.1-13.78-9.06-19.18-12.84a81.86,81.86,0,0,1-17.28-15.84c-5.42-6.79-10.55-20.62-13.24-26.42s-12.7-25.38-21.88-39-9.72-13.84-14.31-28.18,4-14.58,5.67-22.64,7-16.1,13-27.4,13.77-14.59,18.37-24.65,1.08-10.07-.55-19.88.55-8.28-2.45-13.58-4.57-11.8-7.28-13.57-6.74-3-9.17-.25-6.76,10.8-9.46,11.31-3.78-2.52-5.4-4.28-9.45-1.76-11.08-3.52-5.66-2-8.35-3.26-13.26-6.81-16.22-9.31a21.52,21.52,0,0,1-6.75-15.09c0-6.53-5.66-9.06-18.36-18.11s-18.1-10.32-33.5-14.09-21.6-14.59-26.74-17.6-4.59-6.29-15.94-5-25.11-5-33.77-8.54-24-6-30.52-10.31-17.8-5.8-22.67-16.1-4.06-6.29-2.16-15.34-11.08-16.6-18.92-25.15-13.77-9.81-17.82-20.38-10-10.06-17.82-17.61-8.11-17.11-11.35-25.65-24.83-20.88-24.83-20.88,5.65,14.34,8.09,20.13,8.09,19.61,14.59,29.93,12.16,12.82,18.09,23.13.28,16.6-1.9,12.59-10.8-5.8-10.8-10.57-2.15-7.8-4.05-11.57-10.26-8.06-18.37-14.6-13.76-9.55-8.64-9.55S215,1006,213.64,1003s-10.54-12.32-14.86-18.87-5.69-13.83-10-24.9-20.24-21.63-28.09-22.38-10-4.52-12.68-12.57-3.24-16.6-6.76-22.89S122.61,874,122.35,866s-4.6-31.44.81-44.53,4-42.24,3.24-48-10.55-16.83-10.55-21.12,5.69-1.76,10-.51,13.49,5,13.49,5-7-13.07-11.33-17.59-17-10.32-22.69-11.58-13-3.27-15.93-8S83.19,708.5,81,704.47s-11.35-8.79-13.49-13.08-1.63-12.57-4.6-16.84-7.3-6.8-12.17-5S44.3,667,40.51,660.7s-12.15-9.3-14.59-10.05-10.79-11.82-11.34-14.59S.8,618.7-3.51,615.69s-46.19-16.6-47.26-16.6-13.25,1.76-16.48.76-14.32-10.57-20-12.58-9.75,2.26-12.43,8.55-15.95,17.1-23.24,21.87-13.24,5.3-12.71,2.78.28-6.54,2.72-12.58,3.78-7.79,11.33-11.57,7.29-4,4.33-3.78-5.14-.49.81-4,8.37-4,8.1-7-13,4-21.08,10.57-12.94,11.06-20,22.63.81,7.29-5.14,14.84-26.19,22.89-32.13,28.68-30.52,18.6-40.52,21.63-14,4.27-18.91,8.3-17,5.27-13,2.52,11.61-9.08,16.75-12.09,18.9-8.55,23-10,15.39-8.56,21.08-14.84,9.45-13.58,13.23-19.61,4.59-8.81-3.23-6.3-15.95,1.51-20,0-14.59,4.78-18.37,2,.27-8.56-2.17-11.33-10.79-1-16.2-2-13-5.28-13-12.83-5.4-14.08-2.45-19.86,7.32-7.31,12.16-10.56,18.36-7.55,21.07-7.55,6.49-2.77,8.91-5.28-5.67-11.58-5.67-11.58,1.35-1,4.59-3,.82-6.28-4.87-5.53-17.82,6.55-25.38,8.55-17.81.76-17.55-2.51,1.89-5.28-.81-7.8-4.87-5.28-2.16-6.53,19.45-10.57,19.45-10.57,5.94,6.53,12.42,7.29S-218,517.35-218,517.35c-8.63-5.28-6.74-6.79-6.74-6.79s-14.05-.25-17.29-2.27-4.32-6-5.13-9.55-14.58-6.29-10.79-12.08,10.79-7.79,15.39-13.58,8.64-16.61,21.88-22.64,29.17-11.56,36.19-16.6,10.26-.24,13,.5,19.45-.74,25.92-.74,7.56,7.28,9.72,9,59.16,3.53,59.16,3.53,48.32.76,58.06,3.52S8.63,459.75,8.63,459.75C19.31,458.37,18.37,445.41,25,445.41ZM674.41,153.66s-4.87,20.12-24.3,25.66S595,200.44,593.38,201.45s2.16,12.06,7,17.59,9.45,9.31,13.77,14.85,11.89,5,17.84,10.81,10.24,3.77,26.46,4,11.89,1.51,30,2.52,37,2.51,43.21,8.05,15.12,27.16,20.8,40.24,15.67,34.7,15.67,36.72-6.22,17.86-6.22,20.37,3.24,6.79,6.22,10.31,1.34,6.29.79,9.55,3.25,11.58,3.79,12.59,8.63-8.05,13.78-9.56,17.83,9.06,17.83,16.35c0,16.53,4.5,10.9-22.42,30.43-3.55,2.58-7,22.38-4.32,31.93s9.18,20.88,14.31,34.47,20.26,32.69,25.11,41.5,6.22,20.87,17,23.65,21.07,6.53,28.9,8.29,13,4.27,16.74-3,11.35-35,17.57-55.08-.55-26.16,14-30.68,37.8-13.59,44-16.35,5.14-22.63,18.92-29.19,15.66-6,29.16-10.3,32.42-12.83,45.93-22.39,17.27-4.52,22.14-13.33-4.87-21.64-5.94-34.71,4.33-13.83,7-25.66,4.06-19.61,14.59-27.66,16.2-12.57,14.32-20.12-7.29-18.86-7.29-27.16,1.89-3.52-2.43-15.08-4.32-13.09-.29-23.9,14.87-8,14.06-12.84-17.29-12.06-17.55-25.4,3-17.35,5.67-20.62,30.25-25.15,32.14-27.17-.53-7.54,13-14.08,18.09-10.81,23.22-12.83,13.24-1.75-2.43-6.29-19.17-6.53-29.44-5.27-13.76,7-32.14,8.81-39.17,10.31-39.17,10.31,6.22-5.54.82-10.83,14-22.64,17.3-24.65-25.4-9.05-40.27-11.81-44-11.57-60.76-10.33-41.32,1-49.7,3.78-7.28,13.58-16.74,14.09-27-5.53-40.51-3.52-35.13,11.32-37.55,11.82,8.38,7,15.4,8.55,16.2,16.1,16.2,16.1S844,93,824.85,87.76s-41.61,0-49.43,2.27-18.1,6.53-33.76,7.28-33.48,13.59-42.4,19.62-36.73,22.13-43.76,25.91-4.32,5.53,3.25,7.55S674.41,153.66,674.41,153.66ZM274.14,361.58c2.15,9.21,2.15,22.46-2.89,16.76s-9.18-17.27-17.28-12.58-16.92,3.37-15.48,2.36-.18-6-4.34-7.55-6.65.84-11,3.36-18,5.86-12.43,1.49,3.78-6.69,1.79-11.73-16.2,3.52-23.77,8.9-12.05,13.57-16.56,19.1-1.26,9.07,5.58,11.07,17.83,3.36,8.64,6.72-16.2,5.69-11.51,8.55,12.78,3.35,20.88,2.34,14.95-3.17,27.92.34,20.69,3.35,20.69,3.35-4.85,3-13.5,4.53-24.49,0-32.6,1.5-20.88,3.68-17.63,6.71,5.75,7.71,16.92,11.23,13.15.18,19.8,1.84,3.08,9.23,4.87,10.4,14.41-1,27-3.34,7.92-4.37,17.84-6.89,10.24-10.05,16-11.73,1.63,3.86,8.46,5.53,3.06,2.19,10.45,3.36,5.93,4,13.14,3.51,15.66-5.35,14.58-6.2-2.16-3-1.42-6.37-7.23.67-10.1,2.35-2.69-4.53,3.41-7.55,11.56,0,15.14,0,.37-10.4-6.13-12.06-9.35-5.71-19.09-11.07-4.68-7.72-7.55-14.75-9-27.85-14.42-31.53-11.16-2.69-16.55-6.37C273.06,347.16,272,352.35,274.14,361.58ZM124.69,347.33c2.35,6.69,2.69,2.5-2,9.88s-2,10.07-5.23,15.6-11.87,12.92-9.18,16.6,11.34,5.86,15,8.71,7.2,8.72,13.67,6.55,8.64-3.7,13.15-6.05,8.29-5,8.1-10.9-.35-8.7,1.46-8.2,4.67,3.18,6.11-.68,4-8.88,7-11.9,11.87-6,16-9.55S200,350,201.93,347s-3.61-5.37-7-6.72-7.37-6.7-15.31-6.7-12.24,6-11.88,3.35-5.4-4-8.63-5.2-6.31-3-16.58-1.84-14.54,1.85-22.69,4.19C112.8,336.08,122.35,340.61,124.69,347.33Zm234.43,80.31c-1.06,1.5-5.75,3-8.63,6.37s6.12,1.52,9,2.51,5,3.85,7.39,4.71S381.82,442.56,387,440s5.75-3.35,5.21-4.51-10.79-11.24-18.37-15.27-7.74-4.18-9.35-3.18S360.2,426.12,359.12,427.64Zm-34-78.47c-4.88,2.43-8.43,5.35-.16,9.56s11,7.71,16.56,11.23,7.92,13.58,19.63,9.06,16.38-9.89,18-14.59-1.64-5.7-4.51-10.07-3.6-6.2-9.55-5.54-7.93.68-7.93.68a33.45,33.45,0,0,1,10.45-8.22c6.48-3.19,1.07-5.36,4.13-8.38s-7.73-4.52-12.41-3.36-4.86-.33-12.61-.66-20,6.7-19.45,9.21,6.31,1.52,11.71,4.54,7,2.68,1.62,11.23-8.28-2-10.08-3.36S330.14,346.65,325.08,349.17Zm-34.55-15.43c-8.09.77-10.82,6.37-7.74,7.21s5-.84,9.89,4.36,9.19,8.05,11.16-.5S303,332.56,290.53,333.74Zm-130-64.9c-9,7.22-10.79,12.92-17.81,17.46s-5.41,8.38-3.06,10.87,9.35-.15,12.6-1.82,5.93-5.87,7.92-3.35,10.27-8.55,13.51-12.26,8.27-7.54,9.19-7.36-3.09,4.36-1.63,7.87,7.91,3.7,13.68-2.33.55-11.58,5.05-16.27,8.27-4-.54-8.23-14.41.51-16.22,2.69S178.17,254.76,160.51,268.84Zm54.92,11.41c-5.11.24-7.38,1-15.84,4.69s-12.06,13.26-14,18.46.89,5.2,8.65,8.21,18.54-.83,21.05-8.05,5.6,1.68,4.16,5.37,5.4.33,8.64-1.36,12.95-2.33,13.68-2.33-7.92,6.54-16.4,9.39a118.88,118.88,0,0,1-17.64,4.69c-2.34.34,2.18,3.86,12.06,5.88s15.85-6.05,30.09-11.41,13.5-6.38,18.18-5,9.72-2.35,15.48-3.7,8.1.85,10.64-7.71,7-16.76-1.09-17.27-8.65-.5-9.73,8.72-1.8,3.53-1.8,3.53-5.41-8.05-8.65-12.25-5.58-10.73-9.18-14.25-5.22,1.51-10.8,7.71-1.08,8.55,4.5,11.24,9.55,9.56,6.85,11.4-5.77-.34-16,.84-9.9-3.18-12.79-4.52,4.86-4.2-6.14-8.72S219.05,280.08,215.43,280.25ZM182.12,289c1.14-2-13.66,8.72-15.92,12.15s2.26,2.85,6.76,2.68S178.36,295.43,182.12,289Zm28.46-22.23c-3.7,1.67-3.7,2.94,2.33,3.6s9.56-2,8.29-4.52S213.55,265.41,210.58,266.75Zm30.7-31.84c-4,.65-15.66,4.77-16.31,6.77s.11,6.37,1.9,9.82,2.45,3.94,12.51,1.25,17-7.88,13.68-8.81-5.38-2.43-8.35-2.83,2.6-2,9.26-4.11S262.89,231.29,241.28,234.91Zm-34.12,5.27c-2.85,1.31-3.88,1.33,2.07,3.61s12.34,2.09,11.52.25S215.17,236.48,207.16,240.18Zm23.22-16.52c-5.63,2.22-6.91,6.29-8.18,7.88s6.38-1.17,9.89-2,4.32,1.25,7.75-1.77,10.18.1,16.3-1.26,7.1-5.35,5.76-8.87S246.5,217.29,230.38,223.66Zm61,15.18c-1.66.79-1.08,3.43.37,6.54s1.8,2.34,4.85,3.52a23.33,23.33,0,0,1,6.84,4.35c.74.76,1.17,1,2.44-2s-.63-2.52-4.05-6.55S295.75,236.74,291.42,238.84Zm20.8,26.32c-4.66-1.27-7.29,1.43-9,2.26s.9,2.76,2.08,6.36.18,4.8,7,5.3,8.91-.76,9.45-5.12S316.55,266.34,312.22,265.16Zm26.56,7.89c-4.23-3.11-6.3-5.63-10.62-3.86s-.73,3.93-.73,5.12,5.23-.17,5.32,2.68,1.7,4-4.59,4.36-8,.08-10.45,1.92,4.69-.25,6.85,2.6,5.85,3.18,11.87,2.27,14.23-2.27,14.23-2.27-4.41,4.18-6.21,7.12-2.52,7.13.63,9.22,3.51-2.16,12.25-2.34,11.34-4.69,11.34-4.69-2-1.94-1.71-6.29-.09-5.37-.09-5.37a36.58,36.58,0,0,1,4.32,3.53s-.63-2.6-1.89-7.31-.26-5-1.63-11.4-1.08-7.71-7.64-7.55-11.08,2.45-16.5,2.45-7.74,1-3.76,3,4.51,4.44,6.39,6.7,1.53,7.72,1.62,7.47S338.78,273.05,338.78,273.05Zm-32.86,23.89a2.49,2.49,0,0,0-.29.11c-2.74,1.36-3.68,4.4-3.86,6.51s3.61.92,9.64-1.17S314.48,294.18,305.92,296.94Zm85-11.4A44.06,44.06,0,0,0,379,295.18c-2.88,3.27-.36,3.68,7.11,7.46s15.48,4.52,19,.58S403.51,278.65,390.91,285.54Zm34.74-29.26c-9.58,1-6.61,2.38-17.69-1.26s-25-4-28.76-4-2,1.77,1.9,8.2,5,8.67,13.1,6.65,14.71-3.39,20.66,5.15,9.05,11.21,4.18,14.34-2.58,8.17.27,14.73,9.31,6.27,18.37,6.27,66.3-.87,75.22-2.51,16.87-9.18,21.61-12.57,7.29-8.68.81-12.59-15.67-7.54-23-7.54-13.51,3.78-24.58,4.9-8.64,6.43-18.63,6.68-5.15,4.65-17.43-.38S430.38,271,436.21,270.1s10.52-1.63,7.28-4.39S434.57,255.39,425.65,256.28ZM311.14,209.5c5.94,2,7.44,3.51.81,5.27s-11.75,6.41-5.13,5.53,12.29.63,20.79,2,7.83.5,11.61,5.29,7.84,4.77,13.66,3.39,6.6-1.77,2.84-5.92-7.71-11.81-12.84-14.83-9.45-7.31-14.59-6.78-6.34.61-10.81-5.42-8-3.16-14.45-1.52-8.55,6.27-11.06,8.31C286.84,209,305.21,207.48,311.14,209.5Zm77.8-61.63c-7,8.8-12.71,16.22-4.75,17.1s11.48-.63,12,1.9-1.36,4.26-13.24,4.26-8.23,2.65-1.62,10.44,7.31,5.15,17.42,4.91,13.5-3.91,21.89-1.75S431.6,189,424,191.26s-25.4,6.53-21.34,10.31,16.61,12.82,22.29,13.71,6.87-3.77,19.17-2.4,9.32,2.65,10.67-.75,8.11-12.06,9.45-15.22,4.73-5.15,11.48-6.66,8.92-3.64,2.57-5.91-13.51-3.27-12.83-5,4.6-6.93,1.88-9.58-7-2.51-10.53-3.89-7.43-7.79-11.89-10.56-8.36-3-13.77-7.17-14-14.27-24.84-13.7C399.07,134.79,395.94,139.06,388.94,147.87Zm-13.8,73.57c-2.69,1.38-9.44,1.63-4.44,5.77s3.65,4.29,10,1.9S396.22,220.8,397,219s-6.36-5.15-11.22-6.66-8.23-5.4-18.37-8.18C352.72,200.19,377.85,220,375.14,221.44ZM705.55,90.62c-11.16-3-51.13-10.75-64.09-7.73s-12.26-6.7-30.26-4.35-45.72,1-54.37,2.34,4.31,5,9,8.05S543.51,85.58,523,91.28s-33.85,8.72-11.86,17.1S536,119.11,536,119.11s-28.1-5-40-9.72-5.39-4.36-27.74,2-43.92,9.73-42.84,16.43,18,15.77,29.16,18.11,34.22-3.35,36-4-9,9.06-9,9.06,11.51-2.35,24.48-5.71,23.05-7,35.3-11.4,14.4-5.7,14.4-5.7-21.24,16.45-36,22.14-33.86,9.4-42.85,9.73-7.58,6,1.44,10.74,15.83,14.74,20.52,18.09a14.15,14.15,0,0,1,5.41,8.73s-14.05-11.07-29.53,0-13.34,16.76-9.37,18.11,17.64,2.68,20.16,7.37,20.53-4.36,20.53-4.36-9,11.4-17.64,11.4-8.28-7.37-20.89-6-11.89,4.37-6.47,8.71,9.72,5.72.36,10.07-13.7,5.7-14.05,11.07,12.24,5.37,20.16,5.37,15.48-.69,29.9-1,12.6-5,18-5,10.8,1.68,8.64,7,2.15,2,18-3.68,8.63-14.44,7.57-17.44-6.85-4-10.45-5.7S550,217,547.82,212s17.66-1,26.65-12.76,5.77-20.46-.72-22.46,11.9-.67,17.65-4,18.38-7.36,23.41-13.74,6.84-8.72-5.39-7.37,17.62-5.37,32-14.77,31-20.45,34.56-23.13,6.87-1.36-10.08-.33-37.09-1.35-25.92-2.69,44.3-5.36,53-11.73S705.55,90.62,705.55,90.62ZM503.9,323.34c-18-1.68-44.29-6-49.7,9.38s-13.68,49.66-14.41,56,21.62,15.76,37.1,16.43,40.7,1.67,35.65-2-.72-5.7,13.68-5,15.85-3,15.85-6,2.52,3.68,12.6,9.05,18.74,20.47,27.74,29.19,29.16,20.44,25.21,27.16S611.93,487.68,581,493s-32.76,1.67-32.39,8.72,1.78,10.06,14,10.06,29.18-10.06,34.94-2.69,13.67,10.06,18.73,11.75-6.12,4.67-9,5.7,6.13,2,23.77,10.38,38.89,9.4,28.44,3.36S644,523.23,639.3,519.52s-.36-.66,7.93,1.36,15.84,8.71,19.44,11.73,5.4-1,7.92-12.76-1.07-11.73-15.13-21.11S641.1,482,639.65,475.26s7.21-8.05,10.82-12.76,13.69,8.4,20.53,16.1,12.59,21.14,18,11.42,10.43-31.53,10.43-36.56-5.39.33-28.43-11.07-34.94-15.76-37.09-15.76,6.11-4.35,16.2-9.39,14.4-4.35-7.22-24.81-27.72-24.82-41.77-26.16-18-16.1-28.08-21.13-33.49,6-40.35,7.72-4.67,4.35-13.32-8.05S503.9,323.34,503.9,323.34Zm16.2,0c-9,1.07,5.4,17.43,16.92,18.12s21.25-5,23.77-5.71S534.14,321.66,520.1,323.34ZM479.68,489.67c-1.51,3.66-5.14,13.85-5.68,20.64s-1.62,7.79-3,12.06,4.33-.75,8.11,5.53,2.14,8.05,8.91.76,14.32-9.8,23.76-6.79,16.75,4.28,13.51-1.49-7.56-5.3-14.05-13.09-11.34-9.81-19.43-12.83S482.91,481.88,479.68,489.67Zm67.95,587.63c-2.79-5.81-7-15.24-24.49-18.5s-23.43,3.26-29.9,5.44,6,3.25,14.38,0,14.67-.7,15.81.8-2.81,2.41-4.22.82-1.7,3.9,7.71,7.3,11.71,5,12.66,9.06.87,6.2,3,9.57,2.95,4.8-1,6.27-2.57,1.28.34,3.09a38.69,38.69,0,0,0,17,5.48c8.23.7,10.95,2.23,5.22-5.29S548.51,1079.13,547.63,1077.3Zm26.16,36.84c4.56,4.67,3.24,9.76,2.92,12.44s-5.24.6-14.28-1.78-7.66-1.23.2,3,12.94,3.21,12.6,8.86,7.21.53,10.55-2.75,3.11-.37,17.08,1.73,16.83,4.63,14.61-1.49,6.4-5.63-6-11.48S568.61,1108.82,573.79,1114.14ZM534,1117.63c-5.26-5.82-11.82-6.66-11.88-1.71s1.78,4.65,6.62,6S537.38,1121.33,534,1117.63Zm101.44,25.23c-5.71-2-6.88,2.34-3.09,5.92s9.65,2.34,15.39,2.07S645.44,1146.29,635.46,1142.86ZM569.75,441c-7.57,3.2-12,5.41-5.4,14.08s10.54,14.09,13.08,7.81S582.58,435.6,569.75,441Zm-60.62,93.1c-11.42,1.84-15.14,2.18-13.34,8.57s4.87,5.35,12.6,1.49S521.54,532.11,509.13,534.11Zm23.76,9.73c-1.95.59-2.52,5,0,9s7.37-1.33,9.54-6.2S540.09,541.65,532.89,543.84ZM408.28,234.31c-10.79.36-27,4.18-18,4.35s16.4,2,31,1.19,16-1.85,16.37-8.9S428.1,233.64,408.28,234.31Zm-67.51-59.19c-11,3.42-8.29,5.7,4.66,11.4s13.34,3,11.9-7.72S347.25,173.11,340.77,175.12Zm769.68,280.66c-13.65,3.82-18.22,1.54-20.81,8.46s-7.93,3.2-11,4.06-7.45,20.16-9.61,17.29-2.94-4.44-6.09-11.07,1-5.46-5-12.45-17.86-6.2-18.71-3.34,8.2,5.27,5.13,8.5-10.41,7.22-13.2,9.56,5.34,1.32,10.45.12,8.6,3.83,10.69,7.39-2.34,7.05-4.55,8.78,7.42,1.32,11.27,2,5.86,3.95,3.24,8.31,11.44.62,19.24.17,9.84,5.34,21.62,1.65,17.39-3.43,28.12-11.38,9.91-6.09,17-11.22,5.42-6.69,5.71-12.37,4.7,1.59,3-7-10.46-6.25-16.6-6.91-5.92-5.49-9-7S1124.28,451.92,1110.45,455.78Zm911.62,738.79a26.62,26.62,0,0,0-1.45,8.88c0,4.54-.54,9.4-.18,13.92s.63,7.71,3.15,8.72,4.24,2,8.38.09,8-5.37,6-10.57a141.9,141.9,0,0,0-8.21-16.17C2027.47,1195.59,2023.15,1190.72,2022.07,1194.57Zm-3.3-6.22c.43,1.92,1,1.52,2,2.85s1.89.16.63-1.59-1.11-2-1.11-2-1.6-.54-1.6,1M2407.56,1456c-.06.2-.3.3-.44.47-7.4,7.48-14.12,5.39-26.82,9.33-13,4-35.39,17.1-37,22.9s0,6.53-1.62,5.77-4.33-4.28-4.33-4.28-3.5,7-2.7,13.33,3.78,10.06,3.52,18.11-3.24,12.83-3,18.36,9.44,16.1,11.88,22.65,4,4.78,5.4,16.6,7.56,18.35,1.34,24.64-10.8,5-3.23,11.57,13.78,10.82,25.92,6.54,8.93-8,18.38-10.07,11.34-4,19.44-4.52,13.77.25,16.76-5.52.8-5.54,8.9-9.57,7.29-5,12.7-6,8.91,2.78,16.2-3,1.88-6.3,18.09-6.3,23,2.28,28.9,4.28,15.68,7.29,18.1,11.07,5.67,8.31,6.74,8.31,2.45.23,6.22-3.53,14.59-11.31,14.59-11.31-.55,8-3,11.06-2.45,7.29-2.45,8.81,6.22-4.8,7-5,1.62,11.06,2.42,12.06,3.26.5,5.68,3.78,5.68,5.79,8.11,12.07,12.69,12.58,19.18,13.57a53.57,53.57,0,0,0,17-.25c4.86-.74,5.13-6.54,10.26-4.26s-.26,7,11.88,6,15.41-5,20.26-8.31,5.41,4.54,11.61-4,7.29-6.54,8.38-16.86.8-12.33,6.74-22.13,7.31-5,11.36-19.36,9.18-27.93,8.65-39.74.25-4-2.45-17.37-.81-11.8-9.45-17.34-10.79-4-13-11.82.55-10.07-3.51-10.07-7.56,1.75-10-3.52-2.15-7.29-6.74-12.32-8.91-4-17.29-7.79-4.07-4.79-4.07-11.33.47-13.49-6.2-16.52-2.7,1.68-2.7-9.05,0-9.22-5.4-11.06-7.21-1.67-10.63-8.23-7.92-17.26-9.53-21.61-3.6.5-5.77,3.68-5.22,10.23-5.22,16.77,2.88,10.23,2.88,18.95-6.11,17.43-9.9,22.46-6.84.5-10.09-.84-4-6.21-10.8-9.56-19.44-6.36-25.21-11.56-1.8-5.37,0-10.74,4.33-9.72,8.65-13.25,3.06-4.87-2.34-7.88-13-3.18-22.16-3.18-14.58-.67-14,4.53,5.93,7.2-1.78,5.7-14.42-2.18-17.84,1.5-4.16,5.89-6.13,13.76.55,8.37-2.69,8.37-16-6.2-20.35-8-6.65-1.68-11.7,3-22.51,19.95-29,23.63S2414.13,1435.37,2407.56,1456Zm-240.28-226.7c-3.82-.52-6-1.52-1.27,4.51a71.33,71.33,0,0,0,10.45,11.41c4.5,4.19,6.13-3,9.55,5s2.16,8.21,5.58,11.23,6.3,3.87,7.19,6.89,2,7.7,5.95,11.06,4,2.85,6.3,9.38,5.94,11.23,7.75,16.77,12.06,10.73,17.28,17.44,14.05,16.43,15.49,13.75,5.21,0,7.92-1,3.6-4.86,5.4-14.26-1.62-13.75-4.15-15.93-7.2-2.67-8.44-4.69-3.42-8.88-6.49-11.07-3.8.17-3.8-5.2,3.61-4.86-.89-7.87-5-5.2-6.49-6.71-11.15-3.86-13.68-6.54-13.13-7.55-18.18-12.59-10.63-9.05-12.24-12.73S2183.84,1231.47,2167.28,1229.31Zm104.79,108.15c-4.31,0-6.47-2.52-9.36,2.68s-2.52,5.2,2,5.2,3.59,2.35,3.4,3-2.15-.51,7,3.18,15.68,2.18,18.19.83,3.42,3.36,16,5.37,19.26-1.17,27.36.84,6.14-1,.37-5.35-5.23-2-11-6.21-13.85-4.36-17.63-5,3.23,4-8.28,2.51-7.38,1-13.33-2.84-6-4.53-9.91-5.2S2272.07,1337.46,2272.07,1337.46Zm91.47,18.44c-3.24,1-9.9,2.86-6.84,4.19s.71,2.18,10.26,1.34,17.84-2,19.08-4-1.61-.67-5.59-1.86-3.6.85-9,1.52S2363.54,1355.9,2363.54,1355.9Zm33.5-.68c-6.39.78-5.59,2.19-.55,3.71s9.73,2.16,13.5,1.16,4.33-2,11.35-3.18,9.36-1,14.93-1.69l5.6-.67s-.54-1.16-4.33-1-6.46.33-10.26.33-10.26,3.35-13,3.18-7.91-1.84-9.18-1S2403.89,1354.39,2397,1355.22Zm36,8.22a1.52,1.52,0,0,0-.23.16c-4.46,3.05-4.65,3.9-4.24,6.32s-.49,3.51-.49,3.51a19.07,19.07,0,0,0,11.55-5.34c5-5,5.2-5,10.32-6.79s10.95-7.41,10.95-7.41a32.17,32.17,0,0,1-8.5.5c-4.47-.38-8.85,2.33-10.27,3.51S2443.54,1359.42,2433.05,1363.44Zm-37.64,2.65c-4.69-3.37-9.23-2.89-9.58-.82s-4.06,1.94,2.55,4.4,12.91,5.66,12.44,2.32S2397.44,1367.52,2395.41,1366.09Zm-43-139.81c-2.7,3.86,2.52,2.85-1.45,6.21s-7,1.84-10.95,6.87-9.92,8.55-12.44,10.4-10.64,4-14.23,8.89,1.27,7.54,1.27,7.54-2.18,1-7.94-1.17-6.11-4.86-6.11-4.86-4.14-.17-6.47,6-3.62,6.86.51,10.57-2.86,3.85-2,6.36.91,7.22,3.42,7.72,3.06-2.35,6.14,1.51.53,14.75,4.48,15.26,6.84-1.18,10.26.33,5.94,2.85,10.45,1.34,9.36,0,11.71,1.34,10.79,4.19,14.94,3.86,4.85.68,5.58-5.2.19-11.4,5.22-15.92,5.23-4.54,5.58-8.73.37-8.55,3.44-12.91,4.85,2.52,6.48-.84,3.24-3.34,2.33-5-5.59-1.69-7.38-4.87.55-4.87-1.63-11.4-3.4-4-.35-7.72,5.58-4.35,5.94-7.2,1.61-3,5.41-5.7-.61-1.43-4.2-4.11-10.35-12.74-14.54-12.66C2363.63,1212.24,2355.08,1222.42,2352.38,1226.28Zm532,356c-1.73-1.27-3.21-.33.75,4.36s4.31,3.34,6.83,3.51,4.69,9.4,6.11,11.76a40.16,40.16,0,0,0,4.15,5.18s1.46,10.06.19,14.6-4,6.53-4.86,10.73,4.13,3,7.39,4.36,2.69,1.34,1.43,5-5,5.37-5,6,7.38,4.86,11.17.34,9.7-11.24,11.35-16.09-2.89-2.7,2.33-6.21,4.5-1.85,7.21-6.21,5.56-8.88,2.51-11.23-6.47,2.85-9.2,3.86-4.85,1.17-8.63-.68-4.5-1.84-5.94-5.2a18.77,18.77,0,0,0-3.24-5.2s-1.09,5.7-3.77,3.87-2-3.87-4-7.06-2-4.19-3.25-6.53-.18-6.88-6.47-7.55S2886.06,1583.43,2884.43,1582.26Zm1.1,60.87a68.34,68.34,0,0,0-9.54,10.56,46.44,46.44,0,0,0-6.66,11.91c-1.44,3.35-6.66,7.37-15.3,11.9s-11.9,6.37-14.78,10.57-13.14,17.26-14.39,18.78,4.85,3,11.16,3,16.2,5.69,21.6-.17,10.81-19.79,14.23-24.82,6.66-6.87,12.06-11.74,14.4-13.92,14.4-17.44-2.33-9.22-2.33-9.22a6.79,6.79,0,0,1-6.68,3.35C2884.62,1649.33,2885.53,1643.13,2885.53,1643.13Zm-42.46,64.41c-6.33-3.35-7.57,2.88-8.59,9.28s2.73,1,8.23-1.92S2845.48,1708.82,2843.07,1707.54Zm-214.12-44c-7.13-2.37-5.94,4.37-4.86,9.39a37.27,37.27,0,0,0,5.22,13.24c2.7,4.21,12.78,5.7,16.76,3.87s6.83-8,10.79-13.92,5.76-12.58,5-16.09-5.76,3.18-9,4.69-7.57,5.36-13.68,3.69S2631.48,1664.43,2629,1663.58Zm-89.66-360c-5.76,1.34-8.65-3.69-13.34-13.42s-8.27-11.05-20.16-6.7-10.08,3.36-2.16,6.37,9,4,10.08,4,12.61,1.67,10.08,3.34-13.32,3.35-6.48,8.06,4,1.34,22,10.4,20.88,2.35,26.65,14.08,5.75,9.72,1.07,12.75-10.8,6-8.27,6.37a165.32,165.32,0,0,0,19.43,2c12.26.67.73,7.71,14.41,7.71s17.28-4.36,22.69-10.73,6.48-3,18-.34,15.49,12.74,29.9,16.77,20.51,9.39,11.51,1-12.24-14.42-24.49-24.15-13-10.74-16.55-18.11-16.21-16.1-30.25-21.8-22.08-6.49-38.54-11.07C2547.92,1285.47,2545.05,1302.24,2539.29,1303.58Zm-94.74-33.53c-5.39,3.76-6.06,1.46-10.1-1s-2.91,5.21-11.88,1-12.33-6.27-22,.84-3.59,10-3.82,15-8.08,19.21-11,24.43-2.88,7.1-.66,10.45,5.39,2.08,6.73,3.75,0,14.83-1.58,19.21,3.82,5.23,9.43,4,.68-1.66.68-6.26,2.68-6.68,2.68-15.26v-12.51s1.58-.84,3.6,2.08,4.94,11.08,7.39,15.26,4.93,7.3,8.75,4.37,7.39-6.26,7.39-6.26-7.39-2.29-7.39-4.81,3.14-4.58-2-12.94-7.83-8.78-1.33-9.19,6.28-6.9,10.08-8.78,9.21-1.25,9.21-1.25a10,10,0,0,0-9.64-2.3c-5.83,1.66-11,2.51-15.94,5.23s-9.2,4.39-10.09-.63-1.56-6.26-.89-13.17,8.51-1.66,14.35-3.33,5.84-1.26,18.62-.42,13.68-2.09,17.49-7.31a53.42,53.42,0,0,0,6.05-11.29S2449.93,1266.29,2444.55,1270.05Zm30.28-18.27c1.13-2.09-9.37,7.19-11.34,9s0,4.53,1.42,7.22,1.09,11.9,1.63,13.91,5.95,3.86,5.95,3.86-.18-6.2,1.79-9,0-6.38,0-11.57S2471.41,1258,2474.83,1251.78Zm-20.71,55c-8.27-3.16-11.35-1.08-11.35,3.24s-.92,6.48,7.88,6.48S2469.41,1312.65,2454.12,1306.82Zm16.45-2.8c-2,.64-4.16,7.13-3,11s2.54,1.3,7.18.44,3.92-4.53,9.72-5,17.84,4.1,17.84,4.1,2.56-3-6.69-8.84S2482.14,1300.35,2470.57,1304Zm-164.73-213.3s-8.28.24-9.55.24-4.14,3.2-6.21,4.46-2.07,3-.62,6.27,3.86,3.44,7.91,4.54,2.61-1.76,5.59-2.85,3.78-3.78,4.42-6.2,2.6-3.54,3.33-4.37-2.34-3.68-2.34-3.94S2305.84,1090.72,2305.84,1090.72Zm97.51,11.65c-3.26-2.41-5,6-5.95,10.39s-2,7.22-.36,10.4.9,4.2.9,4.2l-4.69-3.54a30.07,30.07,0,0,0-1.26,7.56c0,3.52-1.44,5,4,7.55s7.21,1.16,7.91,5,.72,5.52,4.33,6.2,7.74,2.17,9.18,4.54.71-6.23,3.24-5.71,5.42,3.69,7.21,6.54a6.2,6.2,0,0,0,4.49,3s-4.14-6.87-2.33-7.71,2.33-1.5-2.35-4.36-8.46-2.18-12-2.69-3.6,2.52-6.31-4.52-.53-11.4-.53-12.92,2,2.35,4.14-2.52a25.55,25.55,0,0,0,2.33-13.4c-.36-4.69,3.24-6.54.53-6.71S2405.14,1103.71,2403.35,1102.37Zm42.84,90.11c.54,3.39-3.23-1-4.66,1s-2.16,1.56-4.45,2.51-7.83,6.11-7.83,6.11-.07-3.33.06-4.09-1.68-4.65-3.37-2a15.39,15.39,0,0,1-7.1,6.22c-3.79,1.91-6.14,4.66-6.6,8.06s2.29,3.27,2.29,3.27,1.48-1.14,4-5,3-3.78,7.48-4.35,4.18-.5,5.62,1.95.33,6.17.46,8.88-.13,6,4.51,7.54,2.45.13,6.7-.25,4.19-.26,3.57-2.4-1.89-4-2.17-6.53,2.46-3.58,3.32-4.08,1.43,2.52,2.71,5.65,1.82,3,2.36.63,2-8,1.49-11.07a41.87,41.87,0,0,1-.81-7.86c0-2.5-2.1-5.53-3.31-6.41s-5.4-4.58-5.4-4.58S2445.66,1189.08,2446.19,1192.48ZM2425.47,1172s.09-2.14-3.82-6-4-5-10-6-11.92.52-9.41,6.92,3.26,7.34,8.3,8.11a10.38,10.38,0,0,0,8.1-2s.38,1-4.38,4-5.31,8.7-1.58,10.92,3.63,5.63,5.78,3.92,3.72-7.59,8.1-11.69,4.66-4.68,5.23-9a34.79,34.79,0,0,0,.09-7.85Zm10.2-12.29c-.55.43-3.66-.32-.42,2.82s6.21,3.84,5.81,6.16-.13,2.77-1.95,2.51-2.38-.69-3.18-.75-.93,1.51-.4,3,.4-.19,1.95,2.26,1.15,3.27,1.63,6.1,1.68,1.45,1.68,1.45-.4-6.79-.2-8.17-.54-4.73,1.75-3.66,1.68,5.11,3,1.33.75-7.11.08-10.13-3.05-3.14-5.82-3.14A21.43,21.43,0,0,0,2435.67,1159.66Zm-46.59,11.62c-1.34.34-2.17,1.64-3,6.24s-3.38,7-6.13,9.68-10.29,9.93-10.68,11.38-.49.56,5.13-2.09,10.06-6.15,10.71-9.74-.65-1.37,4.29-3.7,2.42-3.09,2.62-6.74S2391.55,1170.65,2389.08,1171.28Zm298.13,137.32c-.61,4.67,1.34,6.06-3,9.48s-9.18,3.44-13.79,4.2-1.23-.76-6.92-.92-7.12.25-4.5,3.09,2,5.62,10.35,5.29,15.3-4.86,20.71-6.53,5-6,5.41-8S2687.83,1303.58,2687.21,1308.6Zm23.39,10.07c2.32,3.29,1.44,2.78,4.41,7.13s7.67,5.12,11.17,6.29,0-1.26-2.6-4.77-2.8-5.46-6.67-9S2706.55,1312.89,2710.6,1318.67Zm-304.11-282c-11.54,7.34-16.74,6.79-12.15,16.1s7.47,13.25,8.1,15,3-1.18,6.11-8.55,3.52-17,4.78-20S2410.45,1034.2,2406.49,1036.72ZM2604.11,675c1.27,4.87,2.51,12.41-.36,13.24s-4.87,6.21-5.58,11.75-2.16,12.57.89,16.94.9,4.68.9,8.38,1.08,13.07-.72,18.61-2.87,6.87-2.15,12.74,0,7,0,15.43-.53,15.08-.18,18.43,2.15-1.66,3.41-2.84,6.13-1.85,8.82,1l2.72,2.85s4.31,1.84-1.63-10.9-7-10.06-5.4-21.63,2.52-11.73,8.63-12.92,9.36,7.22,10.1,8.05-.55-2.85-2.71-9.38-4.15-8.72-4.86-16.93-3.25-15.11-6.48-17.45-1.62-6.2-.18-9.39,2-8.05,1.27-13.58a144.54,144.54,0,0,0-3.24-16.27c-.91-3-4.51,1.84-4.51,1.84Zm-5.41,128.45c.36,3.68.73,7-1.79,11.22s-.72,5.2-2.16,11.07-8.47,0-8.47,1.19-1.08,5.36-2.88,6.86-7.93,1.85-6.13,7.72a83.78,83.78,0,0,0,5.06,12.06s3.6-3.35,4.67-3.68,4-1.16,4-1.16-.53-1.69-4.5-3.53a5.42,5.42,0,0,1-3.06-6.88c.55-1.18,5.58.34,8.82,0s6-2,9.92,1.17,9.72,4.37,9.72,4.37a29.41,29.41,0,0,1,2.51-8.05c1.8-3.35,7-1.85,12.25-3.35s9.18-2.35,7.38-4.54-1.62-7-2.71-10.73-4.5-.17-7.2,1.17-6.12.34-9.72-2-10.09-11.23-12.42-14.76C2602,801.56,2598.34,799.72,2598.7,803.41Zm-16.12,55c-1.71.84-3.91,5.28-3.5,10.19s4.58-.38-.82,14.71-8.11,18.48-13.37,22.39-10.12,3.9-12.15,2.89.55-4.41,2-5.42-4.61-1.38-7.16-1-.14,3.27-.41,5.65-5.26,8.81-4.72,11.7.54,3.78-2.7,4.78-5.4-2.4-6.35-2.9-5.8.89-12.15,1.76-8,3-10.67,7.68-9.06,5.4-13.64,7.16-2.84,8.31-7.84,10.57-5,6.41-5.4,9.81,3.1,1,3.65.76.54-4.79,3.65-4.28,3.51.62,1.88,4.15-2.55,5.28-4.17,8.3.54,4.4,3,7.43,4.73-.89,9.85-6.29,5.55-6.68,5.14-12.84-2.44-6.29-6.21-8-4.6,0-.41-4.8,6.08-.11,8.92-2.25,9.72-2,16.33-3.65,13-3.76,13.24-1.64,2.31,9.31,2.56,10.82,4.62-2.14,9-3.78.29-2.37-.13-5.27a5,5,0,0,1,2-4.53s2.31,4.78,9.46,1.39,7.7-4.79,9.59-4.29,3.11,2.4,6.07.51,3.52-.13,3,1.39,8.64-2.9,10.66-4.27.95-.14.13-5.42-3.37-5.65-1.88-12.44,1.08-7.44,1.49-11.71,2-4.89,3.1-5.15,1.09-5.92,3.37-8.92,1.76-4.41,1.76-11.33-3.79-5.66-4-10.55a36.91,36.91,0,0,1,.93-9.69s-7.7,2.89-8.49,4.65l-.83,1.76S2585.16,857.14,2582.58,858.4ZM2532.18,934c-8,1.34-13.61,2.19-18.34,3.7s-5.74,3.6-5,8.32,2.6,9.47,3.24,11.92,3.25,0,7.7-2.36,4.16-9.27,8.43-9.27,2.68,4.92,8.42-2,1.39-7.48,1.56-11S2532.18,934,2532.18,934Zm504.61-372.44c-8.54-1.66-11-3.51-11.79-.43s-1.73,4.12,3.68,6,8.09-1.43,13.15,2.35,6.47,3.6,10.34,3.1,5.41-2.44,5.41-2.44S3043.27,562.79,3036.79,561.53Zm-97.54-134.35c-3.13.88-5.68-2.14-4.86,5.53s2.55,8.55,12.4,7.16,2.44-.37,15.95-1.38,16.33-2.89,16.33-2.89a23.71,23.71,0,0,0-6.47-7.29c-4.6-3.52-10.68,2.4-21.08.63S2939.25,427.18,2939.25,427.18ZM2635,313.87c.13,2.94,13.5,11.18,18.36,13.58s8.63,1.38,18.91.25,11.08-5.52,12.28-8-4.86-1.64-11.73-3-12.56,1.24-15,0,3.65-2.52-2.43-4.79-7.57.75-8.92-.25-1.61-3.16-4.58-3.39S2634.85,311.11,2635,313.87ZM2582,331.1c-4.65,1.86-4.32,3.52.94,7.92s3.53,3.39,1.23,6.54,0-.13,7.56,3.26,10.67,9.57,15.4,10.95a11.13,11.13,0,0,0,8-.38,43.25,43.25,0,0,0-6.08-11.06c-4.45-6-14.06-7.79-15.82-13.08S2588.66,328.45,2582,331.1Zm48.21-24.64s-6.87-4.16-17.29-10.7-14.3-8.3-17.82-8.8-2.95,3.66-4.32,6.91-2.29,2.64-7.71,0-10.8-6.66-16.32-7.93-8.91,3.28-15.26,9.57-2.7,8.05,5,17.35,11.08,9.82,17.27,6.16,4.46-6,8.92-4.27,19.85-1.76,20.4-1.76-.95,8.55,5.81,6.29,13-3.39,16.06-6.79S2630.25,306.46,2630.25,306.46ZM2162.59,126.83c-2,1.67-13.5.67-19.45,10s-10.06,2.86-13.14,8.56a118.74,118.74,0,0,0-5.58,12.57s5.41,6.38,11.17,5.88,15.84,2,21.42,9.73,9.73,7.7,23.23,9.88,7.37,4,14.41,3.37,16.73.83,14.58-2.7-3.79-5.7-2.87-12.57,7.18-6.54-.19-11.07-12.61-.83-12.24-1.67,6.66-3.36,4.14-3.53-15-.83-16.38-7.87,3.4-7.57,5.92-8.07,1.82-1.32-5.4-6.52a196,196,0,0,0-16.91-10.57C2160.8,124.65,2164.58,125.15,2162.59,126.83Zm67.71,50.8c-5.23,1-9.55,6.21-12.6,10.73a81.82,81.82,0,0,1-13,14.42c-3.79,3-2.7,3.87,3.42,6.05s16.92-3.87,20-4,5.4,4.53,15.12,3.34,24.49-3,17.29-8.21-4.68-2.69-12.61-9.05-18-6.87-18-6.87,16.39-5.54,12.43-5.87S2230.3,177.63,2230.3,177.63ZM1814,95c-9.42,3.39-6.12,5-12.25,9.91s-2,6.19,11.17,3,13.86-4.53,22.33-8.38S1828.06,89.93,1814,95Zm20.88,23.66c-8.85,3.92-6.48,8-4.13,11.39s8.81-2,10.6,1.69,2.35,2.16,10.64-3.37,5.22-3.85,2-9.71S1850,111.91,1834.89,118.62Zm-49.19-2.44c-5.67,2.7-5.67,2.39-.29,4.91s18.51,4.52,25.26.11,6.23-3.51-2.29-4.77S1792,113.15,1785.7,116.18Zm-83.46,10.18c8.78-.75,16.88-1.12,23.91-.37s4.44,6.79-8.53,8.18,1.23,3.4,10.41,3,3.24-7.94,10.94-10.57,12.55-1,21.73-4.27-5.26-6.42-15.93-6.17-14.18.87-23.23.25-16.35,3.44-25.66,5C1676.71,124.73,1693.46,127.12,1702.24,126.36Zm68.85,2.4c-7.72,0-26.32,4.27-10.66,5.78s14.46,2.52,20.93.13S1779.21,128.76,1771.09,128.76Zm54.58,3.27c-11-3.63-11.23-2.15-19.73-1.77s-11.87,5.67-6.33,7.92,9.3,1.38,13.89.65,4.33-2.14,1.36-3.28S1832.15,134.17,1825.67,132Zm46.18-13.58c-8.43,1-8.91,2.52-9.72,5.27s1.21,2.14,10.13,1,13.09-2.38,18.9-5.53S1890,108.38,1890,107s-8.23,4.17-10.53,6.16S1881.83,117.19,1871.85,118.45ZM1210.51,600.83c-4.25,11.73-11.26,17.15-3,13.9s16.56-13.35,16.15-4.69-8.5,7.39-6,15.87.64,7.77,14.45,10.83,2.54,2,6,10.12,5.72,10.63,2.11,13-14.22-7.4-14.86-3.26,1.48,7.22,4,13-1.7,9-9.76,12.81-1.07,6.14,5.09,5.79,21.66-3.26,19.11,2.16-10-.9-15.27,8.12-24.88,16.78-14.68,16.24,8.72-3.25,39.1-7.57,9.32-.37,29.3-6.51,13.59-7.77,2.55-6,7.23-10.84,4.68-22.55-9.76-.54-14.45-8-4-9.56,4.89-6.87,8.07-1.79-9.14-12.8-6.58-8.84-14.44-18-21.23-8.13-21.23-8.13a27,27,0,0,0,9.12-10.1c3.39-6.67,4-6.14,7.64-14.25s-3.61-7.4-12.73-5.42-12.12,2.89-10.2-.72,3.19-5,7.44-9.57,5.08-6.85-2.77-5-9.05,1.62-15.71,4.69C1207.75,582.61,1214.76,589.1,1210.51,600.83Zm-21.46,27.61c-13.88,5.47-10,9-7.63,11s6.57-1.81-6.38,5.6-13.17,15.51-6.38,17.14,5.95-4-1.25,9.57-12.11,22.73,2.55,19.3,18.68-11,25.68-11.91,8.29-6.49,8.29-15-4.67-8.66.85-15.7,5.94-14.44-4.9-17.86S1197.77,625,1189.05,628.44ZM1363.5,817.83c-.75,1.9.91,7-4.69,10.55s2.71,6.72,4.5,10.07,4.15-11.4,3.6-18.45S1365.84,811.78,1363.5,817.83Zm-2.69,27.83c-9.16,4.33-9.72,7.54-10.82,14.42s7.4,1.33,5.22,7.37-.16,9.22,9.37,3.53,4.15-10.9,5.58-18.11S1372.87,840,1360.81,845.66ZM1502,919.76c-8-.78-11.61,4.28,2.16,5.8s20,1.75,25.13.49.79-.24-6-4.77S1512.22,920.77,1502,919.76Zm76.69,4.28c-11.09-2.39-8.08,11.07,3.26,9.07s7,.75,12.16-7.55S1590.28,926.55,1578.65,924Zm-275.84-62.46c-9,1.15-9.71,4.2-2.69,6s6.11-.34,10.08-3.2S1306.79,861.08,1302.81,861.58ZM757.32,697.43c-5.53,4.39-11.88,10.81-19.72,24.9s-7,12.58-14.58,20.37-3.78,6,19.72,10.57,21.6,8.05,27,6.54,6.49,3,6.49,7.8,5.11,2,7.55-5.53-2.44-21.14-7.28-28.93-6-7.81-13.51-5.79-5.14-1.76-7.83-7.79-7-1.26-.54-10.32S762.73,693.16,757.32,697.43ZM38.45,681.34c0,7.48,7.91,20.28,13.86,24.48s4.69,1.85,2-7.05-.54-8.88-1.81-14.58S38.45,678.65,38.45,681.34Zm39.43,40.91c1.56,1.62,6.3,8.39,14.57,13.92s10.45,6.2,19.09,8.72S124,744,118.38,739s-.9-4.54-11-6.89-12.23-1.49-17.29-4.69S74.45,718.73,77.88,722.25Zm-219.54-83.42c-6.5-1.47-9.05-1.76-13.52,1.76s-5.66,6.54-3.22,10.45.93,1.75,6.6-2.14,3-4.41,10.14-6.18,5.67-4.15,5.67-4.15S-137.73,639.71-141.66,638.83Zm-2.29-8.67c-4.37,2.63-5.82,4.77-1,3.77s4.18-3.77,7.29-3.15,4.2-.62,4.2-.62S-139.36,627.38-143.95,630.16Zm-124.66-20c-5.93,2.9-11.56-.49-7.89,1.7s8.64,4.28,12.55,3.84,6.49-.5,5.07-2.39-1.81-2.37-1.89-4.33C-260.91,606.32-262.66,607.27-268.61,610.15ZM1724.7,1429.67c-6.85,15.1-21.27,7.72-32.78,18.78s-9.73,7.72-1.08,23.14-7.19,13.75-11.18,31.86,4.69,14.76,9.37,30.19,6.85,10.73,15.5,8.71a50.53,50.53,0,0,0,14.76-6s1.46-13.42,7.19-33.2,9.73-34.21,10.81-47.28,2.16-22.47,5-18.45,3.23,4,3.23-2.35-3.45-24.3-9-28.5C1726.84,1399.15,1731.53,1414.59,1724.7,1429.67Zm10.09-1031.55c-9.44,2.16-13.91,7.94-7,10.19s6.21,1,17.56-3S1744.09,396,1734.79,398.12Zm176.44-171.36c-3.22-5-6.11,1.69-39.24,16.1s-32.78,2-63.75,26.49-24.12,21.46-25.93,36.23-9,8.37-11.88,21.79-18.72,14.09-10.81,25.16S1778,370,1794.54,374.66s21.26-.33,17.67-2-16.21-21.46-13.69-43.93,10.8-19.12,18-27.5,25.92-30.18,38.18-37.57c11.89-7.17,43.57-17.19,59.53-22.68.45-.16,1-.13,1.32-.45C1928.16,226.43,1914.48,231.8,1911.23,226.76Zm-89.3,150.74c-3.91.56-5.75.68,1.45,7.72s13.5,12.41,11.15,3S1825.53,377,1821.93,377.5Zm118.29-68.24c-5.26-2.46-8.09-5-9.36-1s6,9.39,13,10.74S1945.27,311.61,1940.22,309.26ZM700.51,731.3c-8-4-15.83-7.21-21.06-7.21s1.08,5.53,9.36,10.06S705.2,733.65,700.51,731.3ZM681.44,765c.42-6.65-4.43,7.64,1.52,10.82s9,4,12.8.15.7-1.42-4.52-2.34S681.08,770.54,681.44,765ZM3040.66,534a40.53,40.53,0,0,1-17-1.77s-.54,7.81-3.5,11.58a7.41,7.41,0,0,0-.83,7.8s-9.72-4.28-15.38-6.3-10.8-.24-14.06-8.81-12.95-7-20.52-7-5.39-9.8-5.39-9.8l-4.59.23c-4.61.27-3.79,11.33-9.73,14.85s-24.59,5.79-24.59,5.79,11.89,8.55,14.34,15.59a68,68,0,0,0,7,13.83s-1.09,3.28-15.41.5-13.49,2.78-28.89,9.05-32.95,15.86-37.27,19.38-4.6,1.51-18.09-1.76-16.2,3.77-19.73,5.53-2.15-8.05-2.15-8.05a26.3,26.3,0,0,0-10.81,3c-61.57,31.28-19.11,29.62-21.06,35.95,0,0-6.49,24.4-6.49,24.42-9.05,26.95-15.32,12.83-22.95,34.19-24.31,67.91-38.37-10.47-38.37-28.41,0-11.08-2.42-25.4,4.61-28.68,60.43-28.14,5.66-3.9,62.39-42.75,18.38-12.58,8.37-20.13,12.41-23.64s10.55-4.54,10.55-4.54l-10-1c-10-1-10.27,1.26-18.11,9.81s-14,10.07-12.42,3.51,1.89-13.32-4-9.79-8.39,3-19.45,5.28a54.33,54.33,0,0,0-33,20.12c-10,12.58-4.32,11.06-1.08,14.08s-15.95,2.25-25.12,1.52-4.34-2.52,1.07-4.29-8.11-3.26-20-5.78-7.29,2-14.3,4.77-6.76-2.5-10.27-3.26-19.18-1.76-30.24-3-10.27.76-13.24,4.53-23.5,21.9-32.42,32.21-20,12.57-30,22.13S2531,664,2539.1,665.5s9.19.73,10.53,8.29,5.14,10.05,13.78,10.05,6.22,2.27,7.83-4.27-2.16-14.07,5.14-8.3,13.23,10.07,15.39,18.37-.55,14.33-4.32,28.17-5.13,33.7-10.27,43.76-9.18,17.61-14.86,28.67-33.22,39-39.42,41.5-10.26,2.77-13.24-2.77-5.13-4.53-12.16,1.76-10.25,10.07-12.95,20.12-8.66,10.07-14.87,17.61-7.82,5.79-3.24,14.34,12.15,17.61,13,25.9-3.79,20.37-6.75,25.67-17,7.79-16.75,5.27a198.56,198.56,0,0,0,0-22.38c-.55-7.29-5.95-7.29-4.06-9.56s9.74-6,4.06-11.33-9.72-.75-12.15-7,1.08-11.33-.26-13.58-5.41-4.78-13.78-5.54-10.27,7.54-12.17.24.83-8-3-11.05-7-1-16.73,7.29-11.64,6.54-19.73,10.06-8.1,5.53-6.21,8.31,8.64,14.83,14.3,16.09,9.74-2.52,18.37-2.52,10.27,1.26,8.11,4.52-8.11,6.56-18.63,17.11-7.31,8.56-3.79,12.84,8.65,9.55,12.42,17.86,0,11.3-.53,16.07-1.35,12.09,5.68,19.64,2.14,5,1.34,7.79-12.7,24.39-18.1,35.22-5.41,11.81-23,24.14-25.4,13.58-34.85,15.33a117.3,117.3,0,0,0-22.42,6.55c-4.85,2-3,6-3.49,8.55s-5.14.25-4.34-3.53.28-6.54-2.15-7.54-10-4-17.83,3.52-17.3,8-20.54,17.62-2.68,6.29.83,10.31,20.52,20.37,24.57,29.16,4.87,15.36,5.14,24.91-19.46,27.17-28.09,33-10.55,11.31-9.19,2.26-3.78-14.34-10-21.13-25.11-12.32-28.64-13.08,1.36-6.27-1.09-6-8.09-1.25-7.28,7.56-5.66,6-7,14.84-3,17.85,2.7,17.1,4.59,7.8,8.92,17.36,2.68,4.27,13.5,13.07,8.1,7.29,10.54,16.1,1.62,13.83,7,21.88,5.66,9.81-3.25,5.28-16.2-10.06-19.73-15.59-5.65-19.63-7.82-26.66-16.74-15.34-21.6-20.38-1.9-9,.54-20.62-1.09-22.64-1.9-29.67-6.47-26.79-9.19-33.46-1.62-5.79-5.81,0-7.41,9.3-11.47,9.3-10-.62-9.45-3.27,4.59-12.7,3.38-16.47-5-15.85-10.67-20.13-12.17-10.18-15.81-20.11-4.59-7-11.61-1.89-23.1,5.78-30.8,6.41-1.34,4.41-3.23,8.18-10.93,8.67-29.16,27.67-21,19.61-25.71,21.63-7.67,1.38-7.51,9.17.84,12-.06,19-3,9.81-5,14.25a84.22,84.22,0,0,0-4.75,16.69c-.63,4.18-4.69,9-10.62,13.32s-5.94,3.52-8.65-2.76-16.74-30.43-28.08-53.07-8.64-26.67-9.74-33.21-1.29-45.79-.8-48.79c.28-1.67-5.49,4.61-7.11,7.79s-1.54,7-8,7.64-7.83.67-13.95-5.45-8.93-9.55-7.86-9.38a34,34,0,0,0,12.18-2.69c4-2,2.69-4.2,2.69-4.2s-4.4.5-9.63.76-2.89-1.18-9.81-3.94-8.48-3-9.64-6.12-2.88-7.47-3.87-9.82-1.8-2.51-3-5.43-4.5.49-12,.66-5.77.5-14.77,4-10.36,2.26-20.53,1.93-17.28-4.7-22.42-6.46-5.94-1-13.5-2.1-5.94-4.94-7.84-8.13-5-4-14.94-3.19-10.26.26-15.83-1.26-6-3.51-10.72-8.21-3.15-1-6.22-3.45-6.11-5.77-8.54-12.31-1.89-8-4.69-11-2.6-2.27-11.35-2.27-4.76.58-5.85,1.18-3.77,4.44-6.21,7.45,2,7.22,5.49,11.33.45,3.68,6,9.89,3.68,5.62,7.65,14.25,6.48,10.82,7.37,13.42,1.72-1,2.63-3.36-.36-10.74-.36-10.74a53.84,53.84,0,0,1,3.23,9.74c1.53,6.2.45,6.28,1.53,10.24s0,3.41,6.76,3.41,10.89.27,18.37-1.49,10.7-8.55,14.21-10.57,3.53-9.06,5.85-8.3.11,8.3,2.26,13.24,2.7,3.18,7.93,5.37,6.65,3.44,12,5.45,1.71,2.27,4.59,7.55,2.71,2.34,5.5,4.19,1.71.5-.27,6.79-2.34,6.37-7,11.48-4.69,3.53-5.4,3.36-2.16-3.77-2.16-3.77a39.48,39.48,0,0,0-3.42,13.25c-.45,7.12,2.34,4.51-6.23,8s-13.69,4.87-17,7.72-3.32,6.63-5.22,8.47-4.51.17-10.26,2.17-4.16,1.59-9,5.3-.55,3.35-6.75,5.68-17.46,7.81-23.14,8.4-4.5,2.09-5.94,4.18-1.54,3.18-8.74,4.27-16.19,2.12-20.62,4.29-10.89,7-15.57,6.12-3.42-1.1-5-5.29a50.3,50.3,0,0,1-3.06-14.08c-.71-6.88-3.16-17.35-7.13-24s-3.87-7.06-8.18-14-7.21-12.82-11-15.5-5.66-2.85-7.48-4.86-.72-8.89-2.6-14.76-3.16-11.56-6-14.84-7.11-7-11-14-4.14-7.73-9.7-18.45-7.59-12.07-11.27-19.28-1.27-5.8-2.61-10.07-4.87,7-7.65,9.14-4.23,1.09-6.48-5.28-4.16-12-5.86-9.46-3.06,5-.73,11.82,3.44,5.34,6.49,11.8,11.42,22.66,14.84,29.36,2.08,3.43,5.24,13.58,4.94,11.4,9.17,15.58,3.52,2,5.41,8.89,1.18,14.93,1.45,19.13,2.6,6.36,7.65,10.56,2.51,2.68,4.85,7.12a100.26,100.26,0,0,1,6.05,15.09c1.34,4.36,3,7.39,6.92,9.31a67.2,67.2,0,0,0,9,3.61c4,1.42,2.59,2.42,5.3,5.87s7.93,6,11.18,11.49,1.07,3.85.88,9.13-1.88,2.85.46,5.62,6.39,5,13.22,9.54,1.38,1.36,7.48,1.19,7.4-1.77,14-3.19,15-3.86,23.13-5.79,16-3.18,20.18-4.53,4.23,3.2,1.06,10.23-4.66,12.91-7.37,18.62-3.7,6.2-5.68,10.82-15.31,23.46-18.08,29.42A74,74,0,0,1,1713.9,1257c-4.07,4.94-16.76,13.9-22.69,18.69s-4.42,4.77-8.83,10.4-17.82,21.2-21.44,26.74-5.65,7.55-8.36,13-10.34,13.15-10.81,17.1-4.76,4.45-1.53,7.89,5,4,6.13,8.37-3.61,9.31-.54,17.28.9,2.27,5.5,8.63,4.41,10.4,4.85,19.71.9,18.52-.54,24.56-3.42,10-5.48,15.43-13.42,9.15-20.09,12.07-6.38,1.75-9.45,5.45-11.88,11.39-14.85,17.09-5.22,5.12-4,8.73,3.67,8.3,6.75,15,.9,6.2.18,12-.63,4.87-1.44,11.9-9.1,7.21-18.55,10.9-6,1.85-7.12,7-.43,15.17-.81,21.2-3.23,3.61-8.37,11.07-7.2,11-12.69,20-5,7.72-12,13.33-12.42,7-15.48,13.49-6.57,2.19-21.43,7-4,2.45-18.18,4-19.18,2.69-26.65,4-6.5-.4-11.08-5.44-5.31-4.63-7.36-8.81-.55-5.2-1.19-12.75-1.26-7.79-4-12.49-2.62-5.44-5.67-12.91a61.28,61.28,0,0,0-7.85-14.58c-3.41-5-4.41-3.43-7.55-6.71s-3.24-6.12-4-10.73-1.8-15.51-3.32-27-.18-5.37-2-10.22-4-10.74-7-17.19a92.64,92.64,0,0,0-6.66-12.75c-4.67-8-4.23-6.86-7.2-13.82s-3.41-3.87-3.59-6.55,1.52-7.54,1.71-12.23,1.71-10.14,2.86-17.36-1.6-7.13,1.45-12.08,6.21-9.46,8.21-15.09,1.69-5.87,1.69-13-.72-6.53-2.87-12.49-3-12.92-5.58-22.47-2.53-9.21-2.9-12.91a89.73,89.73,0,0,0-4-17c-1.79-5-2.7-3-6.65-6.28s-1.36-1.85-4.77-5.46-2.79-4.78-6.13-8.72-3.78-4.11-6.5-8.55-1.23-1.76-.88-9.22,2.51-21.72,3.88-29.94,1.62-7.79-1.54-11.23-5.41-8.38-7.83-9.21-8.29.83-16.84.66-8.19-2.09-11.87-6.37-8.58-10.23-10.29-11.82-4.67-1.52-19.24-.43-5.77,1.36-15.51,2.86-13.5,6.62-21,9.23-9.63,1.92-22.77-.68-19.71,3-26.39,5.88-9.9,1.5-14.76-1.85-7.74-6.13-15.22-9.81-5.76-5.7-13.13-9.31-5-3.77-11.08-9.56-6.56-11.65-10.8-17.69-7.85-14.5-13.52-20.87-11.24-19.2-14-23-4.94-4.2-4.87-6,5.5-12.66,7.75-18.28,2.88-4.87,3.86-8.38-1.34-13.67-3.5-19.2-4.6-17.19-6.29-22.64.88-5.54,3-8.62a188,188,0,0,0,12.14-19.12c5.13-9.57,8-14.26,10.71-18.71s8.91-18.1,13-21.79,14.39-11.07,18.8-13.34,8-3.51,8.74-5.53,2.6-18.6,3.87-25.56-.44-10.82,4.59-13.5,13.15-7.72,17.39-10.07,4.85-5.87,7-11,3.08-11.57,6.32-13.68,2.34.92,6.56,3.77,5,3,6.94,3.53,3.77-1.6,8.74-1.67,5.48.59,8.45,2.18,1.34,1.59,9.82-3.61,15.21-8.38,26.29-12.49,18.63-6.38,23.76-7,2.52.07,8.29,2.35,6,3.27,7.19,1.58,5-6.37,7.39-6.2,5.22,1.18,11.43,2.27,8.82.5,11.35-.84,5.75-4,6.38-4a107.82,107.82,0,0,1,10.27,3.45c4.32,1.59,4.41,1.84,3.51,2.92a22.55,22.55,0,0,0-4.22,7c-2.08,4.7-1.09,2.18.89,7.13s3.42,4.69,2.52,8.3-5,7-7.92,10.47-2.25,4.11,5,8.23,5.58,3.43,13.78,7.12,8.54,2.35,18.09,5.2,8.37,3.18,11.7,7.05,3.51,7.54,9.27,9.55,11.89,2,15.22,4.1,6,5.12,10.55,6,4.47,1.43,6.65-1.85,3.95-6.2,3.15-7.88-3.25-4.28-2.71-5.87,4.33-8,5.49-9.88,4.16-2.44,11.27-2.78,12.05-1.34,13.23,2.85.9,2.27,6.39,4.54,6,2.26,10.62,4,2.26,4.26,4.6,4.09a28.31,28.31,0,0,1,10.44.76c4.32,1.26,12.24,5,20.61,5.37s11.61-2.19,12.88-2.78,7.2-7.86,10.72-2.84,8.09,5.12,16.91,4.61,8.92-1.84,10.9-4.11,7.29-10.82,9-16.68,6.38-18.69,7.64-24.48-.08-10.31-.54-13.74.37-5.8,1.73-9.66-4.24-1.5-6.5-.74-2.87-1.18-4.94-1.77-4.24-1.1-5.77,2.78-.82,5.78-9.09,5.36-6.75-.92-9.46-3.87-7.29-3.68-11-4.77-4-.93-4.31,1.42-.36,3.94-3.05,4.87-8.83-.17-14-2.6-6.66-3.6-11.7-8.56-4.31-4.94-6.39-12.56-2.07-14.18-1.17-16.44,2.34-2.93-1.53-1.75-6.49,1.82-3.88-4,5-6,7.75-6.8,6.84-.83,12-1.16,9.09-2.94,10.89-3.7,5.51-2,3.61-2.51-7.56-1.09-6.58-2.69,1.63-1.5,4.68-1.84,7.84-.51,11.9-.74,6.47.49,7.83-1.94,3-6,6.2-8,6.58-.92,14.87-1.26,7,1.68,9.71,3.61,4.5,1,8,1.68,1.34,2.76,4,3.86,7.65,2.18,13.67,4.11,2.08,1.09,9.45,1.09,7.13.07,13-.93,8.29-3.18,12.42-6.13,1.26-9.3-.26-14.24-8-8.13-11-10.39-9.36-9.49-12.78-12.41-7.4-3.78-11.17-5.87-10.53-5.54-11.16-8.31,1.45-2.84,7-4.18,3.79-2.52,4.85-5.46,1.54-2.85,6.13-4.52-5.3-5.2-6.66-7.12,3.06-1.35,7.65-2.44,5-3.27,5.58-5.2.44-2.85-4.95-2.76-12.24,2.34-21.33,4.78-4.94,2.51-10.44,6.79-5.85,2.42-5.13,4.77,1.07,4.61,6.65,7.55,3.23,3,4.78,3.44,5.31,1,3.6,1.51-3.25,3.17-5.77,3.17-3.61,2.6-7.92,5A23.09,23.09,0,0,1,1593,797c-3.14.49-5.4-.52-5-5.88s-1.61-1.75-5-3a12.41,12.41,0,0,1-4.59-2.69,38.28,38.28,0,0,0,6.67-3.27c3.35-2.09,4.85-3.35,6.48-7.45s-3.61-1.86-7.38-2.35-2.71-.85-6.39-1.35a6.93,6.93,0,0,1-5.13-3.43,11.11,11.11,0,0,0,4.85.33c3.15-.33,2.45-1.17,3.6-2s2.09-1.6,1.18-1.6-4.78.42-7.38.25-4.15-.58-7.93,0-2.25,2-5,3.77-2.79,2.35-4.23,5-1.9,2.17-2.88,3.85-.9,5.86-.9,8.73-.73,3.76-2.44,6.11-1.71,1.34-4.59,2.76-1,2.44-1.34,5.29-1.36,3.94-1.63,7.64-1.71,3.84-3.95,6.44-3.52,2.59-3.7,5.29a32,32,0,0,0,0,9.05c.63,5.2,2.07,3.85,6.13,9.14s6.21,3.27,4.76,5.95-1.16,1.68-6.13,1.09-5.74.16-9.34,3.61-4.35,5.37-6.22,6.62-1.26-2.51-2-4.28-9-2.34-14.69-4-7.21-2.68-8.65-2.68-3.63-.33-9.58,2.94-4.59,5.16-4.18,9.43,5.12,5.15,3.78,15.21,5,5.42,7.69,11.58.28,5.65-1.34,6.41-3.24,6-4.46,11.07.13,5.66-1.36,5.41-3.23.88-6.07-3.28-5.12-.23-5.54-2.63-3.92-6.41-2.56-11.95,3.51-6-1.36-8.93-3.63-3.27-5.94-9.19-2.83-7-7.27-12.44-4.08-3.89-2.85-9.31,2.16-12.44-.55-16.22-13.89-14.2-23.09-19.12-11.07-1.12-15.13-8.92-5.91-16-12.68-20.76-3.37-5.15-9.86-2.75-6.62,3.39-6.08,5.27,2,4.41,1.07,9.57-2.29,3.51,4.47,7.53,3.91,3.15,7.29,10.56,3.91,8.81,6.62,11.83,3.65,5.65,10.4,7.17,5.67-.38,7.41,1.26-4.72,2.26-3.5,3,2.71,2.89,8.37,6.41,11.49,7.17,13,9.94,6.47,13.19-.82,5.52-7.42-4.13-9.45,1.14,1.87,9.31,1.62,13.2-3.65,2.4-6,5.53-3.5,6.91-6.2,8.93-1.89-2.25-3.37-2.25-2,1.87-3.91,5.52,0,5.16.79,10.07,2.17,5.28-3.1,5-4.06-5.16-8.9-8.43-7.7-2.14-11.76-4.66,1.76-3.14,11.89-4.4,11.34-2.25,14.45-4.64,2-3,5.4-7.8,0-6.68-2.3-12.47a21.19,21.19,0,0,0-8.1-9.55,79.87,79.87,0,0,1-7.83-7.79c-3-3.27-6.09-3.77-11.22-5s-4.18-5.91-7-7.29-5.68-5.41-12.16-11.45-4-10.56-7-15.84-5.94-9.3-12.43-9.3-11.34,4.52-17.82,10.8-5.13,9.31-12.7,4.54-10.24-4.28-15.67.24-6.47,9.06-6.47,18.11-6.48,5.29-11.61,7.79-9.73,8.81-17.55,23.65.53,7.79-1.1,12.83.55,9.06-6.74,15.59-4.06-.75-8.37,4.53-10.28,9.56-20.53,8.3-7.3,2.77-13.79,4.28-10,3.77-8.37-3.53.28-6.28-12.14-5.78-16.76,3.78-15.68,2,1.63-4.79,3-11.83,3.23-9.31,1.36-9.31-6,1-3-11.56,4-14.84,2.69-22.13.53-17.11-1.07-21.39,3.23-8.54,1.07-10.82-4.59-5.27-3-5.27a113.29,113.29,0,0,1,17,1.76c8.66,1.51,17.55-1.26,22.69-.76s15.94,2.77,26.73,4.53,10.53-1.52,9.46-17.36.81-23.12-2.44-26.4-6.74-3-10.25-7.29-.82-10.57-8.37-12.84-16-.5-11.89-2,5.67-2,1.36-5.28-5.43-6.78-2.18-7.3,12.42-.5,12.42-.5.82,4.54,5.69,2.52,11.07-4,9.72-7.29-3.78-7.29-3-7.29,2.72,4.52,13,4.52,9.45-1.51,8.65-5.78,6.76-4,11.89-7.55-1.9-7.54-.81-10.81,7-5.29,17.55-6,8.63-2.53,7.57-3.78.27-6.55,1.06-13.33-.79-9.06,4.61-12.33,3.78-2,14.86-3,4.31-3.52,6.19-4,15.13-3.77,17.57-4.79,2.17-.74,0-5.54-5.13-7.53-7.56-29.66-1.9-22.13,11.6-26.16,10.55-2.76,9.46,9.56-7,12.33-8.38,21.38-.26,14.58,5.41,24.15,5.14,4.77,17.28,4.77,9.46,3,17.55,5.78,5.41-5,13.26-7.8,6.19,1.77,24.56-1c7-1,9.39-1.3,9.94-1.35-.56,0-2.58.06-.49-1.16,4.33-2.52,5.41-7,11.63-7.8s10.52,1.76,10.24-7.81-3.77-8-2.69-15.34,1.34-4,1.89-9.8-.8-6.79,7-8.8,2.43,7,11.87,9,8.11,3.52,9.74-3.77,6.75-16.86,2.15-16.35-5.67-.25-10.26-7-7.28-8.3-4.31-8.3,12.95-2.77,27.26-2.27,18.38,1.76,19.18.25-2.43-3,2.43-6,20.8,1.51,18.37-1.26-16.47-6.54-25.92-5-32.42,4.27-35.93,4-10-2.76-11.61-4.51-6.76-3-6.76-11.33,3-11.56-1.89-19.61,8.91-14.84,18.37-23.39,7-15.61,12.68-16.1,7.86-3.52,5.14-6.3-12.69-12.32-17.56-13.32-12.14-6.54-19.71,6.54.53,14.33,1.9,21.13-10.54,11.82-19.46,18.1-12.14,4.79-14.85,20.88-5.41,16.61,4.59,22.13,11.89,8.3,7.3,13.07-14.32,4.54-20.26,15.87-3.51,16.83-5.94,21.87-10,7.29-12.16,12.32-2.15,14.58-11.34,13.09-4-13.85-8.11-20.14-7.29-11.56-12.15-19.35-1.07-15.35-5.67-19.38-5.68-12.07-5.68-12.07l-1.61,3.78c-1.62,3.78-.81,6-10,17.36s-23,12.06-29.72,9.3-5.66-9.3-5.66-17.61-1.63-19.37-.28-32.44,5.15-12.08,19.47-20.63,14.56-8,18.08-13.58,13.78-13.33,19.71-18.37S1399.61,465.53,1405,452s15.39-21.88,25.11-36.47,27-27.41,49.16-36.71,18.38-10.32,23.49-17.62,7.31-3,15.94-4.77,7.29,0-1.35,8.55-12.41,17.6-5.13,10.81,13-14.84,24.31-14.33,6.75,0,17.83,5,13,5.53,6.77,9.55-16.77,3-16.77,3a17.46,17.46,0,0,0,13.78,9.56c10.27,1.26,15.93-8.05,22.69-4.54s8.64,6-.55,5.29-11.87,5-.53,9,12.42,4.53,27.27,6.55,21.35,12.82,32.68,17.6,24.57.75,20.81,11.08,3,20.37-16.75,25.15-19.19-1.52-35.65-6.55A289.82,289.82,0,0,1,1580,442.14,106.07,106.07,0,0,0,1591.91,455c7.55,7,8.37,13.57,7.55,26.4s-4.33,16.35,8.65,22.63,11.08,4.53,15.12,3.53,10.8-2.27,9.18-4.29-3-5.77-7.3-7.78-4.58-6.8-.26-9.06,8.36,2,17.83,1.5,0-3.51,4.58-8.28,4.88-12.83,16-17.13,22.94,2,25.93-2.75,6.21-10.31,0-17.61-11.08-9.8-7.3-13.33,11.35-12.83,14.86-7.54,12.42,11.07,1.08,10.05-3.52,16.86,6.75,15.86,9.45-4.28,17.83-8.3,24.84-17.36,36.45-21.39,14-3,18.63-1,4.6,5.79,17.3,3.27,16.47-5.54,28.36-7.55-.81,4.28,4.58,6,6,3.28,10,.52,17-7.3,11.08-11.83-10.28-7.55-10.28-7.55a16.17,16.17,0,0,1,15.67-8.8c11.34.75,28.62,11.32,39.71,18.87s24.57,23.63,24.57,23.63,4.85-8.29.8-22.13-14.31-10.56-14.31-23.63-9.46-9.57-6.21-18.87,12.42-12.83,14.87-24.66,4.58-21.61,13-21.61,26.47,2.51,26.47,2.51,0,10.81-6.76,26.91,3.52,17.86,1.9,37.48-1.9,22.13,2.7,26.65,13.25,10.07,10,18.61-4.87,13.84-17,18.62-27.55,2-21.89,5.79A54,54,0,0,0,1943,467c8.11,1.26,4-.5,10.53-5.78s21.08-15.85,20.53-20.89-8.37-12.82-3-16.6,7.55-9.55,15.93-4.77,16.48,22.64,16.48,21.88-1.63-17.61-11.61-27.65-26.47-.53-26.47-9.31,4.58-20.89,3.5-30.44-4.84-19.12,1.36-27.41,6.48-14.84,6.48-14.84a35.34,35.34,0,0,1,.53,17.59c-2.14,9.81,1.1,15.61,5.68,15.61s25.11.26,14-3-14.31-6.29-3.24-12.32,10.53-2,26.72,1.75,20,6.55,25.4,6.3,4.6-.76,2.7-5.54a21.51,21.51,0,0,0-9.46-11.32c-5.14-3.27-8.63.76-10.25-4.28s-4.59-17.61-6-22.38,4.06-1,12.69-1,32.14-1.26,50.25-1.76.27-19.36-1.09-32.7,33.49-13.83,50.5-16.34,36.73-1.75,68.6-9.31,11.35-6.29,15.94-15.34,12.43-10.56,21.88-10.56,18.11,1.75,14.59,3-14,6.53,2.43,10.07,12.17,3.25,3.51,6.28-1.34,8.55,15.39,8.55,6.75-1.51,4-7,2.44-3.53,16.22-1.26,19.17,4.54,26.74,11.57,8.9,5.29,11.6,15.1-.26,8.29-11.88,17.35-18.63,9.06-35.38,19.62-12.7,16.09-21.87,23.14-6.76,5,12.68,0,30-8.3,40-7.3,14.84,4.78,22.41,4.78-.54,1.26,23.23,1.26,20.24,0,11.6,6.79,1.63,8.81,12.16,8.81,23.5.5,33.21-1,1.37-8.8,13-9.31,15.39-1.51,27.81-1.51,8.64,5,13,9.56,10.26,7.54,6.21,16.6-6.21,9.3-3.79,21.62,8.66,14.08,16.22,16.35,7.55-11.05,14.85-15.59,8.92,9,17.29,7,17.82-1,25.11,1.25,13.5,3.54,23.78,1.27,7-6.28,3.51-12.57-3.79-5.8,2.69-12.33,10.81-3.28,31.87,2.26,14.32,5.53,26.2,8.81,8.11,2.52,26.2,10.81,14.6,18.11,23,23.38,8.91,0,25.67-1.49,16.46,2,34.83,6.79,13.49,10.81,13.49,16.1-5.12,9.31,6.22,11.82,15.94,4.77,25.66,2.26,1.08,2.51,22.69,2.76,14.32-2.51,20.81,2,8.1,13.58,18.63,12.58,9.72-.76,5.4-10.07-7-10.83-.81-10.56,18.9,3,42.39,6.79,24.31,8.05,43.51,20.12,24.55,13.08,38.61,23.89c5.36,4.12,6.41,5.31,6.53,5.62.36,0,1.85.43,7.26,2.93,15.1,7,12.42,4.79,25.38,11.07a147.63,147.63,0,0,1,24,15.09S3050.38,532.94,3040.66,534ZM1780.52,789.58s-1.44,1.92,6.13-4.12-3.53-.25-7.85-1.51-5.68-3.28-4.31-8.8-.55-5.54-5.14-12.83c0,0-2.44-1.5-7.56,1.5s-8.09-3-14.32-.74-13,1.25-16.75,10.56-8.1,3.27-9.44,10.81-13,11.56-13,11.56,4.61,4.54,8.11,8.81,1.08,1.52,4.59,15.61,6,12.82,10.81,14.83a105.69,105.69,0,0,1,12.42,6.8s-4.58-2.78-4.58,4.77-7.3,12.83-6.49,23.89-10,21.38-1.35,22.4,5.94,4.77,15.39,7.29,14.84,4.27,28.64,4.27,6.2-5.28,4.31-13.08a106.33,106.33,0,0,1-3.5-21.38c-.55-8.54-3.79-6.29-6-11.56s1.08-8.31,7.55-8.31,7.32-.25,3.79-6-1.33-8.05-5.69-10.57-6.2,8.31-6.2,8.31-2.69-2.52-1.61-13.09,1.89-5.53-1.34-7.55-5.16.5-9.47-6.53-.53-5.53-5.66-14.08-2.45-4,3.23-4,2.69-1.25,0-4-4.58-7,2.69-6.54,16.76,2,20.26,2.27S1780.52,789.58,1780.52,789.58ZM772.88,402c-2.5,4.3,4.22,9.81,9.09,8.1s6.46.19,9.23-2,3-5.45-.26-8.64-2-5.06-2.51-5.41C782.22,390.26,775.38,397.75,772.88,402ZM2108,124.73c-7.3.25-15.41.51-8.64,2.77s4,13.58,17,7.29,10.27-6.79,19.19-10.57,3.75-2-7-4.77C2121.82,117.69,2115.34,124.48,2108,124.73Z"/></g></g></svg>